<svg width="140" height="43" viewBox="0 0 140 43" fill="none" xmlns="http://www.w3.org/2000/svg">
<path fill-rule="evenodd" clip-rule="evenodd" d="M5.0377 9.08971e-07H135.038C136.37 9.08971e-07 137.649 0.525706 138.591 1.46147C139.533 2.39724 140.063 3.66644 140.063 4.98981V37.2363C140.063 38.5597 139.533 39.8288 138.591 40.7646C137.649 41.7004 136.37 42.2261 135.038 42.2261H5.0377C3.70495 42.2261 2.42679 41.7004 1.48439 40.7646C0.542001 39.8288 0.0125732 38.5597 0.0125732 37.2363V4.9399C0.0125732 3.61653 0.542001 2.34735 1.48439 1.41158C2.42679 0.475816 3.70495 -0.0498886 5.0377 -0.0498886V9.08971e-07Z" fill="url(#paint0_linear_6_423)"/>
<path fill-rule="evenodd" clip-rule="evenodd" d="M5.03772 3.14357C4.56894 3.14684 4.1203 3.33319 3.78882 3.66234C3.45733 3.99149 3.26965 4.437 3.26636 4.90248V37.149C3.26967 37.6133 3.45777 38.0575 3.7896 38.3846C4.12144 38.7118 4.57009 38.8954 5.03772 38.8954H135.038C135.504 38.8954 135.952 38.7114 136.281 38.3839C136.611 38.0564 136.797 37.6122 136.797 37.149V4.9399C136.797 4.47556 136.612 4.03006 136.282 3.70056C135.953 3.37106 135.505 3.18429 135.038 3.18099L5.03772 3.14357Z" fill="url(#paint1_linear_6_423)"/>
<path style="mix-blend-mode:screen" fill-rule="evenodd" clip-rule="evenodd" d="M5.03767 3.14357H135.038C135.272 3.14354 135.503 3.18986 135.719 3.27982C135.935 3.36979 136.13 3.5016 136.294 3.66752L138.555 1.40962C138.097 0.949045 137.551 0.583823 136.95 0.33535C136.348 0.0868778 135.702 -0.0398539 135.05 -0.0374222H5.03767C3.71938 -0.0319103 2.45606 0.487787 1.52008 1.40962L3.78139 3.66752C3.94559 3.50216 4.14115 3.3707 4.35677 3.28077C4.57239 3.19085 4.80381 3.14423 5.03767 3.14357Z" fill="url(#paint2_radial_6_423)"/>
<path style="mix-blend-mode:multiply" fill-rule="evenodd" clip-rule="evenodd" d="M135.038 38.9328H5.03767C4.56792 38.9308 4.11739 38.7474 3.78139 38.4214L1.52008 40.6668C2.45403 41.5932 3.71759 42.1175 5.03767 42.1263H135.038C135.69 42.1264 136.336 41.9974 136.938 41.7468C137.54 41.4962 138.085 41.129 138.543 40.6668L136.281 38.4214C135.946 38.7485 135.495 38.9321 135.025 38.9328H135.038Z" fill="url(#paint3_radial_6_423)"/>
<path style="mix-blend-mode:screen" fill-rule="evenodd" clip-rule="evenodd" d="M3.20349 37.1864V4.9399C3.20182 4.70846 3.24649 4.47898 3.33491 4.26482C3.42333 4.05067 3.55375 3.85612 3.71857 3.69245L1.45726 1.43458C0.528902 2.36398 0.00552441 3.61839 -2.64502e-05 4.92742V37.1739C-0.00247538 37.8212 0.125154 38.4623 0.375386 39.06C0.625618 39.6576 0.993427 40.1996 1.45726 40.6543L3.71857 38.4089C3.38799 38.0768 3.20288 37.6284 3.20349 37.1615V37.1864Z" fill="url(#paint4_radial_6_423)"/>
<path style="mix-blend-mode:multiply" fill-rule="evenodd" clip-rule="evenodd" d="M136.797 4.9399V37.1864C136.797 37.6534 136.612 38.1017 136.281 38.4339L138.543 40.6793C139.007 40.2246 139.374 39.6825 139.625 39.0849C139.875 38.4873 140.002 37.8461 140 37.1989V4.9399C139.994 3.63088 139.471 2.37645 138.543 1.44704L136.281 3.70494C136.446 3.8686 136.577 4.06316 136.665 4.27731C136.754 4.49146 136.798 4.72094 136.797 4.95239V4.9399Z" fill="url(#paint5_linear_6_423)"/>
<path style="mix-blend-mode:screen" fill-rule="evenodd" clip-rule="evenodd" d="M3.20352 25.4604V4.9399C3.20185 4.70846 3.24651 4.47898 3.33494 4.26482C3.42336 4.05067 3.55377 3.85612 3.71859 3.69245L1.45729 1.43458C0.528928 2.36398 0.00555086 3.61839 0 4.92742V26.8451C0.94579 26.1536 2.044 25.696 3.20352 25.5103V25.4604Z" fill="url(#paint6_linear_6_423)"/>
<path style="mix-blend-mode:screen" fill-rule="evenodd" clip-rule="evenodd" d="M135.038 0.474033H5.03771C3.8449 0.474033 2.70095 0.944537 1.85751 1.78205C1.01407 2.61956 0.540222 3.75548 0.540222 4.9399V25.5976C0.569618 25.8734 0.700749 26.1286 0.90835 26.314C1.11595 26.4995 1.38534 26.6022 1.6646 26.6022C1.94386 26.6022 2.21324 26.4995 2.42084 26.314C2.62844 26.1286 2.75957 25.8734 2.78897 25.5976V4.9399C2.78897 4.34769 3.02589 3.77974 3.44761 3.36098C3.86933 2.94223 4.44131 2.70696 5.03771 2.70696H135.038C135.632 2.71025 136.201 2.94696 136.62 3.36536C137.039 3.78376 137.274 4.34984 137.274 4.9399V9.75503C137.303 10.0308 137.434 10.286 137.642 10.4715C137.85 10.657 138.119 10.7596 138.398 10.7596C138.678 10.7596 138.947 10.657 139.155 10.4715C139.362 10.286 139.493 10.0308 139.523 9.75503V4.9399C139.523 3.75764 139.051 2.62362 138.21 1.78646C137.369 0.949311 136.228 0.477336 135.038 0.474033Z" fill="url(#paint7_radial_6_423)"/>
<g style="mix-blend-mode:screen">
<path fill-rule="evenodd" clip-rule="evenodd" d="M49.485 2.27037C25.3015 2.27037 5.70355 2.55727 5.70355 2.70696C5.70355 2.85666 41.7965 2.84418 49.485 2.84418C57.1734 2.84418 93.2538 2.84418 93.2538 2.70696C93.2538 2.56974 73.6558 2.27037 49.485 2.27037Z" fill="#A7A7A7"/>
</g>
<g style="mix-blend-mode:multiply">
<path fill-rule="evenodd" clip-rule="evenodd" d="M2.21103 40.305C2.54679 39.8143 2.97305 39.391 3.46731 39.0576C3.71077 38.9005 3.9936 38.8141 4.28389 38.8081C4.03924 38.6976 3.82291 38.5336 3.65106 38.3283C3.4792 38.1231 3.35626 37.882 3.29143 37.623C3.34819 37.9995 3.28216 38.3842 3.10299 38.7208C2.75678 39.2029 2.33223 39.6244 1.8467 39.9682C1.59584 40.135 1.28923 40.1977 0.992432 40.1429C1.30532 40.5451 1.67319 40.902 2.0854 41.2032C2.01233 40.8988 2.05717 40.5782 2.21103 40.305Z" fill="#F0F0F0"/>
</g>
<g style="mix-blend-mode:multiply">
<path fill-rule="evenodd" clip-rule="evenodd" d="M137.802 40.305C137.459 39.8201 137.034 39.398 136.545 39.0576C136.296 38.9024 136.01 38.8162 135.716 38.8081C135.961 38.6976 136.177 38.5336 136.349 38.3283C136.521 38.1231 136.644 37.882 136.709 37.623C136.658 37.9995 136.723 38.3823 136.897 38.7208C137.244 39.2023 137.668 39.6237 138.153 39.9682C138.4 40.1342 138.702 40.197 138.995 40.1429C138.685 40.5479 138.317 40.9053 137.902 41.2032C137.944 41.0535 137.956 40.897 137.936 40.7428C137.917 40.5886 137.867 40.4398 137.789 40.305H137.802Z" fill="#F0F0F0"/>
</g>
<g style="mix-blend-mode:screen">
<path fill-rule="evenodd" clip-rule="evenodd" d="M2.21103 1.82129C2.55347 2.30655 2.97861 2.7287 3.46731 3.06873C3.71337 3.22024 3.99462 3.30619 4.28389 3.31824C4.0371 3.42561 3.8189 3.58858 3.64663 3.79429C3.47435 4 3.35274 4.24276 3.29143 4.50329C3.34916 4.12273 3.28315 3.73383 3.10299 3.39308C2.75354 2.91371 2.32947 2.4926 1.8467 2.14562C1.59458 1.98191 1.28758 1.92365 0.992432 1.98346C1.29851 1.5753 1.66734 1.21747 2.0854 0.923122C2.01233 1.22756 2.05717 1.54815 2.21103 1.82129Z" fill="#F0F0F0"/>
</g>
<g style="mix-blend-mode:screen">
<path fill-rule="evenodd" clip-rule="evenodd" d="M137.802 1.82129C137.452 2.30066 137.028 2.72175 136.545 3.06873C136.294 3.21876 136.009 3.30451 135.716 3.31824C135.963 3.42561 136.181 3.58858 136.353 3.79429C136.526 4 136.647 4.24276 136.709 4.50329C136.657 4.1228 136.722 3.73568 136.897 3.39308C137.247 2.91439 137.671 2.4934 138.153 2.14562C138.276 2.06492 138.413 2.00906 138.558 1.98123C138.702 1.95341 138.851 1.95417 138.995 1.98346C138.692 1.57242 138.323 1.2141 137.902 0.923122C137.979 1.22601 137.939 1.54651 137.789 1.82129H137.802Z" fill="#F0F0F0"/>
</g>
<path style="mix-blend-mode:screen" opacity="0.3" fill-rule="evenodd" clip-rule="evenodd" d="M70.0754 40.567C34.0452 40.567 4.83667 39.9558 4.83667 39.6439C4.83667 39.3321 58.6306 39.357 70.0754 39.357C81.5201 39.357 135.301 39.357 135.301 39.6439C135.301 39.9308 106.093 40.567 70.0754 40.567Z" fill="url(#paint8_radial_6_423)"/>
<g style="mix-blend-mode:screen">
<path fill-rule="evenodd" clip-rule="evenodd" d="M127.324 38.4962C124.661 38.4069 121.996 38.5531 119.359 38.9328C122.007 39.167 124.667 39.2503 127.324 39.1823C129.986 39.2505 132.649 39.1672 135.302 38.9328C132.661 38.5528 129.991 38.4067 127.324 38.4962Z" fill="#BEBEBE"/>
</g>
<g style="mix-blend-mode:screen">
<path fill-rule="evenodd" clip-rule="evenodd" d="M113.781 38.596C112.099 38.5312 110.415 38.6441 108.756 38.9328C110.425 39.1072 112.104 39.1697 113.781 39.1199C115.459 39.1697 117.138 39.1072 118.807 38.9328C117.148 38.6441 115.464 38.5312 113.781 38.596Z" fill="#BEBEBE"/>
</g>
<path style="mix-blend-mode:screen" opacity="0.5" fill-rule="evenodd" clip-rule="evenodd" d="M3.20349 25.4604C21.2186 23.0404 118.467 12.9859 136.935 10.4287V4.9399C136.935 4.47556 136.75 4.03006 136.42 3.70056C136.091 3.37106 135.643 3.18429 135.176 3.181H5.03766C4.56888 3.18426 4.12024 3.37061 3.78876 3.69976C3.45728 4.02892 3.26959 4.47442 3.2663 4.9399V25.4604H3.20349Z" fill="url(#paint9_linear_6_423)"/>
<defs>
<linearGradient id="paint0_linear_6_423" x1="114.146" y1="64.8922" x2="26.4774" y2="-23.3971" gradientUnits="userSpaceOnUse">
<stop stop-color="#B3B3B3"/>
<stop offset="1" stop-color="#ABABAB"/>
</linearGradient>
<linearGradient id="paint1_linear_6_423" x1="111.884" y1="62.6468" x2="28.7066" y2="-21.1075" gradientUnits="userSpaceOnUse">
<stop stop-color="#AAAAAA"/>
<stop offset="1" stop-color="#929292"/>
</linearGradient>
<radialGradient id="paint2_radial_6_423" cx="0" cy="0" r="1" gradientUnits="userSpaceOnUse" gradientTransform="translate(10.0377 -1.72149) scale(129.033 128.126)">
<stop stop-color="#999999"/>
<stop offset="1" stop-color="#010D01"/>
</radialGradient>
<radialGradient id="paint3_radial_6_423" cx="0" cy="0" r="1" gradientUnits="userSpaceOnUse" gradientTransform="translate(10.3894 37.2862) scale(132.927 131.993)">
<stop stop-color="white"/>
<stop offset="1" stop-color="#949494"/>
</radialGradient>
<radialGradient id="paint4_radial_6_423" cx="0" cy="0" r="1" gradientUnits="userSpaceOnUse" gradientTransform="translate(282.95 10020.5) scale(144.803 1527.22)">
<stop stop-color="#ADADAD"/>
<stop offset="1" stop-color="#010D01"/>
</radialGradient>
<linearGradient id="paint5_linear_6_423" x1="837.128" y1="10608.3" x2="848.135" y2="10608.3" gradientUnits="userSpaceOnUse">
<stop stop-color="#AAAAAA"/>
<stop offset="1" stop-color="#666666"/>
</linearGradient>
<linearGradient id="paint6_linear_6_423" x1="1.8593" y1="26.7952" x2="1.8593" y2="1.44705" gradientUnits="userSpaceOnUse">
<stop stop-color="#010D01"/>
<stop offset="1" stop-color="#8D8D8D"/>
</linearGradient>
<radialGradient id="paint7_radial_6_423" cx="0" cy="0" r="1" gradientUnits="userSpaceOnUse" gradientTransform="translate(12522.9 6602.01) scale(12035.9 2262.7)">
<stop stop-color="#A8A8A8"/>
<stop offset="1" stop-color="#010D01"/>
</radialGradient>
<radialGradient id="paint8_radial_6_423" cx="0" cy="0" r="1" gradientUnits="userSpaceOnUse" gradientTransform="translate(34027.9 379.761) scale(8639.81 19.0412)">
<stop stop-color="#C1C1C1"/>
<stop offset="1" stop-color="#010D01"/>
</radialGradient>
<linearGradient id="paint9_linear_6_423" x1="11041.4" y1="5906.34" x2="25277.1" y2="5906.34" gradientUnits="userSpaceOnUse">
<stop stop-color="#9C9C9C"/>
<stop offset="0.0729167" stop-color="#9E9E9E"/>
<stop offset="1" stop-color="#A2A2A2"/>
</linearGradient>
</defs>
</svg>
