<svg width="25" height="25" viewBox="0 0 25 25" fill="none" xmlns="http://www.w3.org/2000/svg">
<path d="M1.63974 24.1544C2.04054 24.5552 2.50029 24.8067 3.01897 24.9089C3.53766 25.011 4.09171 24.9364 4.68112 24.6849C5.27054 24.4334 5.84031 24.009 6.39043 23.4118L11.6716 17.2111L12.3789 17.8713C12.5832 18.0599 12.8268 18.1542 13.1098 18.1542C13.3927 18.1542 13.6284 18.0599 13.8171 17.8713C14.8073 16.9754 15.7543 16.0519 16.658 15.101C17.5618 14.1501 18.3831 13.2306 19.1218 12.3425C19.8605 11.4545 20.5482 10.5782 21.1847 9.71376C21.8213 8.84928 22.3754 8.03589 22.8469 7.27358C23.3184 6.51127 23.7192 5.78825 24.0493 5.10453C24.3794 4.42081 24.623 3.81568 24.7802 3.28913C24.9374 2.76259 25.0081 2.3107 24.9924 1.93348C24.9766 1.55625 24.8706 1.27726 24.6741 1.09651C24.4776 0.915755 24.234 0.825378 23.9432 0.825378C23.6524 0.825378 23.4127 0.911826 23.2241 1.08472L14.4536 9.1715L2.40598 19.4037C1.80871 19.9381 1.3804 20.5001 1.12106 21.0895C0.861713 21.6789 0.783125 22.2369 0.88529 22.7634C0.987455 23.29 1.23894 23.7536 1.63974 24.1544Z" fill="#8D8D8D"/>
</svg>
