<svg width="24" height="36" viewBox="0 0 24 36" fill="none" xmlns="http://www.w3.org/2000/svg">
<path d="M12 2.25C13.1935 2.25 14.3381 2.72411 15.182 3.56802C16.0259 4.41193 16.5 5.55653 16.5 6.75V15.75H7.5V6.75C7.5 5.55653 7.97411 4.41193 8.81802 3.56802C9.66193 2.72411 10.8065 2.25 12 2.25ZM18.75 15.75V6.75C18.75 4.95979 18.0388 3.2429 16.773 1.97703C15.5071 0.711159 13.7902 0 12 0C10.2098 0 8.4929 0.711159 7.22703 1.97703C5.96116 3.2429 5.25 4.95979 5.25 6.75V15.75C4.05653 15.75 2.91193 16.2241 2.06802 17.068C1.22411 17.9119 0.75 19.0565 0.75 20.25V31.5C0.75 32.6935 1.22411 33.8381 2.06802 34.682C2.91193 35.5259 4.05653 36 5.25 36H18.75C19.9435 36 21.0881 35.5259 21.932 34.682C22.7759 33.8381 23.25 32.6935 23.25 31.5V20.25C23.25 19.0565 22.7759 17.9119 21.932 17.068C21.0881 16.2241 19.9435 15.75 18.75 15.75Z" fill="#DBDBDB"/>
</svg>
