<svg width="38" height="44" viewBox="0 0 38 44" fill="none" xmlns="http://www.w3.org/2000/svg">
<path d="M29.8571 13.75V11C29.8571 4.93453 24.9866 0 19 0C13.0133 0 8.14286 4.93453 8.14286 11V13.75H0V37.125C0 40.922 3.03805 44 6.78571 44H31.2143C34.9619 44 38 40.922 38 37.125V13.75H29.8571ZM13.5714 11C13.5714 7.96727 16.0067 5.5 19 5.5C21.9933 5.5 24.4286 7.96727 24.4286 11V13.75H13.5714V11ZM27.1429 21.3125C26.0185 21.3125 25.1071 20.3891 25.1071 19.25C25.1071 18.1109 26.0185 17.1875 27.1429 17.1875C28.2672 17.1875 29.1786 18.1109 29.1786 19.25C29.1786 20.3891 28.2672 21.3125 27.1429 21.3125ZM10.8571 21.3125C9.73283 21.3125 8.82143 20.3891 8.82143 19.25C8.82143 18.1109 9.73283 17.1875 10.8571 17.1875C11.9815 17.1875 12.8929 18.1109 12.8929 19.25C12.8929 20.3891 11.9815 21.3125 10.8571 21.3125Z" fill="url(#paint0_linear_110_14)"/>
<defs>
<linearGradient id="paint0_linear_110_14" x1="19" y1="0" x2="19" y2="44" gradientUnits="userSpaceOnUse">
<stop stop-color="#FFF0DE"/>
<stop offset="1" stop-color="#FFCD92"/>
</linearGradient>
</defs>
</svg>
