<svg width="48" height="48" viewBox="0 0 48 48" fill="none" xmlns="http://www.w3.org/2000/svg">
<path d="M46.1094 22.6719C45.7188 22.6719 45.3281 22.8281 45.0938 23.1406C45.1719 22.9844 45.1719 22.8281 45.1719 22.6719C45.1719 21.9687 44.625 21.3437 43.8438 21.3437C43.6875 21.3437 43.6094 21.3437 43.4531 21.4219C42.9844 17.8281 41.5781 14.625 39.4688 11.8906C39.625 11.8125 39.7031 11.7344 39.7812 11.6562C40.25 11.1875 40.25 10.3281 39.7812 9.85937C39.3125 9.39062 38.4531 9.39062 37.9844 9.85937C37.9062 9.9375 37.9062 10.0156 37.8281 10.0156C37.9062 9.9375 37.9844 9.9375 37.9844 9.85937C38.4531 9.39062 38.4531 8.53125 37.9844 8.0625C37.5156 7.59375 36.6562 7.59375 36.1875 8.0625C36.1094 8.14062 36.0312 8.29687 35.9531 8.375C33.375 6.26562 30.0938 4.9375 26.5 4.46875C26.5781 4.3125 26.5781 4.23437 26.5781 4.07812C26.5781 3.375 26.0312 2.75 25.25 2.75C25.0937 2.75 24.9375 2.75 24.7812 2.82812C25.0938 2.59375 25.25 2.20312 25.25 1.8125C25.3281 1.10937 24.7031 0.5625 24 0.5625C23.2969 0.5625 22.6719 1.10938 22.6719 1.89062C22.6719 2.28125 22.8281 2.67187 23.1406 2.90625C22.9844 2.82812 22.8281 2.82812 22.6719 2.82812C21.9688 2.82812 21.3438 3.375 21.3438 4.15625C21.3438 4.3125 21.3438 4.39062 21.4219 4.54687C17.9062 4.9375 14.625 6.26562 11.9688 8.375C11.8906 8.21875 11.8125 8.14062 11.7344 8.0625C11.2656 7.59375 10.4062 7.59375 9.9375 8.0625C9.46875 8.53125 9.46875 9.39062 9.9375 9.85937C10.0156 9.9375 10.0938 9.9375 10.0938 10.0156C10.0156 9.9375 10.0156 9.85937 9.9375 9.85937C9.46875 9.39062 8.60938 9.39062 8.14062 9.85937C7.67188 10.3281 7.67188 11.1875 8.14062 11.6562C8.21875 11.7344 8.375 11.8125 8.45313 11.8906C6.26563 14.625 4.9375 17.9062 4.46875 21.5C4.3125 21.4219 4.23438 21.4219 4.07812 21.4219C3.375 21.4219 2.75 21.9687 2.75 22.75C2.75 22.9062 2.75 23.0625 2.82812 23.2187C2.59375 22.9062 2.20312 22.75 1.8125 22.75C1.10937 22.6719 0.5625 23.2969 0.5625 24C0.5625 24.7031 1.10938 25.3281 1.89062 25.3281C2.28125 25.3281 2.67188 25.1719 2.90625 24.8594C2.82812 25.0156 2.82812 25.1719 2.82812 25.3281C2.82812 26.0312 3.375 26.6562 4.15625 26.6562C4.3125 26.6562 4.39062 26.6562 4.54688 26.5781C4.85938 30.0937 6.26562 33.375 8.375 36.0312C8.21875 36.1094 8.14063 36.1875 8.0625 36.2656C7.59375 36.7344 7.59375 37.5937 8.0625 38.0625C8.53125 38.5312 9.39062 38.5312 9.85938 38.0625C9.9375 37.9844 9.9375 37.9062 10.0156 37.9062C9.9375 37.9844 9.85938 37.9844 9.85938 38.0625C9.39062 38.5312 9.39062 39.3906 9.85938 39.8594C10.3281 40.3281 11.1875 40.3281 11.6563 39.8594C11.7344 39.7812 11.8125 39.625 11.8906 39.5469C14.625 41.6562 17.8281 43.0625 21.4219 43.5312C21.3438 43.6875 21.3438 43.7656 21.3438 43.9219C21.3438 44.625 21.8906 45.25 22.6719 45.25C22.8281 45.25 22.9844 45.25 23.1406 45.1719C22.8281 45.4062 22.6719 45.7969 22.6719 46.1875C22.6719 46.8906 23.2188 47.5156 24 47.5156C24.7031 47.5156 25.3281 46.9687 25.3281 46.1875C25.3281 45.7969 25.1719 45.4062 24.8594 45.1719C25.0156 45.25 25.1719 45.25 25.3281 45.25C26.0312 45.25 26.6563 44.7031 26.6563 43.9219C26.6563 43.7656 26.6562 43.6875 26.5781 43.5312C30.1719 43.0625 33.375 41.6562 36.1094 39.5469C36.1875 39.7031 36.2656 39.7812 36.3438 39.8594C36.8125 40.3281 37.6719 40.3281 38.1406 39.8594C38.6094 39.3906 38.6094 38.5312 38.1406 38.0625C38.0625 37.9844 37.9844 37.9844 37.9844 37.9062C38.0625 37.9844 38.0625 38.0625 38.1406 38.0625C38.6094 38.5312 39.4688 38.5312 39.9375 38.0625C40.4062 37.5937 40.4062 36.7344 39.9375 36.2656C39.8594 36.1875 39.7031 36.1094 39.625 36.0312C41.7344 33.2969 43.1406 30.0937 43.6094 26.5C43.7656 26.5781 43.8438 26.5781 44 26.5781C44.7031 26.5781 45.3281 26.0312 45.3281 25.25C45.3281 25.0937 45.3281 24.9375 45.25 24.7812C45.4844 25.0937 45.875 25.25 46.2656 25.25C46.9688 25.25 47.5938 24.7031 47.5938 23.9219C47.4375 23.2969 46.8906 22.6719 46.1094 22.6719ZM25.7969 8.14062C28.8438 8.45312 31.5781 9.70312 33.9219 11.5C33.8438 11.9687 29.2344 17.0469 28.8438 17.2812C27.8281 16.5781 26.6562 16.0312 25.3281 15.7969C25.1719 15.3281 25.5625 8.53125 25.7969 8.14062ZM22.2031 8.14062C22.4375 8.53125 22.8281 15.3281 22.6719 15.7969C21.3438 16.0312 20.1719 16.5 19.1562 17.2812C18.7656 17.0469 14.1562 11.9687 14.0781 11.5C16.3437 9.70312 19.1562 8.45312 22.2031 8.14062ZM11.5 14.0781C11.9688 14.1562 17.0469 18.7656 17.2812 19.1562C16.5781 20.1719 16.0312 21.3437 15.7969 22.6719C15.3281 22.8281 8.53125 22.4375 8.14062 22.2031C8.45312 19.1562 9.70312 16.3437 11.5 14.0781ZM11.5 33.9219C9.70312 31.6562 8.53125 28.8437 8.14062 25.7969C8.53125 25.5625 15.3281 25.1719 15.7969 25.3281C16.0312 26.6562 16.5 27.8281 17.2812 28.8437C17.0469 29.2344 11.9688 33.8437 11.5 33.9219ZM22.2031 39.8594C19.1562 39.5469 16.4219 38.2969 14.0781 36.5C14.1562 36.0312 18.7656 30.9531 19.1562 30.7187C20.1719 31.4219 21.3438 31.9687 22.6719 32.2031C22.8281 32.6719 22.4375 39.4687 22.2031 39.8594ZM24 27.9062C21.8125 27.9062 20.0938 26.1875 20.0938 24C20.0938 21.8125 21.8125 20.0937 24 20.0937C26.1875 20.0937 27.9062 21.8125 27.9062 24C27.9062 26.1875 26.1875 27.9062 24 27.9062ZM25.7969 39.8594C25.5625 39.4687 25.1719 32.6719 25.3281 32.2031C26.6562 31.9687 27.8281 31.5 28.8438 30.7187C29.2344 30.9531 33.8438 36.0312 33.9219 36.5C31.6562 38.2969 28.8438 39.5469 25.7969 39.8594ZM36.5 33.9219C36.0312 33.8437 30.9531 29.2344 30.7187 28.8437C31.4219 27.8281 31.9688 26.6562 32.2031 25.3281C32.6719 25.1719 39.4688 25.5625 39.8594 25.7969C39.5469 28.8437 38.2969 31.6562 36.5 33.9219ZM32.2031 22.6719C31.9688 21.3437 31.5 20.1719 30.7187 19.1562C30.9531 18.7656 36.0312 14.1562 36.5 14.0781C38.2969 16.3437 39.4688 19.1562 39.8594 22.2031C39.4688 22.4375 32.6719 22.8281 32.2031 22.6719Z" fill="url(#paint0_linear_110_13)"/>
<defs>
<linearGradient id="paint0_linear_110_13" x1="24.0781" y1="0.5625" x2="24.0781" y2="47.5156" gradientUnits="userSpaceOnUse">
<stop stop-color="#FFF0DE"/>
<stop offset="1" stop-color="#FFCD92"/>
</linearGradient>
</defs>
</svg>
