<svg width="311" height="311" viewBox="0 0 311 311" fill="none" xmlns="http://www.w3.org/2000/svg">
<g clip-path="url(#clip0_6_933)">
<path d="M148.739 304.079C148.739 300.444 150.37 294.721 155.34 294.721C160.309 294.721 161.929 300.444 161.929 304.079C161.929 305.827 161.235 307.505 160 308.742C158.764 309.98 157.089 310.677 155.34 310.68C153.589 310.68 151.91 309.985 150.672 308.747C149.434 307.509 148.739 305.829 148.739 304.079Z" fill="#C10222"/>
<path d="M148.739 6.60128C148.739 10.2357 150.37 15.9593 155.34 15.9593C160.309 15.9593 161.929 10.2357 161.929 6.60128C161.929 4.85266 161.235 3.17546 160 1.93783C158.764 0.700209 157.089 0.00327458 155.34 0C153.589 0 151.91 0.695497 150.672 1.93348C149.434 3.17145 148.739 4.85052 148.739 6.60128Z" fill="#C10222"/>
<path d="M223.998 287.452C222.169 284.3 220.722 278.527 225.024 276.042C229.326 273.557 233.591 277.698 235.421 280.851C236.295 282.366 236.532 284.166 236.08 285.855C235.628 287.545 234.524 288.986 233.01 289.863C232.26 290.297 231.432 290.579 230.573 290.693C229.714 290.807 228.841 290.751 228.004 290.527C227.167 290.303 226.382 289.916 225.695 289.388C225.007 288.861 224.431 288.203 223.998 287.452Z" fill="#C10222"/>
<path d="M75.2471 29.817C77.0766 32.9816 81.3415 37.1105 85.6434 34.6258C89.9454 32.141 88.4991 26.3804 86.6695 23.2281C86.2419 22.4738 85.6697 21.8113 84.9856 21.2786C84.3015 20.7459 83.519 20.3535 82.6829 20.1238C81.8469 19.8942 80.9737 19.8317 80.1135 19.9401C79.2533 20.0486 78.4229 20.3257 77.67 20.7557C76.9129 21.1886 76.249 21.7672 75.7168 22.4581C75.1846 23.1491 74.7946 23.9386 74.5693 24.7812C74.344 25.6237 74.2879 26.5025 74.4043 27.3669C74.5206 28.2312 74.807 29.064 75.2471 29.817Z" fill="#C10222"/>
<path d="M280.851 235.421C277.698 233.603 273.557 229.339 276.042 225.024C278.527 220.71 284.287 222.181 287.452 223.998C288.966 224.874 290.07 226.316 290.522 228.005C290.974 229.695 290.737 231.495 289.862 233.01C289.43 233.761 288.853 234.419 288.166 234.946C287.478 235.474 286.694 235.861 285.857 236.085C285.02 236.309 284.146 236.365 283.287 236.251C282.428 236.137 281.6 235.855 280.851 235.421Z" fill="#C10222"/>
<path d="M23.2157 86.6819C26.3803 88.4991 32.141 89.9454 34.6258 85.6435C37.1105 81.3415 32.9692 77.0766 29.8169 75.2594C29.0672 74.825 28.2391 74.5427 27.3801 74.4288C26.5211 74.3148 25.6481 74.3714 24.811 74.5953C23.9739 74.8192 23.1892 75.2061 22.5018 75.7337C21.8144 76.2613 21.2378 76.9193 20.8051 77.67C19.931 79.185 19.694 80.985 20.1459 82.6746C20.5979 84.3643 21.702 85.8055 23.2157 86.6819Z" fill="#C10222"/>
<path d="M304.079 161.929C300.432 161.929 294.721 160.31 294.721 155.34C294.721 150.371 300.432 148.739 304.079 148.739C304.946 148.739 305.804 148.909 306.605 149.241C307.406 149.573 308.134 150.059 308.747 150.672C309.36 151.285 309.846 152.013 310.178 152.814C310.509 153.615 310.68 154.473 310.68 155.34C310.68 156.206 310.509 157.064 310.177 157.864C309.845 158.665 309.359 159.391 308.746 160.003C308.133 160.615 307.405 161.1 306.604 161.431C305.803 161.761 304.945 161.931 304.079 161.929Z" fill="#C10222"/>
<path d="M6.5889 161.929C10.2357 161.929 15.9469 160.31 15.9469 155.34C15.9469 150.371 10.2357 148.739 6.5889 148.739C5.72259 148.739 4.86482 148.91 4.06461 149.241C3.2644 149.573 2.53749 150.06 1.92549 150.673C1.31349 151.286 0.828423 152.014 0.498027 152.815C0.167632 153.616 -0.0016137 154.474 1.16407e-05 155.34C-0.0016172 156.206 0.167707 157.063 0.498254 157.863C0.8288 158.664 1.31408 159.391 1.92624 160.003C2.5384 160.615 3.26537 161.1 4.06551 161.431C4.86565 161.761 5.72318 161.931 6.5889 161.929Z" fill="#C10222"/>
<path d="M287.452 86.6819C284.287 88.4991 278.527 89.9454 276.042 85.6435C273.557 81.3415 277.698 77.0766 280.851 75.2594C281.6 74.825 282.428 74.5427 283.287 74.4288C284.146 74.3148 285.02 74.3714 285.857 74.5953C286.694 74.8192 287.478 75.2061 288.166 75.7337C288.853 76.2613 289.43 76.9193 289.862 77.67C290.737 79.185 290.974 80.985 290.522 82.6746C290.07 84.3643 288.966 85.8055 287.452 86.6819Z" fill="#C10222"/>
<path d="M29.8169 235.421C32.9692 233.603 37.1105 229.339 34.6258 225.024C32.141 220.71 26.3803 222.181 23.2157 223.998C21.702 224.874 20.5979 226.316 20.1459 228.005C19.694 229.695 19.931 231.495 20.8051 233.01C21.2378 233.761 21.8144 234.419 22.5018 234.946C23.1892 235.474 23.9739 235.861 24.811 236.085C25.6481 236.309 26.5211 236.365 27.3801 236.251C28.2391 236.137 29.0672 235.855 29.8169 235.421Z" fill="#C10222"/>
<path d="M235.421 29.817C233.591 32.9816 229.326 37.1105 225.024 34.6258C220.722 32.141 222.169 26.3804 223.998 23.2281C224.427 22.4734 225 21.8106 225.685 21.2778C226.371 20.745 227.154 20.3525 227.991 20.1228C228.828 19.8932 229.702 19.8309 230.564 19.9395C231.425 20.0481 232.256 20.3254 233.01 20.7557C233.766 21.1896 234.429 21.769 234.96 22.4604C235.491 23.1518 235.879 23.9415 236.104 24.784C236.328 25.6264 236.383 26.5049 236.266 27.3688C236.148 28.2326 235.861 29.0647 235.421 29.817Z" fill="#C10222"/>
<path d="M86.6695 287.452C88.499 284.3 89.9454 278.527 85.6434 276.042C81.3415 273.557 77.0766 277.698 75.247 280.851C74.8151 281.604 74.5365 282.436 74.427 283.297C74.3175 284.159 74.3795 285.033 74.6092 285.871C74.839 286.708 75.2321 287.492 75.7658 288.177C76.2996 288.862 76.9635 289.435 77.7194 289.863C79.2273 290.724 81.0146 290.954 82.6913 290.502C84.368 290.05 85.7981 288.954 86.6695 287.452Z" fill="#C10222"/>
<path d="M150.593 303.695C150.593 301.075 151.755 294.721 155.34 294.721C158.925 294.721 160.075 301.075 160.075 303.695C160.076 304.318 159.955 304.935 159.718 305.511C159.481 306.087 159.132 306.61 158.692 307.051C158.252 307.492 157.73 307.842 157.155 308.081C156.579 308.32 155.963 308.442 155.34 308.442C154.716 308.444 154.098 308.322 153.521 308.084C152.945 307.846 152.421 307.497 151.98 307.056C151.539 306.615 151.189 306.091 150.951 305.514C150.713 304.937 150.591 304.319 150.593 303.695Z" fill="#F93443"/>
<path d="M150.593 6.9845C150.593 9.60522 151.755 15.9592 155.34 15.9592C158.925 15.9592 160.075 9.60522 160.075 6.9845C160.076 6.3617 159.955 5.74469 159.718 5.16884C159.481 4.59298 159.132 4.06957 158.692 3.62861C158.252 3.18765 157.73 2.83779 157.155 2.59908C156.579 2.36037 155.963 2.23752 155.34 2.23752C154.716 2.23589 154.098 2.35755 153.521 2.59554C152.945 2.83352 152.421 3.18311 151.98 3.62424C151.539 4.06536 151.189 4.5893 150.951 5.16597C150.713 5.74264 150.591 6.36066 150.593 6.9845Z" fill="#F93443"/>
<path d="M225.407 286.191C224.097 283.916 221.934 277.834 225.024 276.042C228.115 274.249 232.318 279.169 233.678 281.444C233.99 281.984 234.193 282.581 234.274 283.2C234.355 283.819 234.314 284.448 234.152 285.051C233.99 285.653 233.711 286.218 233.33 286.713C232.95 287.208 232.476 287.623 231.934 287.934C231.393 288.254 230.793 288.463 230.17 288.548C229.547 288.633 228.913 288.594 228.305 288.432C227.698 288.269 227.128 287.988 226.631 287.603C226.133 287.218 225.717 286.738 225.407 286.191Z" fill="#F93443"/>
<path d="M77.0519 29.236C78.3622 31.4982 82.5406 36.4182 85.6434 34.6258C88.7463 32.8333 86.583 26.7512 85.2726 24.489C84.9614 23.9479 84.5465 23.4736 84.0517 23.093C83.5569 22.7125 82.9919 22.4333 82.3891 22.2714C81.7862 22.1095 81.1574 22.0681 80.5386 22.1495C79.9197 22.231 79.323 22.4336 78.7826 22.746C78.2426 23.0582 77.7694 23.4739 77.3901 23.9691C77.0108 24.4644 76.7328 25.0295 76.5721 25.6322C76.4114 26.235 76.371 26.8635 76.4533 27.4819C76.5357 28.1002 76.739 28.6963 77.0519 29.236Z" fill="#F93443"/>
<path d="M281.506 233.628C279.231 232.318 274.324 228.127 276.104 224.975C277.884 221.822 283.978 224.048 286.253 225.358C287.34 225.989 288.133 227.025 288.457 228.239C288.782 229.453 288.611 230.747 287.983 231.836C287.678 232.38 287.267 232.859 286.775 233.245C286.283 233.63 285.72 233.914 285.118 234.081C284.516 234.247 283.887 234.293 283.267 234.215C282.647 234.138 282.048 233.938 281.506 233.628Z" fill="#F93443"/>
<path d="M24.4766 85.2726C26.7512 86.583 32.8333 88.7463 34.6258 85.6435C36.4182 82.5406 31.4982 78.3623 29.2236 76.9901C28.1348 76.3622 26.8413 76.1918 25.627 76.5163C24.4126 76.8407 23.3765 77.6335 22.7459 78.7208C22.425 79.2635 22.2152 79.8646 22.1286 80.4891C22.0419 81.1136 22.0802 81.749 22.2412 82.3586C22.4023 82.9682 22.6828 83.5397 23.0665 84.0399C23.4503 84.5401 23.9296 84.9591 24.4766 85.2726Z" fill="#F93443"/>
<path d="M303.757 160.087C301.137 160.087 294.783 158.913 294.783 155.34C294.783 151.767 301.137 150.593 303.757 150.593C304.38 150.593 304.997 150.716 305.572 150.955C306.147 151.193 306.67 151.543 307.11 151.984C307.549 152.425 307.898 152.948 308.135 153.524C308.372 154.1 308.494 154.717 308.492 155.34C308.494 155.963 308.372 156.58 308.135 157.156C307.898 157.732 307.549 158.255 307.11 158.696C306.67 159.137 306.147 159.487 305.572 159.725C304.997 159.964 304.38 160.087 303.757 160.087Z" fill="#F93443"/>
<path d="M6.98451 160.087C9.60524 160.087 15.9469 158.913 15.9469 155.34C15.9469 151.767 9.60524 150.593 6.98451 150.593C6.36067 150.591 5.74265 150.713 5.16599 150.951C4.58932 151.189 4.06538 151.539 3.62425 151.98C3.18313 152.421 2.83353 152.945 2.59555 153.521C2.35757 154.098 2.2359 154.716 2.23753 155.34C2.2359 155.964 2.35757 156.582 2.59555 157.159C2.83353 157.735 3.18313 158.259 3.62425 158.7C4.06538 159.141 4.58932 159.491 5.16599 159.729C5.74265 159.967 6.36067 160.089 6.98451 160.087Z" fill="#F93443"/>
<path d="M286.191 85.2726C283.916 86.583 277.834 88.7463 276.042 85.6435C274.249 82.5406 279.169 78.3623 281.444 76.9901C282.533 76.3622 283.826 76.1918 285.041 76.5163C286.255 76.8407 287.291 77.6335 287.922 78.7208C288.243 79.2635 288.452 79.8646 288.539 80.4891C288.626 81.1136 288.587 81.749 288.426 82.3586C288.265 82.9682 287.985 83.5397 287.601 84.0399C287.217 84.5401 286.738 84.9591 286.191 85.2726Z" fill="#F93443"/>
<path d="M29.2236 233.628C31.4982 232.318 36.4183 228.127 34.6258 224.975C32.8333 221.822 26.7512 224.048 24.4766 225.358C23.3893 225.989 22.5965 227.025 22.2721 228.239C21.9476 229.453 22.1181 230.747 22.746 231.836C23.0519 232.38 23.4626 232.859 23.9544 233.245C24.4462 233.63 25.0094 233.914 25.6116 234.081C26.2137 234.247 26.8429 234.293 27.4628 234.215C28.0828 234.138 28.6812 233.938 29.2236 233.628Z" fill="#F93443"/>
<path d="M233.628 29.236C232.318 31.4982 228.127 36.4182 224.975 34.6258C221.822 32.8333 224.048 26.7512 225.358 24.489C225.668 23.9484 226.082 23.4743 226.575 23.0939C227.069 22.7135 227.633 22.4343 228.235 22.2724C228.837 22.1105 229.465 22.0689 230.082 22.1502C230.7 22.2315 231.296 22.4339 231.836 22.746C232.381 23.0531 232.86 23.4649 233.245 23.9578C233.631 24.4508 233.915 25.015 234.082 25.6182C234.248 26.2213 234.294 26.8515 234.216 27.4724C234.138 28.0932 233.938 28.6926 233.628 29.236Z" fill="#F93443"/>
<path d="M85.2726 286.191C86.583 283.916 88.7339 277.834 85.6434 276.042C82.553 274.249 78.3622 279.169 77.0519 281.444C76.739 281.984 76.5357 282.58 76.4533 283.198C76.371 283.817 76.4114 284.445 76.5721 285.048C76.7328 285.65 77.0108 286.216 77.3901 286.711C77.7694 287.206 78.2426 287.622 78.7826 287.934C79.323 288.246 79.9197 288.449 80.5386 288.53C81.1574 288.612 81.7862 288.571 82.3891 288.409C82.9919 288.247 83.5569 287.967 84.0517 287.587C84.5465 287.206 84.9614 286.732 85.2726 286.191Z" fill="#F93443"/>
<path d="M151.063 301.137C151.058 300.741 151.132 300.349 151.283 299.984C151.433 299.618 151.656 299.287 151.938 299.009C152.22 298.732 152.555 298.515 152.923 298.371C153.291 298.226 153.684 298.158 154.079 298.17C154.475 298.156 154.869 298.223 155.238 298.367C155.606 298.511 155.942 298.728 156.224 299.006C156.506 299.283 156.729 299.615 156.879 299.981C157.029 300.348 157.102 300.741 157.095 301.137C157.095 301.937 156.778 302.704 156.212 303.269C155.646 303.835 154.879 304.153 154.079 304.153C153.279 304.153 152.512 303.835 151.946 303.269C151.381 302.704 151.063 301.937 151.063 301.137Z" fill="#FFBE78"/>
<path d="M151.063 4.38849C151.058 4.78374 151.132 5.17594 151.283 5.5415C151.433 5.90705 151.656 6.23839 151.938 6.51557C152.22 6.79276 152.555 7.01006 152.923 7.15438C153.291 7.2987 153.684 7.36707 154.079 7.35536C154.475 7.36884 154.869 7.30167 155.238 7.15798C155.606 7.01429 155.942 6.79708 156.224 6.51954C156.506 6.24199 156.729 5.90993 156.879 5.54357C157.029 5.17721 157.102 4.78422 157.095 4.38849C157.095 3.58852 156.778 2.8213 156.212 2.25564C155.646 1.68997 154.879 1.37218 154.079 1.37218C153.279 1.37218 152.512 1.68997 151.946 2.25564C151.381 2.8213 151.063 3.58852 151.063 4.38849Z" fill="#FFBE78"/>
<path d="M225.655 282.767C225.453 282.429 225.321 282.054 225.269 281.664C225.216 281.274 225.243 280.877 225.348 280.498C225.453 280.119 225.634 279.765 225.88 279.458C226.127 279.151 226.432 278.897 226.78 278.712C227.115 278.505 227.489 278.369 227.878 278.31C228.268 278.252 228.665 278.273 229.046 278.372C229.428 278.472 229.785 278.647 230.096 278.888C230.408 279.129 230.667 279.431 230.859 279.775C231.056 280.116 231.184 280.492 231.235 280.882C231.287 281.273 231.26 281.669 231.158 282.049C231.056 282.43 230.88 282.786 230.64 283.098C230.399 283.41 230.1 283.671 229.759 283.867C229.417 284.064 229.04 284.192 228.649 284.244C228.257 284.295 227.86 284.269 227.479 284.167C227.098 284.065 226.74 283.889 226.427 283.648C226.114 283.408 225.852 283.109 225.655 282.767Z" fill="#FFBE78"/>
<path d="M77.3115 25.7746C77.5018 26.1186 77.7603 26.4202 78.071 26.6609C78.3818 26.9017 78.7384 27.0766 79.119 27.1749C79.4996 27.2732 79.8963 27.293 80.2848 27.2329C80.6733 27.1728 81.0454 27.0341 81.3786 26.8254C81.7253 26.6414 82.031 26.3887 82.2769 26.0827C82.5229 25.7768 82.704 25.424 82.8092 25.0458C82.9145 24.6676 82.9417 24.272 82.8891 23.883C82.8365 23.494 82.7053 23.1197 82.5035 22.783C82.3075 22.44 82.0455 22.1393 81.7327 21.8981C81.4198 21.6568 81.0623 21.48 80.6807 21.3777C80.2991 21.2754 79.9011 21.2497 79.5095 21.3021C79.118 21.3545 78.7406 21.4839 78.3994 21.6828C78.059 21.8799 77.7609 22.142 77.522 22.4544C77.2831 22.7667 77.1081 23.1231 77.0071 23.5032C76.906 23.8832 76.8809 24.2795 76.9332 24.6692C76.9854 25.059 77.114 25.4346 77.3115 25.7746Z" fill="#FFBE78"/>
<path d="M281.073 229.524C280.731 229.334 280.431 229.076 280.191 228.766C279.952 228.456 279.777 228.101 279.679 227.722C279.581 227.343 279.561 226.947 279.62 226.56C279.679 226.173 279.816 225.802 280.022 225.469C280.209 225.125 280.463 224.822 280.769 224.578C281.075 224.334 281.428 224.154 281.805 224.049C282.182 223.944 282.577 223.916 282.965 223.967C283.353 224.018 283.727 224.146 284.065 224.344C284.75 224.745 285.248 225.399 285.452 226.166C285.656 226.933 285.548 227.749 285.153 228.436C284.755 229.12 284.102 229.619 283.337 229.822C282.573 230.026 281.759 229.919 281.073 229.524Z" fill="#FFBE78"/>
<path d="M24.1058 81.1808C24.4418 81.37 24.8122 81.4904 25.1953 81.5349C25.5784 81.5795 25.9665 81.5473 26.337 81.4403C26.7075 81.3333 27.053 81.1536 27.3534 80.9116C27.6537 80.6697 27.9029 80.3704 28.0863 80.0311C28.293 79.6985 28.43 79.3273 28.489 78.9401C28.548 78.5529 28.5278 78.1578 28.4296 77.7787C28.3313 77.3995 28.1571 77.0443 27.9175 76.7345C27.6779 76.4247 27.3778 76.1668 27.0355 75.9764C26.3499 75.5814 25.5357 75.474 24.7712 75.6779C24.0066 75.8818 23.354 76.3803 22.9561 77.0643C22.7572 77.409 22.6291 77.79 22.5792 78.1849C22.5294 78.5799 22.5589 78.9807 22.6659 79.3641C22.773 79.7475 22.9555 80.1056 23.2027 80.4175C23.45 80.7295 23.757 80.989 24.1058 81.1808Z" fill="#FFBE78"/>
<path d="M302.447 155.76C302.054 155.766 301.664 155.691 301.3 155.541C300.937 155.391 300.608 155.169 300.333 154.888C300.058 154.607 299.842 154.274 299.7 153.907C299.558 153.541 299.491 153.149 299.505 152.756C299.493 152.364 299.561 151.974 299.704 151.609C299.847 151.244 300.062 150.912 300.337 150.633C300.612 150.353 300.941 150.132 301.303 149.983C301.666 149.834 302.055 149.76 302.447 149.765C303.24 149.765 304.001 150.08 304.562 150.641C305.123 151.202 305.439 151.963 305.439 152.756C305.44 153.15 305.364 153.541 305.214 153.905C305.065 154.269 304.845 154.601 304.567 154.88C304.289 155.159 303.958 155.38 303.595 155.531C303.231 155.682 302.841 155.76 302.447 155.76Z" fill="#FFBE78"/>
<path d="M5.7112 155.76C6.10427 155.766 6.49431 155.691 6.85771 155.541C7.22112 155.391 7.55035 155.169 7.82541 154.888C8.10048 154.607 8.31568 154.274 8.458 153.907C8.60031 153.541 8.66676 153.149 8.65334 152.756C8.66505 152.364 8.59734 151.974 8.45426 151.609C8.31118 151.244 8.0957 150.912 7.82081 150.633C7.54592 150.353 7.21729 150.132 6.85473 149.983C6.49218 149.834 6.10319 149.76 5.7112 149.765C4.91778 149.765 4.15688 150.08 3.59585 150.641C3.03481 151.202 2.71963 151.963 2.71963 152.756C2.718 153.15 2.79418 153.541 2.9438 153.905C3.09341 154.269 3.31347 154.601 3.59143 154.88C3.86939 155.159 4.19974 155.38 4.56351 155.531C4.92727 155.682 5.31729 155.76 5.7112 155.76Z" fill="#FFBE78"/>
<path d="M284.065 81.1808C283.727 81.3791 283.353 81.5074 282.965 81.5581C282.577 81.6088 282.182 81.5808 281.805 81.4759C281.428 81.3709 281.075 81.1911 280.769 80.9471C280.463 80.7032 280.209 80.4 280.022 80.0558C279.816 79.7232 279.679 79.352 279.62 78.9649C279.561 78.5777 279.581 78.1825 279.679 77.8034C279.777 77.4243 279.952 77.069 280.191 76.7592C280.431 76.4494 280.731 76.1915 281.073 76.0011C281.759 75.6061 282.573 75.4988 283.337 75.7026C284.102 75.9065 284.755 76.405 285.153 77.089C285.548 77.7765 285.656 78.5925 285.452 79.3591C285.248 80.1257 284.75 80.7805 284.065 81.1808Z" fill="#FFBE78"/>
<path d="M27.085 229.524C27.4273 229.334 27.7273 229.076 27.9669 228.766C28.2065 228.456 28.3807 228.101 28.479 227.722C28.5772 227.343 28.5975 226.947 28.5385 226.56C28.4795 226.173 28.3425 225.802 28.1358 225.469C27.9504 225.125 27.6975 224.823 27.3924 224.579C27.0873 224.335 26.7361 224.155 26.3599 224.05C25.9837 223.945 25.5902 223.917 25.2029 223.968C24.8156 224.018 24.4424 224.146 24.1058 224.344C23.7644 224.54 23.4651 224.802 23.2249 225.114C22.9848 225.425 22.8086 225.782 22.7064 226.162C22.6042 226.542 22.578 226.939 22.6293 227.329C22.6807 227.719 22.8085 228.095 23.0056 228.436C23.4034 229.12 24.0561 229.619 24.8206 229.822C25.5852 230.026 26.3994 229.919 27.085 229.524Z" fill="#FFBE78"/>
<path d="M230.822 25.7746C230.63 26.119 230.371 26.4208 230.059 26.6617C229.747 26.9026 229.389 27.0775 229.008 27.1758C228.626 27.2741 228.229 27.2937 227.839 27.2335C227.45 27.1732 227.077 27.0344 226.742 26.8254C226.396 26.6414 226.09 26.3887 225.844 26.0827C225.598 25.7768 225.417 25.424 225.312 25.0458C225.207 24.6677 225.179 24.272 225.232 23.883C225.285 23.494 225.416 23.1197 225.618 22.783C225.815 22.4413 226.077 22.1417 226.39 21.9014C226.703 21.6611 227.061 21.4849 227.442 21.3827C227.823 21.2805 228.22 21.2544 228.612 21.3059C229.003 21.3574 229.38 21.4855 229.722 21.6828C230.063 21.8788 230.362 22.1403 230.603 22.4522C230.843 22.764 231.019 23.1203 231.121 23.5004C231.223 23.8805 231.249 24.277 231.198 24.6673C231.147 25.0576 231.019 25.4339 230.822 25.7746Z" fill="#FFBE78"/>
<path d="M82.4788 282.767C82.6808 282.429 82.8122 282.054 82.8649 281.664C82.9176 281.274 82.8905 280.877 82.7853 280.498C82.6801 280.119 82.499 279.765 82.253 279.458C82.0069 279.151 81.701 278.897 81.3538 278.712C81.0195 278.506 80.6467 278.369 80.2581 278.311C79.8694 278.253 79.473 278.274 79.0928 278.373C78.7126 278.473 78.3565 278.648 78.0461 278.889C77.7356 279.13 77.4773 279.431 77.2868 279.775C77.0892 280.115 76.9607 280.491 76.9084 280.881C76.8562 281.27 76.8813 281.667 76.9823 282.047C77.0834 282.427 77.2584 282.783 77.4973 283.095C77.7362 283.408 78.0343 283.67 78.3746 283.867C78.7163 284.064 79.0936 284.192 79.4848 284.244C79.876 284.295 80.2735 284.269 80.6546 284.167C81.0358 284.065 81.393 283.889 81.706 283.648C82.019 283.408 82.2816 283.109 82.4788 282.767Z" fill="#FFBE78"/>
<path d="M187.456 300.716C186.517 297.206 186.603 291.259 191.412 289.974C196.221 288.688 199.262 293.781 200.201 297.304C200.655 298.995 200.419 300.795 199.545 302.311C198.671 303.827 197.231 304.934 195.541 305.389C193.849 305.839 192.048 305.599 190.533 304.723C189.018 303.847 187.911 302.406 187.456 300.716Z" fill="#E0CCB3"/>
<path d="M110.466 13.3756C111.406 16.8864 114.459 22.029 119.256 20.7062C124.052 19.3835 124.2 13.4745 123.211 9.95136C122.754 8.26346 121.646 6.82552 120.131 5.95212C118.616 5.07873 116.817 4.84098 115.127 5.2909C113.437 5.74562 111.997 6.85263 111.123 8.36862C110.249 9.8846 110.013 11.6855 110.466 13.3756Z" fill="#E0CCB3"/>
<path d="M255.842 265.176C253.271 262.604 250.379 257.412 253.889 253.902C257.4 250.391 262.604 253.271 265.176 255.855C266.409 257.092 267.102 258.768 267.102 260.515C267.102 262.262 266.409 263.938 265.176 265.176C264.564 265.79 263.836 266.277 263.036 266.61C262.235 266.942 261.376 267.113 260.509 267.113C259.642 267.113 258.783 266.942 257.983 266.61C257.182 266.277 256.455 265.79 255.842 265.176Z" fill="#E0CCB3"/>
<path d="M45.4919 54.8251C48.0632 57.3964 53.2675 60.2891 56.7783 56.7783C60.2891 53.2676 57.3964 48.125 54.8252 45.4919C53.5857 44.2576 51.9077 43.5647 50.1585 43.5647C48.4093 43.5647 46.7314 44.2576 45.4919 45.4919C44.2576 46.7314 43.5647 48.4093 43.5647 50.1585C43.5647 51.9077 44.2576 53.5857 45.4919 54.8251Z" fill="#E0CCB3"/>
<path d="M297.304 200.214C293.781 199.262 288.651 196.209 289.974 191.412C291.296 186.616 297.193 186.467 300.716 187.469C301.553 187.691 302.338 188.076 303.026 188.603C303.714 189.129 304.29 189.787 304.724 190.537C305.157 191.287 305.437 192.115 305.549 192.974C305.661 193.832 305.603 194.705 305.377 195.541C304.924 197.23 303.821 198.671 302.307 199.547C300.794 200.423 298.994 200.663 297.304 200.214Z" fill="#E0CCB3"/>
<path d="M9.95135 123.211C13.4745 124.151 19.4206 124.064 20.7062 119.268C21.9919 114.471 16.8864 111.418 13.3633 110.466C11.6732 110.017 9.87398 110.257 8.36054 111.133C6.8471 112.009 5.74311 113.45 5.29092 115.139C5.06491 115.975 5.00627 116.848 5.11836 117.706C5.23045 118.565 5.51107 119.393 5.9441 120.143C6.37713 120.893 6.95404 121.551 7.64172 122.077C8.3294 122.604 9.1143 122.989 9.95135 123.211Z" fill="#E0CCB3"/>
<path d="M300.716 123.211C297.193 124.151 291.259 124.064 289.974 119.268C288.688 114.471 293.781 111.418 297.304 110.466C298.994 110.017 300.794 110.257 302.307 111.133C303.821 112.009 304.925 113.45 305.377 115.139C305.603 115.975 305.661 116.848 305.549 117.706C305.437 118.565 305.157 119.393 304.724 120.143C304.29 120.893 303.714 121.551 303.026 122.077C302.338 122.604 301.553 122.989 300.716 123.211Z" fill="#E0CCB3"/>
<path d="M13.3633 200.214C16.8864 199.262 22.0166 196.209 20.7062 191.412C19.3959 186.616 13.4745 186.467 9.95135 187.469C9.1143 187.691 8.3294 188.076 7.64172 188.603C6.95404 189.129 6.37713 189.787 5.9441 190.537C5.51107 191.287 5.23045 192.115 5.11836 192.974C5.00627 193.832 5.06491 194.705 5.29092 195.541C5.74311 197.23 6.8471 198.671 8.36054 199.547C9.87398 200.423 11.6732 200.663 13.3633 200.214Z" fill="#E0CCB3"/>
<path d="M265.176 54.8251C262.604 57.3964 257.412 60.2891 253.889 56.7783C250.366 53.2676 253.271 48.125 255.842 45.4919C257.082 44.2576 258.76 43.5647 260.509 43.5647C262.258 43.5647 263.936 44.2576 265.176 45.4919C266.41 46.7314 267.103 48.4093 267.103 50.1585C267.103 51.9077 266.41 53.5857 265.176 54.8251Z" fill="#E0CCB3"/>
<path d="M54.8252 265.176C57.3964 262.604 60.2891 257.412 56.7783 253.902C53.2675 250.391 48.125 253.271 45.4919 255.855C44.2584 257.092 43.5658 258.768 43.5658 260.515C43.5658 262.262 44.2584 263.938 45.4919 265.176C46.104 265.79 46.8313 266.277 47.6321 266.61C48.4329 266.942 49.2915 267.113 50.1585 267.113C51.0256 267.113 51.8842 266.942 52.685 266.61C53.4857 266.277 54.213 265.79 54.8252 265.176Z" fill="#E0CCB3"/>
<path d="M200.201 13.3756C199.262 16.8864 196.209 22.029 191.412 20.7062C186.616 19.3835 186.467 13.4745 187.456 9.95136C187.914 8.26346 189.021 6.82552 190.537 5.95212C192.052 5.07873 193.851 4.84098 195.541 5.2909C197.231 5.74562 198.671 6.85263 199.545 8.36862C200.419 9.8846 200.655 11.6855 200.201 13.3756Z" fill="#E0CCB3"/>
<path d="M123.273 300.716C124.213 297.206 124.126 291.259 119.317 289.974C114.509 288.688 111.468 293.781 110.528 297.304C110.078 298.994 110.316 300.794 111.189 302.309C112.063 303.824 113.501 304.931 115.188 305.389C116.88 305.839 118.681 305.599 120.196 304.723C121.712 303.847 122.818 302.406 123.273 300.716Z" fill="#E0CCB3"/>
<path d="M189.15 299.863C188.47 297.329 187.914 290.901 191.412 289.974C194.911 289.047 197.593 294.919 198.31 297.391C198.635 298.606 198.465 299.9 197.837 300.989C197.209 302.078 196.174 302.874 194.96 303.201C193.747 303.526 192.454 303.358 191.365 302.732C190.277 302.107 189.48 301.075 189.15 299.863Z" fill="white"/>
<path d="M112.358 13.2767C113.025 15.7491 115.807 21.6458 119.256 20.6939C122.705 19.742 122.198 13.2767 121.518 10.8043C121.19 9.5903 120.395 8.55571 119.306 7.92763C118.216 7.29956 116.922 7.1293 115.708 7.45425C115.104 7.61478 114.539 7.89308 114.043 8.27308C113.548 8.65309 113.133 9.12732 112.821 9.66848C112.51 10.2096 112.309 10.8071 112.229 11.4263C112.149 12.0456 112.193 12.6744 112.358 13.2767Z" fill="white"/>
<path d="M256.881 263.593C255.027 261.739 251.367 256.423 253.889 253.902C256.411 251.38 261.739 255.027 263.593 256.881C264.483 257.771 264.983 258.978 264.983 260.237C264.983 261.496 264.483 262.703 263.593 263.593C262.703 264.483 261.496 264.983 260.237 264.983C258.978 264.983 257.771 264.483 256.881 263.593Z" fill="white"/>
<path d="M47.0742 53.7868C48.9285 55.641 54.2441 59.3126 56.7783 56.7784C59.3125 54.2442 55.641 48.9285 53.7868 47.0742C52.8966 46.1842 51.6893 45.6842 50.4305 45.6842C49.1717 45.6842 47.9644 46.1842 47.0742 47.0742C46.1842 47.9644 45.6842 49.1717 45.6842 50.4305C45.6842 51.6893 46.1842 52.8966 47.0742 53.7868Z" fill="white"/>
<path d="M297.403 198.322C294.869 197.643 289.047 194.861 289.986 191.412C290.926 187.963 297.403 188.47 299.876 189.15C301.09 189.477 302.124 190.273 302.752 191.362C303.38 192.451 303.551 193.745 303.226 194.96C303.067 195.564 302.789 196.131 302.41 196.628C302.03 197.125 301.556 197.542 301.015 197.854C300.474 198.167 299.876 198.369 299.256 198.449C298.636 198.53 298.006 198.487 297.403 198.322Z" fill="white"/>
<path d="M10.7796 121.53C13.3138 122.21 19.7544 122.766 20.6692 119.268C21.5839 115.769 15.7244 113.087 13.252 112.358C12.6505 112.195 12.0229 112.153 11.405 112.233C10.7872 112.314 10.1913 112.515 9.6515 112.826C9.11174 113.138 8.63872 113.552 8.25954 114.047C7.88037 114.541 7.60249 115.106 7.44188 115.708C7.11276 116.922 7.27949 118.218 7.90537 119.31C8.53126 120.402 9.5651 121.2 10.7796 121.53Z" fill="white"/>
<path d="M299.863 121.53C297.391 122.21 290.889 122.766 289.974 119.268C289.059 115.769 294.918 113.087 297.391 112.358C297.992 112.195 298.62 112.153 299.238 112.233C299.856 112.314 300.452 112.515 300.991 112.826C301.531 113.138 302.004 113.552 302.383 114.047C302.763 114.541 303.04 115.106 303.201 115.708C303.53 116.922 303.363 118.218 302.738 119.31C302.112 120.402 301.078 121.2 299.863 121.53Z" fill="white"/>
<path d="M13.252 198.322C15.7862 197.643 21.6086 194.861 20.6691 191.412C19.7296 187.963 13.252 188.47 10.7796 189.15C9.56555 189.477 8.53097 190.273 7.9029 191.362C7.27482 192.451 7.10457 193.745 7.42952 194.96C7.58871 195.564 7.86601 196.131 8.24545 196.628C8.62488 197.125 9.09893 197.542 9.64024 197.854C10.1815 198.167 10.7794 198.369 11.3993 198.449C12.0192 198.53 12.6489 198.487 13.252 198.322Z" fill="white"/>
<path d="M263.593 53.7868C261.739 55.641 256.423 59.3126 253.889 56.7784C251.355 54.2442 255.027 48.9285 256.881 47.0742C257.771 46.1842 258.978 45.6842 260.237 45.6842C261.496 45.6842 262.703 46.1842 263.593 47.0742C264.483 47.9644 264.983 49.1717 264.983 50.4305C264.983 51.6893 264.483 52.8966 263.593 53.7868Z" fill="white"/>
<path d="M53.7868 263.593C55.641 261.739 59.3002 256.423 56.7783 253.902C54.2565 251.38 48.9285 255.027 47.0742 256.881C46.1842 257.771 45.6842 258.978 45.6842 260.237C45.6842 261.496 46.1842 262.703 47.0742 263.593C47.9644 264.483 49.1717 264.983 50.4305 264.983C51.6893 264.983 52.8966 264.483 53.7868 263.593Z" fill="white"/>
<path d="M198.31 13.2767C197.643 15.7491 194.861 21.6458 191.412 20.6939C187.963 19.742 188.47 13.2767 189.15 10.8043C189.477 9.5903 190.273 8.55571 191.362 7.92763C192.451 7.29956 193.745 7.1293 194.96 7.45425C195.563 7.61478 196.129 7.89308 196.624 8.27308C197.12 8.65309 197.535 9.12732 197.846 9.66848C198.158 10.2096 198.359 10.8071 198.439 11.4263C198.518 12.0456 198.475 12.6744 198.31 13.2767Z" fill="white"/>
<path d="M121.518 299.863C122.198 297.329 122.754 290.901 119.256 289.974C115.757 289.047 113.075 294.919 112.358 297.391C112.033 298.606 112.203 299.9 112.831 300.989C113.459 302.078 114.494 302.874 115.708 303.201C116.921 303.526 118.213 303.358 119.302 302.732C120.391 302.107 121.188 301.075 121.518 299.863Z" fill="white"/>
<path d="M190.176 296.439C190.069 296.058 190.04 295.66 190.091 295.267C190.142 294.875 190.271 294.497 190.472 294.156C190.673 293.815 190.941 293.519 191.26 293.284C191.579 293.05 191.942 292.883 192.327 292.792C192.707 292.673 193.109 292.632 193.505 292.674C193.902 292.715 194.286 292.838 194.634 293.034C194.981 293.229 195.285 293.494 195.526 293.812C195.767 294.13 195.941 294.494 196.035 294.881C196.243 295.657 196.135 296.483 195.734 297.178C195.333 297.874 194.672 298.381 193.897 298.59C193.511 298.695 193.109 298.722 192.713 298.67C192.317 298.618 191.935 298.489 191.589 298.289C191.243 298.089 190.94 297.823 190.698 297.505C190.455 297.188 190.278 296.825 190.176 296.439Z" fill="#F9F276"/>
<path d="M113.384 9.81536C113.48 10.2017 113.654 10.5643 113.896 10.8808C114.138 11.1972 114.442 11.4608 114.789 11.6554C115.136 11.8499 115.52 11.9713 115.916 12.012C116.312 12.0528 116.712 12.012 117.092 11.8922C117.478 11.8034 117.842 11.637 118.162 11.403C118.482 11.1689 118.75 10.8723 118.951 10.5311C119.153 10.1899 119.282 9.81123 119.333 9.41826C119.383 9.0253 119.352 8.62622 119.243 8.24539C119.035 7.47023 118.527 6.80958 117.832 6.40857C117.136 6.00756 116.31 5.89902 115.535 6.10678C115.149 6.20725 114.787 6.38321 114.469 6.62447C114.152 6.86574 113.886 7.16754 113.686 7.5124C113.486 7.85727 113.356 8.23837 113.304 8.63366C113.252 9.02896 113.279 9.43059 113.384 9.81536Z" fill="#F9F276"/>
<path d="M257.474 259.378C257.188 259.107 256.96 258.78 256.804 258.417C256.649 258.055 256.568 257.665 256.568 257.27C256.568 256.876 256.649 256.486 256.804 256.123C256.96 255.761 257.188 255.434 257.474 255.163C257.746 254.88 258.073 254.655 258.434 254.501C258.795 254.348 259.183 254.269 259.576 254.269C259.968 254.269 260.357 254.348 260.718 254.501C261.079 254.655 261.405 254.88 261.677 255.163C261.957 255.442 262.179 255.773 262.33 256.138C262.481 256.503 262.559 256.894 262.559 257.289C262.559 257.684 262.481 258.075 262.33 258.44C262.179 258.805 261.957 259.136 261.677 259.415C261.11 259.957 260.353 260.256 259.568 260.249C258.784 260.242 258.032 259.93 257.474 259.378Z" fill="#F9F276"/>
<path d="M47.6676 49.559C47.9389 49.8432 48.265 50.0694 48.6262 50.224C48.9874 50.3786 49.3762 50.4583 49.7691 50.4583C50.162 50.4583 50.5509 50.3786 50.9121 50.224C51.2733 50.0694 51.5994 49.8432 51.8706 49.559C52.1549 49.2877 52.3811 48.9616 52.5357 48.6004C52.6903 48.2392 52.77 47.8503 52.77 47.4574C52.77 47.0645 52.6903 46.6757 52.5357 46.3145C52.3811 45.9533 52.1549 45.6272 51.8706 45.3559C51.5927 45.0767 51.2623 44.8552 50.8985 44.704C50.5347 44.5528 50.1446 44.475 49.7506 44.475C49.3566 44.475 48.9665 44.5528 48.6027 44.704C48.2389 44.8552 47.9085 45.0767 47.6305 45.3559C47.0828 45.9207 46.7796 46.6784 46.7866 47.4651C46.7935 48.2517 47.11 49.004 47.6676 49.559Z" fill="#F9F276"/>
<path d="M297.218 193.625C296.839 193.528 296.483 193.356 296.172 193.118C295.861 192.88 295.602 192.582 295.409 192.241C295.216 191.901 295.094 191.525 295.05 191.136C295.006 190.747 295.041 190.353 295.153 189.978C295.242 189.597 295.408 189.237 295.64 188.921C295.872 188.606 296.165 188.34 296.503 188.141C296.84 187.943 297.215 187.814 297.603 187.765C297.992 187.715 298.386 187.745 298.763 187.852C299.148 187.952 299.509 188.128 299.825 188.37C300.141 188.612 300.406 188.914 300.603 189.26C300.8 189.606 300.925 189.987 300.973 190.382C301.02 190.778 300.987 191.178 300.877 191.56C300.661 192.316 300.156 192.957 299.471 193.343C298.786 193.729 297.977 193.831 297.218 193.625Z" fill="#F9F276"/>
<path d="M10.6065 116.833C10.9833 116.94 11.378 116.97 11.7665 116.92C12.1551 116.87 12.5295 116.742 12.867 116.543C13.2046 116.344 13.4982 116.079 13.7301 115.763C13.962 115.447 14.1274 115.088 14.2162 114.706C14.3302 114.331 14.3667 113.937 14.3236 113.548C14.2806 113.158 14.1588 112.781 13.9658 112.44C13.7727 112.099 13.5124 111.801 13.2005 111.564C12.8887 111.326 12.5319 111.155 12.1518 111.06C11.7695 110.953 11.3698 110.923 10.9759 110.972C10.5819 111.02 10.2015 111.147 9.8567 111.343C9.51186 111.54 9.20941 111.803 8.96679 112.117C8.72418 112.431 8.5462 112.79 8.4432 113.173C8.34303 113.556 8.31964 113.954 8.37435 114.346C8.42906 114.737 8.56079 115.114 8.76194 115.454C8.9631 115.794 9.22969 116.091 9.5463 116.328C9.8629 116.565 10.2233 116.736 10.6065 116.833Z" fill="#F9F276"/>
<path d="M298.813 116.833C298.436 116.94 298.041 116.97 297.653 116.92C297.264 116.87 296.89 116.742 296.552 116.543C296.215 116.344 295.921 116.079 295.689 115.763C295.457 115.447 295.292 115.088 295.203 114.706C295.081 114.327 295.038 113.928 295.077 113.532C295.117 113.135 295.237 112.752 295.43 112.404C295.624 112.056 295.887 111.752 296.203 111.51C296.519 111.268 296.881 111.094 297.267 110.998C297.65 110.889 298.05 110.858 298.444 110.906C298.839 110.954 299.22 111.08 299.565 111.277C299.91 111.474 300.213 111.737 300.455 112.052C300.697 112.367 300.874 112.727 300.976 113.112C301.085 113.498 301.116 113.903 301.066 114.301C301.016 114.7 300.886 115.084 300.684 115.431C300.482 115.779 300.212 116.082 299.891 116.322C299.569 116.563 299.203 116.737 298.813 116.833Z" fill="#F9F276"/>
<path d="M12.1518 193.637C12.538 193.541 12.9003 193.367 13.2164 193.125C13.5324 192.883 13.7953 192.579 13.9889 192.231C14.1825 191.883 14.3026 191.5 14.3417 191.103C14.3807 190.707 14.3381 190.308 14.2162 189.929C14.126 189.547 13.9592 189.187 13.7261 188.871C13.4929 188.555 13.1982 188.29 12.8597 188.091C12.5212 187.893 12.1459 187.765 11.7565 187.715C11.3671 187.665 10.9717 187.695 10.5942 187.802C10.2108 187.905 9.85171 188.083 9.53756 188.326C9.2234 188.569 8.96044 188.871 8.76388 189.216C8.56732 189.561 8.44108 189.941 8.3924 190.335C8.34372 190.729 8.37359 191.129 8.4803 191.511C8.68612 192.279 9.18822 192.935 9.87648 193.333C10.5648 193.732 11.383 193.841 12.1518 193.637Z" fill="#F9F276"/>
<path d="M261.727 49.559C261.456 49.8413 261.13 50.0659 260.77 50.2193C260.41 50.3728 260.023 50.4518 259.631 50.4518C259.24 50.4518 258.853 50.3728 258.493 50.2193C258.133 50.0659 257.807 49.8413 257.536 49.559C257.252 49.2888 257.026 48.9637 256.872 48.6036C256.717 48.2434 256.638 47.8555 256.638 47.4636C256.638 47.0717 256.717 46.6839 256.872 46.3237C257.026 45.9635 257.252 45.6385 257.536 45.3683C257.813 45.0895 258.142 44.8682 258.505 44.7172C258.868 44.5661 259.257 44.4884 259.65 44.4884C260.043 44.4884 260.432 44.5661 260.795 44.7172C261.158 44.8682 261.487 45.0895 261.764 45.3683C262.305 45.934 262.604 46.6885 262.597 47.4712C262.59 48.2539 262.278 49.003 261.727 49.559Z" fill="#F9F276"/>
<path d="M51.8954 259.353C52.1773 259.083 52.4017 258.759 52.555 258.4C52.7083 258.041 52.7873 257.654 52.7873 257.264C52.7873 256.874 52.7083 256.487 52.555 256.128C52.4017 255.769 52.1773 255.445 51.8954 255.175C51.6252 254.891 51.3001 254.665 50.9399 254.511C50.5798 254.356 50.1919 254.277 49.8 254.277C49.4081 254.277 49.0203 254.356 48.6601 254.511C48.2999 254.665 47.9749 254.891 47.7047 255.175C47.4277 255.452 47.208 255.78 47.0581 256.142C46.9082 256.503 46.831 256.891 46.831 257.283C46.831 257.674 46.9082 258.062 47.0581 258.423C47.208 258.785 47.4277 259.114 47.7047 259.39C48.2673 259.937 49.023 260.24 49.8077 260.233C50.5923 260.226 51.3425 259.91 51.8954 259.353Z" fill="#F9F276"/>
<path d="M195.986 9.81537C195.89 10.2017 195.715 10.5643 195.474 10.8808C195.232 11.1972 194.928 11.4608 194.581 11.6554C194.233 11.85 193.85 11.9713 193.454 12.0121C193.057 12.0528 192.657 12.012 192.277 11.8922C191.895 11.8005 191.535 11.6324 191.219 11.398C190.903 11.1637 190.638 10.8678 190.439 10.5283C190.241 10.1888 190.113 9.81269 190.063 9.4225C190.014 9.0323 190.044 8.63613 190.151 8.25778C190.253 7.87356 190.43 7.51342 190.672 7.19839C190.914 6.88335 191.217 6.61973 191.562 6.42294C191.907 6.22614 192.288 6.10012 192.683 6.05221C193.077 6.00429 193.477 6.03545 193.86 6.14388C194.628 6.3497 195.283 6.8518 195.682 7.54007C196.081 8.22833 196.19 9.04658 195.986 9.81537Z" fill="#F9F276"/>
<path d="M119.194 296.427C119.303 296.048 119.333 295.652 119.284 295.261C119.234 294.87 119.105 294.494 118.905 294.155C118.705 293.816 118.438 293.521 118.119 293.289C117.801 293.057 117.439 292.892 117.055 292.805C116.676 292.683 116.276 292.64 115.88 292.679C115.484 292.718 115.1 292.838 114.753 293.032C114.405 293.225 114.101 293.488 113.859 293.804C113.617 294.12 113.443 294.483 113.347 294.869C113.237 295.252 113.205 295.654 113.252 296.049C113.3 296.445 113.427 296.827 113.626 297.173C113.824 297.519 114.089 297.821 114.407 298.063C114.724 298.304 115.087 298.479 115.473 298.578C115.858 298.686 116.262 298.715 116.659 298.665C117.056 298.615 117.439 298.486 117.786 298.286C118.133 298.085 118.436 297.818 118.678 297.498C118.919 297.179 119.095 296.815 119.194 296.427Z" fill="#F9F276"/>
<path d="M155.34 296.451C233.274 296.451 296.451 233.274 296.451 155.34C296.451 77.4063 233.274 14.2286 155.34 14.2286C77.4063 14.2286 14.2286 77.4063 14.2286 155.34C14.2286 233.274 77.4063 296.451 155.34 296.451Z" fill="#248CB5"/>
<path d="M155.34 286.735C227.907 286.735 286.735 227.907 286.735 155.34C286.735 82.7726 227.907 23.9451 155.34 23.9451C82.7726 23.9451 23.945 82.7726 23.945 155.34C23.945 227.907 82.7726 286.735 155.34 286.735Z" fill="#248CB5"/>
<path d="M152.225 160.038L63.3425 249.155C79.0136 264.548 98.2984 275.761 119.429 281.765L152.225 160.038Z" fill="url(#paint0_radial_6_933)"/>
<path d="M187.728 282.767L155.253 160.915L122.779 282.73C133.42 285.44 144.359 286.806 155.34 286.797C166.262 286.805 177.142 285.451 187.728 282.767Z" fill="#EECD5A"/>
<path d="M282.829 187.197C285.428 176.777 286.74 166.079 286.735 155.34C286.739 144.257 285.348 133.217 282.594 122.482L161.298 154.808L282.829 187.197Z" fill="url(#paint1_radial_6_933)"/>
<path d="M28.7044 190.51C34.5733 211.635 45.6451 230.953 60.9072 246.695L150.012 157.825L28.7044 190.51Z" fill="#EECD5A"/>
<path d="M28.0863 122.519C25.3266 133.241 23.9351 144.269 23.9451 155.34C23.9427 166.066 25.2504 176.751 27.8391 187.16L149.233 154.808L28.0863 122.519Z" fill="url(#paint2_radial_6_933)"/>
<path d="M158.27 160.038L191.078 281.815C212.23 275.83 231.541 264.63 247.239 249.241L158.27 160.038Z" fill="url(#paint3_radial_6_933)"/>
<path d="M160.483 157.825L249.674 246.831C264.974 231.086 276.073 211.749 281.951 190.596L160.483 157.825Z" fill="#EECD5A"/>
<path d="M123.051 27.938L155.253 148.763L187.394 27.9009C176.885 25.2639 166.089 23.9352 155.253 23.9451C144.396 23.9429 133.579 25.284 123.051 27.938Z" fill="#F93443"/>
<path d="M150.012 151.73L61.4635 63.4414C46.1735 79.031 35.0156 98.1898 29.0011 119.181L150.012 151.73Z" fill="#EECD5A"/>
<path d="M152.225 149.567L119.701 28.828C98.7165 34.743 79.535 45.7888 63.8864 60.969L152.225 149.567Z" fill="#4BDBEA"/>
<path d="M158.27 149.567L246.695 60.9072C231.027 45.7134 211.818 34.6665 190.806 28.7662L158.27 149.567Z" fill="#4BDBEA"/>
<path d="M160.483 151.73L281.629 119.082C275.601 98.0723 264.421 78.9 249.105 63.3055L160.483 151.73Z" fill="#EECD5A"/>
<path d="M155.34 22.8819C190.456 22.9245 224.121 36.8939 248.951 61.7257C273.78 86.5576 287.746 120.224 287.786 155.34C287.746 190.456 273.78 224.122 248.951 248.954C224.121 273.786 190.456 287.756 155.34 287.798C120.222 287.759 86.5536 273.791 61.7213 248.959C36.8891 224.126 22.9212 190.458 22.8819 155.34C22.9212 120.222 36.8891 86.5536 61.7213 61.7214C86.5536 36.8892 120.222 22.9212 155.34 22.8819ZM155.34 285.684C189.895 285.642 223.023 271.895 247.456 247.46C271.889 223.024 285.633 189.895 285.672 155.34C285.633 120.785 271.889 87.6559 247.456 63.2205C223.023 38.7851 189.895 25.0384 155.34 24.9958C120.783 25.0351 87.6519 38.7803 63.2161 63.2161C38.7803 87.6519 25.0351 120.783 24.9958 155.34C25.0351 189.897 38.7803 223.028 63.2161 247.464C87.6519 271.9 120.783 285.645 155.34 285.684Z" fill="#F93443"/>
<path d="M155.34 184.749C171.582 184.749 184.749 171.582 184.749 155.34C184.749 139.098 171.582 125.931 155.34 125.931C139.098 125.931 125.931 139.098 125.931 155.34C125.931 171.582 139.098 184.749 155.34 184.749Z" fill="#248CB5"/>
<path d="M155.34 178.37C168.059 178.37 178.37 168.059 178.37 155.34C178.37 142.621 168.059 132.31 155.34 132.31C142.621 132.31 132.31 142.621 132.31 155.34C132.31 168.059 142.621 178.37 155.34 178.37Z" fill="#B5DD3A"/>
</g>
<defs>
<radialGradient id="paint0_radial_6_933" cx="0" cy="0" r="1" gradientUnits="userSpaceOnUse" gradientTransform="translate(107.784 220.908) scale(53.2923)">
<stop offset="0.36" stop-color="white"/>
<stop offset="1" stop-color="white"/>
</radialGradient>
<radialGradient id="paint1_radial_6_933" cx="0" cy="0" r="1" gradientUnits="userSpaceOnUse" gradientTransform="translate(-24362.8 22287.9) scale(5063.87 2612.53)">
<stop offset="0.36" stop-color="white"/>
<stop offset="1" stop-color="white"/>
</radialGradient>
<radialGradient id="paint2_radial_6_933" cx="0" cy="0" r="1" gradientUnits="userSpaceOnUse" gradientTransform="translate(-38400.7 22262.5) scale(5050.37 2605.66)">
<stop offset="0.36" stop-color="white"/>
<stop offset="1" stop-color="white"/>
</radialGradient>
<radialGradient id="paint3_radial_6_933" cx="0" cy="0" r="1" gradientUnits="userSpaceOnUse" gradientTransform="translate(-18766.3 48381.4) scale(3837.22 5252.26)">
<stop offset="0.36" stop-color="white"/>
<stop offset="1" stop-color="white"/>
</radialGradient>
<clipPath id="clip0_6_933">
<rect width="310.68" height="310.68" fill="white"/>
</clipPath>
</defs>
</svg>
