<svg width="76" height="159" viewBox="0 0 76 159" fill="none" xmlns="http://www.w3.org/2000/svg">
<g clip-path="url(#clip0_6_573)">
<path fill-rule="evenodd" clip-rule="evenodd" d="M60.2629 1.1228C66.9283 7.66966 72.0128 16.9348 66.4656 31.6548L39.1387 104.17C37.1546 103.425 34.9565 103.497 33.0252 104.369C31.094 105.242 29.587 106.844 28.8338 108.824L19.2974 105.231L57.0801 4.97032C57.9528 3.53674 59.0302 2.23825 60.2781 1.11591L60.2629 1.1228Z" fill="#30C97A"/>
<path fill-rule="evenodd" clip-rule="evenodd" d="M61.725 29.8684L33.7595 104.078C35.5052 103.491 37.4004 103.525 39.1234 104.177L66.4545 31.6506C72.0017 16.9306 66.9283 7.66965 60.2518 1.11863C59.0039 2.24096 57.9265 3.53945 57.0537 4.97303C59.2999 7.24953 61.1157 9.91363 62.4134 12.8366C64.4556 17.8563 64.1724 23.3404 61.7098 29.8753L61.725 29.8684Z" fill="url(#paint0_radial_6_573)"/>
<path fill-rule="evenodd" clip-rule="evenodd" d="M35.8214 98.6062L61.725 29.8684C64.1877 23.3335 64.4708 17.8494 62.4286 12.8297C61.131 9.90674 59.3152 7.24264 57.069 4.96614L19.2863 105.226L28.8006 108.812C29.2198 107.702 29.8806 106.7 30.7352 105.878C31.5899 105.056 32.6168 104.434 33.7415 104.058L35.7993 98.5979L35.8214 98.6062Z" fill="url(#paint1_radial_6_573)"/>
<path style="mix-blend-mode:screen" fill-rule="evenodd" clip-rule="evenodd" d="M51.4592 19.8523L47.3937 30.6404C52.3163 29.5241 57.3014 28.7036 62.3221 28.1834C63.5041 24.869 63.9711 21.342 63.6923 17.8343C59.6911 18.8918 55.5989 19.5688 51.4703 19.8565L51.4592 19.8523Z" fill="url(#paint2_radial_6_573)"/>
<path style="mix-blend-mode:screen" fill-rule="evenodd" clip-rule="evenodd" d="M63.1204 25.3599C64.3835 23.888 67.8707 22.8241 68.425 24.475C68.7984 22.3066 68.9076 20.1009 68.7501 17.9062C68.436 19.3437 64.9804 19.6858 63.7587 18.7321C63.8633 20.9605 63.6484 23.1924 63.1204 25.3599Z" fill="url(#paint3_radial_6_573)"/>
<path style="mix-blend-mode:screen" opacity="0.5" fill-rule="evenodd" clip-rule="evenodd" d="M52.7388 68.0465C51.4875 69.9909 47.6561 70.5582 46.9784 69L42.913 79.7881C44.9054 77.8573 48.4513 77.4101 48.6692 78.8457L52.7388 68.0465Z" fill="url(#paint4_radial_6_573)"/>
<path style="mix-blend-mode:multiply" opacity="0.35" fill-rule="evenodd" clip-rule="evenodd" d="M65.6214 24.228C66.2271 23.1914 65.9077 22.8307 67.5889 22.3637C67.9662 22.274 68.3561 22.2498 68.7416 22.2922C68.8264 21.3596 68.8626 20.4233 68.8501 19.487C67.5201 21.2373 65.5664 22.2593 64.6713 24.0976C63.6261 26.2335 59.5083 24.8083 58.9916 24.8033C57.8119 25.588 56.4192 25.9906 55.0027 25.9564C52.5413 25.7751 50.6749 29.385 48.1741 28.6703L47.8778 29.4567C48.5177 29.7246 49.2321 29.7562 49.8933 29.5459C51.1614 29.2016 51.3151 27.5519 53.4233 26.8917C54.9881 26.4315 53.7447 26.0388 56.0893 26.5303C57.7497 26.8904 58.224 24.8935 60.7161 25.8326C61.9846 26.2139 63.3509 26.0951 64.5346 25.5008C65.0368 25.213 65.4363 24.7753 65.6768 24.2489L65.6214 24.228ZM67.2562 29.3218C65.4417 29.1692 63.4093 26.6072 61.4192 27.1221C60.2757 27.4375 59.6629 26.0429 56.1202 27.9586C54.8155 28.6686 54.7357 27.4369 52.1114 29.4331C51.0013 30.3709 49.9795 31.4085 49.0586 32.5327C48.7783 32.8065 48.6353 32.1455 47.6924 33.5737C47.6256 33.7509 46.954 33.5863 46.3127 33.5091L45.9955 34.3509C46.4272 34.3948 46.855 34.4715 47.2752 34.5801C48.3828 34.9975 47.8423 33.3772 49.5954 32.988C49.5954 32.988 50.7856 31.1723 51.2166 31.0691C51.6476 30.9659 52.5354 29.4157 54.0498 29.2907C54.5721 29.2473 54.5362 28.3356 55.874 28.6121C56.8296 28.7951 58.1827 27.3191 59.2452 27.3527C60.3817 27.5942 61.5477 27.6671 62.7054 27.5689C62.9812 27.5084 65.0424 29.3224 65.9618 29.6688C66.8811 30.0153 66.7034 30.2519 66.8732 30.6068C67.036 30.1748 67.1946 29.7539 67.2978 29.3122L67.2562 29.3218ZM60.6777 46.9799C57.3759 48.1895 56.0292 44.8486 53.3859 46.5594C51.6898 47.7037 47.0796 46.7127 45.7836 49.7154C44.9979 51.5317 41.092 53.6394 38.6159 53.9333L38.1275 55.2292C39.5148 54.9045 42.4783 53.9215 43.03 53.6994C44.3511 53.1474 44.123 52.8464 45.9506 53.5351C47.7781 54.2238 50.4593 54.7283 52.1606 53.8388C53.4612 53.14 53.8985 52.5837 55.278 51.8767C55.7412 51.6211 56.0705 52.6939 57.3225 50.345C58.1091 49.3169 59.1348 48.4964 60.3104 47.9546L60.6819 46.9688L60.6777 46.9799ZM58.1302 47.7654C58.4736 47.8948 57.0697 49.0354 56.8195 49.5989C56.4021 50.7065 55.1187 51.0577 54.8771 51.3967C54.0608 52.4552 53.0734 52.2222 52.6316 52.9917C52.1898 53.7613 50.9072 53.6068 50.266 53.5296C49.6195 53.4864 48.977 53.3965 48.3435 53.2605C47.7022 53.1833 45.7016 52.4167 45.88 51.7756C46.015 51.167 46.2744 50.593 46.6419 50.0895C46.9696 49.6217 47.348 49.1916 47.7703 48.8071C48.8192 47.8363 48.0123 48.1647 49.4076 48.0201C50.8029 47.8755 52.2281 47.2489 53.6981 47.1072C54.7047 46.91 55.7473 47.0207 56.69 47.4251C57.6757 47.7965 57.618 47.5471 58.1926 47.7004L58.1302 47.7654ZM56.1488 59.0985C51.5878 59.353 51.115 63.058 46.5833 64.8793C43.0332 66.3116 42.7626 72.5341 34.9865 73.4996C33.6619 73.6582 34.3932 74.6042 30.9225 74.8521L30.7645 74.8685L30.2428 76.253C31.6926 75.7621 33.993 75.3641 35.613 74.1531C36.3842 73.5836 39.1696 74.7851 41.0034 73.2752C42.8373 71.7654 41.7443 70.0001 44.4088 68.9044C44.7817 68.754 44.7223 66.8976 47.6874 65.7761C49.915 64.9332 51.7082 60.309 55.4434 60.9704L56.1488 59.0985ZM33.5495 83.1532C33.1989 79.8209 30.38 82.1991 27.9596 82.3116L27.417 83.7514C30.1724 83.7905 29.1971 82.955 31.3284 82.5691C33.1354 82.2382 32.4345 83.8967 32.7775 84.2284C34.375 85.8296 31.9411 88.3276 35.0867 89.513C36.5819 90.0765 35.6685 90.3521 36.4576 91.5476C36.6097 91.7819 36.5883 93.0135 37.1897 93.7334C37.8074 94.6289 38.664 95.3329 39.6621 95.7656C40.0829 95.9242 41.1794 94.693 42.0818 96.0576L42.1771 96.2074L42.4526 95.4764C41.8385 94.9565 41.1136 94.5838 40.3334 94.3869C35.9768 93.327 36.9962 90.0176 36.4881 89.0166C35.4966 87.0492 34.2194 89.5657 33.533 83.0964L33.5495 83.1532Z" fill="url(#paint5_radial_6_573)"/>
<path fill-rule="evenodd" clip-rule="evenodd" d="M17.8529 106.647L28.1536 110.529C27.5859 111.357 27.1524 112.269 26.8692 113.232C25.7272 113.51 24.9236 115.307 24.1806 117.279L15.7325 139.696C13.3116 146.121 13.3012 149.975 14.127 153.322C11.6862 154.931 5.29915 154.46 2.84382 153.054C2.29621 149.875 3.70546 143.652 6.52835 136.228L17.7698 106.666L17.8529 106.647Z" fill="url(#paint6_linear_6_573)"/>
<path fill-rule="evenodd" clip-rule="evenodd" d="M13.7221 150.133C8.49418 150.781 5.46423 147.477 8.11887 140.432L16.0494 119.388C17.1931 116.353 18.6393 114.697 20.6479 113.898C22.8983 113.176 25.2836 112.976 27.6227 113.314C27.6882 113.317 27.7535 113.305 27.8136 113.278C27.8736 113.252 27.9268 113.212 27.969 113.162C28.0112 113.112 28.0412 113.053 28.0567 112.989C28.0723 112.925 28.0729 112.859 28.0586 112.795C27.8958 112.039 27.9509 111.253 28.2174 110.527L17.8613 106.625L6.61985 136.186C3.81913 143.618 2.38772 149.834 2.93533 153.012C5.75201 154.225 8.857 154.605 11.8829 154.108C12.8675 154.022 13.8099 153.668 14.6081 153.085C14.3887 152.16 14.2223 151.223 14.1098 150.279C14.1516 150.168 14.1199 150.017 13.7472 150.067L13.7221 150.133Z" fill="url(#paint7_radial_6_573)"/>
<path style="mix-blend-mode:screen" fill-rule="evenodd" clip-rule="evenodd" d="M10.0253 149.739C7.26735 148.7 6.20719 145.505 8.14391 140.366L16.0494 119.388C17.1931 116.353 18.6393 114.697 20.6479 113.898C21.2933 113.652 21.9648 113.481 22.6492 113.387C18.4346 113.595 16.5345 114.979 14.6645 119.941L7.56879 138.77C4.88911 145.881 4.53487 149.909 5.80417 153.992C7.64435 154.36 9.53053 154.439 11.3951 154.227C10.867 152.761 10.4208 151.267 10.0585 149.752L10.0253 149.739Z" fill="url(#paint8_radial_6_573)"/>
<path style="mix-blend-mode:screen" opacity="0.5" fill-rule="evenodd" clip-rule="evenodd" d="M25.4596 114.522C21.5298 115.989 20.0606 118.142 17.9569 123.724L12.1426 139.153C10.665 143.074 10.236 145.354 13.7311 148.834C13.9173 145.688 14.6216 142.594 15.8157 139.677L24.2638 117.259C24.594 116.317 25.0091 115.406 25.5039 114.539L25.4596 114.522Z" fill="url(#paint9_linear_6_573)"/>
<path style="mix-blend-mode:multiply" fill-rule="evenodd" clip-rule="evenodd" d="M14.4545 117.914C16.5122 112.453 17.4806 109.884 20.5112 107.649L17.8529 106.647L6.61151 136.209C3.81078 143.641 2.37936 149.856 2.92697 153.035C3.37572 153.278 3.84729 153.477 4.33491 153.628C3.17544 148.448 5.28009 142.259 7.3462 136.776L14.4419 117.947L14.4545 117.914Z" fill="url(#paint10_radial_6_573)"/>
<path d="M24.0871 105.745C25.2455 106.174 26.3724 106.683 27.4593 107.269C28.8337 108.053 29.5291 108.96 29.1993 109.835C28.8696 110.71 27.7485 110.932 26.2029 110.603C23.7973 110.034 21.4746 109.158 19.2915 107.999C17.913 107.226 17.2218 106.308 17.5473 105.444C17.8729 104.58 18.9982 104.346 20.5479 104.665C21.7515 104.941 22.9341 105.303 24.0871 105.745Z" fill="url(#paint11_linear_6_573)"/>
<path style="mix-blend-mode:multiply" fill-rule="evenodd" clip-rule="evenodd" d="M27.4677 107.247C25.2846 106.087 22.9619 105.212 20.5562 104.642C20.0103 104.517 19.4476 104.48 18.8898 104.533C18.7855 104.545 18.6867 104.586 18.6041 104.651C18.5216 104.716 18.4587 104.802 18.4224 104.901C18.3833 104.999 18.3727 105.105 18.3919 105.209C18.4111 105.312 18.4593 105.408 18.5309 105.486C18.9146 105.894 19.3618 106.237 19.855 106.503C22.0381 107.663 24.3608 108.538 26.7664 109.108C27.3124 109.234 27.8751 109.271 28.4329 109.217C28.5376 109.206 28.6371 109.166 28.7199 109.101C28.8026 109.036 28.8652 108.949 28.9003 108.849C28.938 108.751 28.9479 108.645 28.9287 108.542C28.9095 108.438 28.8622 108.343 28.7918 108.265C28.408 107.856 27.9609 107.513 27.4677 107.247Z" fill="url(#paint12_linear_6_573)"/>
<path style="mix-blend-mode:screen" opacity="0.25" fill-rule="evenodd" clip-rule="evenodd" d="M18.3432 105.883C18.269 105.89 18.199 105.92 18.1437 105.97C18.0884 106.02 18.0508 106.086 18.0366 106.159C17.7734 107.831 24.8693 110.315 26.3919 109.397C23.8101 108.818 21.3506 107.789 19.1265 106.355C18.9059 106.139 18.6376 105.977 18.3432 105.883Z" fill="url(#paint13_radial_6_573)"/>
<path fill-rule="evenodd" clip-rule="evenodd" d="M28.8006 108.812C29.188 107.791 29.7803 106.86 30.5412 106.076C31.302 105.292 32.2151 104.673 33.2244 104.256L33.0004 104.045C31.8658 103.041 30.955 101.81 30.327 100.432C29.9492 99.3537 29.837 98.2006 29.9999 97.0702C30.2512 95.3299 30.7146 93.627 31.3796 91.9993L53.8605 32.3437C55.6595 27.57 55.6165 23.3543 51.9237 19.5594L51.2972 18.9059L50.8551 19.0049L18.4777 104.922C18.2899 105.42 20.4435 106.687 23.3011 107.764C26.1587 108.841 28.6128 109.31 28.8006 108.812Z" fill="url(#paint14_radial_6_573)"/>
<path style="mix-blend-mode:multiply" opacity="0.5" fill-rule="evenodd" clip-rule="evenodd" d="M32.1703 104.2L32.5673 104.59C32.7891 104.471 33.022 104.356 33.2466 104.264L33.0225 104.053C31.888 103.049 30.9772 101.818 30.3491 100.44C29.9714 99.362 29.8592 98.209 30.0221 97.0785C30.2734 95.3383 30.7367 93.6353 31.4018 92.0076L53.8827 32.3521C55.6817 27.5783 55.6386 23.3626 51.9459 19.5677L51.3194 18.9142L50.8773 19.0132L50.7771 19.2791L51.1339 19.6412C54.7671 23.4263 54.8587 27.6476 53.0555 32.4325L30.5495 92.1544C29.8883 93.7875 29.4237 95.4935 29.1657 97.2364C28.9991 98.3657 29.1168 99.5186 29.508 100.591C30.1293 101.969 31.0368 103.199 32.1703 104.2Z" fill="url(#paint15_linear_6_573)"/>
<path style="mix-blend-mode:screen" opacity="0.25" fill-rule="evenodd" clip-rule="evenodd" d="M50.3558 34.8303C53.25 28.6605 53.6365 26.1245 50.1605 21.0832L18.5553 104.951C18.3674 105.449 20.521 106.716 23.3786 107.793C26.2362 108.87 28.6903 109.339 28.8781 108.841C29.1867 108.028 29.6259 107.271 30.1784 106.599C29.6923 106.795 29.1783 106.913 28.6554 106.948C26.4955 107.007 23.2384 104.54 23.4749 102.201C23.8218 99.3336 26.6821 96.174 28.1628 93.7216C30.5714 89.7468 30.6329 88.543 31.4632 84.024C32.6964 76.3545 34.6317 68.8146 37.2446 61.4992C40.8342 51.9738 46.0936 43.9252 50.3599 34.8192L50.3558 34.8303Z" fill="url(#paint16_radial_6_573)"/>
<path style="mix-blend-mode:screen" opacity="0.5" fill-rule="evenodd" clip-rule="evenodd" d="M38.6282 51.484L47.1891 50.0806L50.5951 41.0426L43.4957 41.5548L51.1168 39.6581L52.4233 36.1913L43.8623 37.5947L38.6282 51.484Z" fill="url(#paint17_radial_6_573)"/>
<path style="mix-blend-mode:screen" opacity="0.5" fill-rule="evenodd" clip-rule="evenodd" d="M44.5623 57.0849L35.9971 58.4993L33.38 65.444L41.941 64.0406L44.5623 57.0849ZM41.557 65.0596L32.996 66.463L32.516 67.7367L41.077 66.3334L41.557 65.0596Z" fill="url(#paint18_radial_6_573)"/>
<path style="mix-blend-mode:screen" opacity="0.5" fill-rule="evenodd" clip-rule="evenodd" d="M37.9897 74.4922L29.4287 75.8956L25.3591 86.6947L33.9243 85.2803L37.9897 74.4922Z" fill="url(#paint19_radial_6_573)"/>
<path fill-rule="evenodd" clip-rule="evenodd" d="M35.8214 98.6062L48.3287 64.1077C48.3287 64.1077 61.0832 30.9673 62.1696 27.3796C64.704 19.278 63.6741 14.526 59.1416 7.45479C65.0833 15.1836 65.147 21.1905 62.0143 30.0406C54.6507 50.856 43.8107 78.0772 35.7563 98.6449L35.8214 98.6062Z" fill="url(#paint20_linear_6_573)"/>
<path style="mix-blend-mode:multiply" fill-rule="evenodd" clip-rule="evenodd" d="M47.2807 38.0227C48.8167 33.9467 49.5777 30.2491 47.9973 26.6557L18.4999 104.93C21.4876 104.386 23.2053 101.909 24.7621 97.7779L47.2807 38.0227Z" fill="url(#paint21_linear_6_573)"/>
<g style="mix-blend-mode:screen" opacity="0.5">
<path fill-rule="evenodd" clip-rule="evenodd" d="M36.5186 65.8425L47.2807 38.0227L37.006 66.0262L24.758 97.789L36.5186 65.8425Z" fill="#E2CEA4"/>
</g>
</g>
<defs>
<radialGradient id="paint0_radial_6_573" cx="0" cy="0" r="1" gradientUnits="userSpaceOnUse" gradientTransform="translate(59.8385 16.85) rotate(20.6487) scale(82.0973)">
<stop stop-color="#C9ED9C"/>
<stop offset="1" stop-color="#6CA11B"/>
</radialGradient>
<radialGradient id="paint1_radial_6_573" cx="0" cy="0" r="1" gradientUnits="userSpaceOnUse" gradientTransform="translate(28.8569 16.66) rotate(20.6487) scale(82.618)">
<stop stop-color="#81BF00"/>
<stop offset="1" stop-color="#4E8000"/>
</radialGradient>
<radialGradient id="paint2_radial_6_573" cx="0" cy="0" r="1" gradientUnits="userSpaceOnUse" gradientTransform="translate(96.3446 19.767) rotate(20.6487) scale(49.2631)">
<stop stop-color="#B0FF61"/>
<stop offset="1"/>
</radialGradient>
<radialGradient id="paint3_radial_6_573" cx="0" cy="0" r="1" gradientUnits="userSpaceOnUse" gradientTransform="translate(529.599 2447.51) rotate(20.6487) scale(152.185 213.341)">
<stop stop-color="#B0FF61"/>
<stop offset="1"/>
</radialGradient>
<radialGradient id="paint4_radial_6_573" cx="0" cy="0" r="1" gradientUnits="userSpaceOnUse" gradientTransform="translate(-437.542 4261.77) rotate(20.6487) scale(102.801 293.959)">
<stop stop-color="#B0FF61"/>
<stop offset="1"/>
</radialGradient>
<radialGradient id="paint5_radial_6_573" cx="0" cy="0" r="1" gradientUnits="userSpaceOnUse" gradientTransform="translate(74.4775 73.3294) rotate(20.6487) scale(145.718)">
<stop stop-color="#76AA07"/>
<stop offset="0.07" stop-color="#79AC0C"/>
<stop offset="0.14" stop-color="#80B019"/>
<stop offset="0.22" stop-color="#8CB830"/>
<stop offset="0.3" stop-color="#9EC34F"/>
<stop offset="0.39" stop-color="#B4D178"/>
<stop offset="0.47" stop-color="#D0E2A9"/>
<stop offset="0.56" stop-color="#F0F5E3"/>
<stop offset="0.6" stop-color="white"/>
</radialGradient>
<linearGradient id="paint6_linear_6_573" x1="9.17013" y1="129.419" x2="21.4645" y2="134.052" gradientUnits="userSpaceOnUse">
<stop stop-color="#291712"/>
<stop offset="0.07" stop-color="#351E16"/>
<stop offset="0.22" stop-color="#4A291D"/>
<stop offset="0.32" stop-color="#522D1F"/>
<stop offset="1" stop-color="#2B180C"/>
</linearGradient>
<radialGradient id="paint7_radial_6_573" cx="0" cy="0" r="1" gradientUnits="userSpaceOnUse" gradientTransform="translate(13.5137 130.816) rotate(20.6487) scale(36.1721)">
<stop stop-color="#B37E42"/>
<stop offset="1" stop-color="#663303"/>
</radialGradient>
<radialGradient id="paint8_radial_6_573" cx="0" cy="0" r="1" gradientUnits="userSpaceOnUse" gradientTransform="translate(21.2554 143.435) rotate(20.6487) scale(40.812)">
<stop stop-color="#B17F4A"/>
<stop offset="0.14" stop-color="#9E7242"/>
<stop offset="0.43" stop-color="#6E4F2E"/>
<stop offset="0.84" stop-color="#20170D"/>
<stop offset="1"/>
</radialGradient>
<linearGradient id="paint9_linear_6_573" x1="13.1325" y1="129.243" x2="23.7766" y2="133.254" gradientUnits="userSpaceOnUse">
<stop/>
<stop offset="1" stop-color="#8F4A64"/>
</linearGradient>
<radialGradient id="paint10_radial_6_573" cx="0" cy="0" r="1" gradientUnits="userSpaceOnUse" gradientTransform="translate(59.6724 141.785) rotate(20.6487) scale(72.2612)">
<stop offset="0.51" stop-color="white"/>
<stop offset="0.7" stop-color="#CFC9C3"/>
<stop offset="1" stop-color="#7B6A58"/>
</radialGradient>
<linearGradient id="paint11_linear_6_573" x1="17.5473" y1="105.444" x2="29.1993" y2="109.835" gradientUnits="userSpaceOnUse">
<stop stop-color="#734316"/>
<stop offset="0.31" stop-color="#9E6312"/>
<stop offset="1" stop-color="#613703"/>
</linearGradient>
<linearGradient id="paint12_linear_6_573" x1="18.414" y1="104.923" x2="28.892" y2="108.872" gradientUnits="userSpaceOnUse">
<stop stop-color="white"/>
<stop offset="0.38" stop-color="#CFC9C3"/>
<stop offset="1" stop-color="#7B6A58"/>
</linearGradient>
<radialGradient id="paint13_radial_6_573" cx="0" cy="0" r="1" gradientUnits="userSpaceOnUse" gradientTransform="translate(22.243 105) rotate(20.6487) scale(6.39166)">
<stop stop-color="#FCCF9F"/>
<stop offset="0.11" stop-color="#E9C093"/>
<stop offset="0.32" stop-color="#B89774"/>
<stop offset="0.63" stop-color="#6A5743"/>
<stop offset="1"/>
</radialGradient>
<radialGradient id="paint14_radial_6_573" cx="0" cy="0" r="1" gradientUnits="userSpaceOnUse" gradientTransform="translate(-6685.37 25014.3) rotate(20.6487) scale(780.232 5350.64)">
<stop stop-color="#B37E42"/>
<stop offset="1" stop-color="#663303"/>
</radialGradient>
<linearGradient id="paint15_linear_6_573" x1="26.708" y1="102.382" x2="57.3115" y2="21.1723" gradientUnits="userSpaceOnUse">
<stop stop-color="#6B5C4D"/>
<stop offset="1" stop-color="#A18F7D"/>
</linearGradient>
<radialGradient id="paint16_radial_6_573" cx="0" cy="0" r="1" gradientUnits="userSpaceOnUse" gradientTransform="translate(-6887.58 23739.8) rotate(20.6487) scale(898.278 7101.79)">
<stop stop-color="#B17F4A"/>
<stop offset="0.14" stop-color="#9E7242"/>
<stop offset="0.43" stop-color="#6E4F2E"/>
<stop offset="0.84" stop-color="#20170D"/>
<stop offset="1"/>
</radialGradient>
<radialGradient id="paint17_radial_6_573" cx="0" cy="0" r="1" gradientUnits="userSpaceOnUse" gradientTransform="translate(-193.767 509.591) rotate(20.6487) scale(222.101 566.621)">
<stop stop-color="#B17F4A"/>
<stop offset="0.14" stop-color="#9E7242"/>
<stop offset="0.43" stop-color="#6E4F2E"/>
<stop offset="0.84" stop-color="#20170D"/>
<stop offset="1"/>
</radialGradient>
<radialGradient id="paint18_radial_6_573" cx="0" cy="0" r="1" gradientUnits="userSpaceOnUse" gradientTransform="translate(-75.154 4275.45) rotate(20.6487) scale(204.589 386.947)">
<stop stop-color="#B17F4A"/>
<stop offset="0.14" stop-color="#9E7242"/>
<stop offset="0.43" stop-color="#6E4F2E"/>
<stop offset="0.84" stop-color="#20170D"/>
<stop offset="1"/>
</radialGradient>
<radialGradient id="paint19_radial_6_573" cx="0" cy="0" r="1" gradientUnits="userSpaceOnUse" gradientTransform="translate(-394.686 999.91) rotate(20.6487) scale(198.2 418.561)">
<stop stop-color="#B17F4A"/>
<stop offset="0.14" stop-color="#9E7242"/>
<stop offset="0.43" stop-color="#6E4F2E"/>
<stop offset="0.84" stop-color="#20170D"/>
<stop offset="1"/>
</radialGradient>
<linearGradient id="paint20_linear_6_573" x1="31.2581" y1="96.8866" x2="64.2491" y2="9.34158" gradientUnits="userSpaceOnUse">
<stop stop-color="#B9ED66"/>
<stop offset="1" stop-color="#D2FF9C"/>
</linearGradient>
<linearGradient id="paint21_linear_6_573" x1="33.2465" y1="65.7984" x2="39.9807" y2="68.3362" gradientUnits="userSpaceOnUse">
<stop stop-color="#B5917F"/>
<stop offset="1" stop-color="white"/>
</linearGradient>
<clipPath id="clip0_6_573">
<rect width="19.7431" height="162.443" fill="white" transform="translate(57.2834) rotate(20.6487)"/>
</clipPath>
</defs>
</svg>
