<svg width="126" height="179" viewBox="0 0 126 179" fill="none" xmlns="http://www.w3.org/2000/svg">
<g clip-path="url(#clip0_5_214)">
<path fill-rule="evenodd" clip-rule="evenodd" d="M97.5413 154.864C97.3118 155.547 97.1986 156.264 97.2065 156.984C96.1161 157.457 95.066 158.018 94.0667 158.661C93.7393 158.131 93.3091 157.671 92.801 157.309C92.8921 156.734 93.0369 156.168 93.2333 155.619C93.7153 155.23 94.705 154.555 95.764 153.872C96.2521 153.759 96.7538 153.717 97.2533 153.748C97.2111 154.134 97.309 154.522 97.5292 154.841L97.5413 154.864Z" fill="url(#paint0_radial_5_214)"/>
<path fill-rule="evenodd" clip-rule="evenodd" d="M97.2654 153.77C96.7659 153.74 96.2642 153.782 95.7761 153.895C96.8538 153.174 97.9801 152.528 99.1467 151.962C99.6544 151.959 100.162 151.99 100.665 152.056L100.425 152.184C99.3795 152.521 98.3661 152.95 97.3967 153.467C97.3194 153.539 97.2619 153.63 97.2298 153.731L97.2654 153.77Z" fill="url(#paint1_radial_5_214)"/>
<path fill-rule="evenodd" clip-rule="evenodd" d="M97.2654 153.77C97.2976 153.67 97.3551 153.579 97.4324 153.506C98.4018 152.989 99.4152 152.56 100.461 152.224C100.085 152.534 99.7286 152.866 99.392 153.218C98.6703 153.348 97.9593 153.532 97.2654 153.77Z" fill="url(#paint2_radial_5_214)"/>
<path style="mix-blend-mode:multiply" fill-rule="evenodd" clip-rule="evenodd" d="M94.6918 157.744C95.476 157.507 96.2057 157.117 96.8382 156.597C97.0012 156.401 97.1507 156.194 97.2856 155.978C97.227 156.318 97.2045 156.662 97.2186 157.006C96.1283 157.48 95.0782 158.041 94.0788 158.684C93.7515 158.154 93.3212 157.694 92.8131 157.332C92.9043 156.757 93.049 156.191 93.2454 155.641C93.7274 155.253 94.7172 154.578 95.7761 153.895C96.2642 153.782 96.7659 153.74 97.2654 153.77C97.2456 153.905 97.249 154.041 97.2755 154.174C96.9777 153.954 96.609 153.85 96.2386 153.881C95.0925 154.318 94.0795 155.046 93.3004 155.992C93.1865 156.186 93.116 156.402 93.0936 156.626C93.0712 156.849 93.0975 157.075 93.1706 157.287C93.3725 157.473 93.6143 157.61 93.8777 157.69C94.1412 157.769 94.4195 157.787 94.6918 157.744Z" fill="url(#paint3_radial_5_214)"/>
<path fill-rule="evenodd" clip-rule="evenodd" d="M93.5869 156.116C93.0982 157.435 92.8793 158.837 92.9432 160.24C93.3046 161.311 93.7482 162.352 94.2701 163.354C94.6981 163.871 95.1565 164.362 95.6429 164.825C97.8429 166.048 100.209 166.951 102.668 167.506C103.299 167.527 103.931 167.497 104.558 167.416C104.701 167.355 104.838 167.282 104.969 167.197C105.195 166.425 105.492 165.675 105.856 164.957C106.327 162.594 106.608 160.199 106.696 157.794C106.035 156.721 105.474 155.589 105.021 154.413C103.844 153.577 102.566 152.892 101.216 152.374C100.687 152.329 100.156 152.315 99.6246 152.335C97.5068 153.419 95.4867 154.684 93.5869 156.116Z" fill="url(#paint4_radial_5_214)"/>
<path fill-rule="evenodd" clip-rule="evenodd" d="M99.983 163.965C101.526 165.193 103.367 165.995 105.322 166.293L105.026 167.195C104.896 167.28 104.759 167.353 104.615 167.415C103.989 167.496 103.357 167.526 102.726 167.505C100.266 166.95 97.9007 166.047 95.7007 164.823C97.0199 164.128 98.5143 163.837 99.9952 163.987L99.983 163.965Z" fill="url(#paint5_radial_5_214)"/>
<path fill-rule="evenodd" clip-rule="evenodd" d="M99.983 163.965C98.5022 163.815 97.0078 164.105 95.6885 164.8C95.2021 164.338 94.7438 163.847 94.3158 163.33C93.7939 162.328 93.3503 161.286 92.9889 160.215C93.3108 160.262 93.6379 160.264 93.9609 160.221C95.9118 161.053 97.8192 161.982 99.6758 163.005C99.838 163.303 99.9422 163.628 99.983 163.965Z" fill="url(#paint6_radial_5_214)"/>
<path fill-rule="evenodd" clip-rule="evenodd" d="M105.322 166.293C103.367 165.995 101.526 165.193 99.983 163.965C99.9422 163.628 99.838 163.302 99.6758 163.005C100.063 163.236 100.457 163.478 100.828 163.732L102.524 164.737C102.801 164.883 103.104 164.974 103.416 165.005C104.247 165.093 105.086 165.076 105.914 164.955C105.69 165.389 105.493 165.835 105.322 166.293Z" fill="url(#paint7_radial_5_214)"/>
<path fill-rule="evenodd" clip-rule="evenodd" d="M105.914 164.955C105.086 165.076 104.247 165.093 103.416 165.005C103.442 164.858 103.456 164.709 103.457 164.56C103.392 164.079 103.299 163.603 103.179 163.133C103.917 163.281 104.676 163.309 105.425 163.216C105.555 163.805 105.718 164.385 105.914 164.955Z" fill="url(#paint8_radial_5_214)"/>
<path fill-rule="evenodd" clip-rule="evenodd" d="M103.201 163.12C103.322 163.59 103.415 164.067 103.48 164.548C103.479 164.697 103.465 164.846 103.439 164.993C103.127 164.961 102.824 164.871 102.547 164.725L100.85 163.72C100.48 163.466 100.086 163.224 99.6986 162.993C97.842 161.97 95.9346 161.041 93.9837 160.209C94.1699 159.853 94.3309 159.484 94.4653 159.105C95.4913 158.447 96.568 157.872 97.685 157.385C98.6233 157.544 99.534 157.833 100.39 158.245L100.421 158.302C101.17 159.098 101.856 159.951 102.474 160.853C102.77 161.596 103.011 162.36 103.196 163.138L103.201 163.12Z" fill="url(#paint9_radial_5_214)"/>
<path fill-rule="evenodd" clip-rule="evenodd" d="M105.425 163.216C104.676 163.309 103.917 163.281 103.179 163.133C102.994 162.354 102.752 161.591 102.457 160.848C103.366 161.066 104.304 161.145 105.239 161.083C105.254 161.798 105.316 162.51 105.425 163.216Z" fill="url(#paint10_radial_5_214)"/>
<path fill-rule="evenodd" clip-rule="evenodd" d="M105.425 163.216C105.316 162.51 105.254 161.798 105.239 161.083C105.695 159.787 106.071 158.464 106.367 157.123C106.488 157.351 106.61 157.578 106.731 157.805C106.643 160.21 106.362 162.605 105.891 164.967C105.695 164.397 105.532 163.817 105.402 163.229L105.425 163.216Z" fill="url(#paint11_radial_5_214)"/>
<path fill-rule="evenodd" clip-rule="evenodd" d="M105.239 161.083C104.304 161.145 103.366 161.066 102.457 160.848C101.839 159.946 101.152 159.093 100.403 158.296C100.513 157.745 100.547 157.181 100.506 156.621C100.192 155.63 100.003 154.604 99.9444 153.565C100.289 153.22 100.65 152.881 101.047 152.552C101.52 153.161 102.133 153.648 102.834 153.971C103.536 154.295 104.305 154.445 105.079 154.411C105.438 155.347 105.869 156.254 106.367 157.123C106.071 158.464 105.695 159.787 105.239 161.083Z" fill="url(#paint12_radial_5_214)"/>
<path fill-rule="evenodd" clip-rule="evenodd" d="M100.506 156.621C100.547 157.181 100.513 157.745 100.403 158.296L100.373 158.24C99.5166 157.828 98.6059 157.538 97.6675 157.379C97.6576 156.663 97.7729 155.949 98.0085 155.271C97.7886 154.947 97.6889 154.556 97.7265 154.166C98.441 153.925 99.1705 153.73 99.9101 153.583C99.9689 154.622 100.158 155.649 100.472 156.64L100.506 156.621Z" fill="url(#paint13_radial_5_214)"/>
<path fill-rule="evenodd" clip-rule="evenodd" d="M93.1774 157.794C93.6864 158.156 94.12 158.613 94.4546 159.14C94.3202 159.519 94.1593 159.888 93.973 160.244C93.6501 160.287 93.323 160.285 93.001 160.238C92.9428 159.422 92.9983 158.602 93.166 157.8L93.1774 157.794Z" fill="url(#paint14_radial_5_214)"/>
<path fill-rule="evenodd" clip-rule="evenodd" d="M105.055 154.366C104.281 154.4 103.511 154.249 102.81 153.926C102.108 153.602 101.496 153.116 101.023 152.507L101.274 152.373C102.624 152.89 103.902 153.575 105.079 154.411L105.055 154.366Z" fill="url(#paint15_radial_5_214)"/>
<path style="mix-blend-mode:screen" fill-rule="evenodd" clip-rule="evenodd" d="M97.3479 158.484C96.0035 158.852 95.149 160.083 95.6286 160.76C95.7979 160.97 95.9887 161.162 96.1981 161.332L93.9912 160.278C94.1775 159.922 94.3384 159.553 94.4728 159.174C95.4988 158.516 96.5755 157.941 97.6925 157.454C98.6308 157.612 99.5415 157.902 100.398 158.314C101.147 159.111 101.833 159.964 102.451 160.865C102.674 161.419 102.864 161.985 103.02 162.561C102.628 161.438 101.988 160.419 101.147 159.577C100.654 159.085 100.045 158.724 99.3757 158.526C98.7062 158.328 97.9969 158.3 97.3122 158.445L97.3479 158.484Z" fill="url(#paint16_radial_5_214)"/>
<path style="mix-blend-mode:multiply" opacity="0.5" fill-rule="evenodd" clip-rule="evenodd" d="M103.819 160.733C104.197 160.727 104.564 160.602 104.867 160.377C105.171 160.152 105.397 159.837 105.511 159.478C105.967 158.749 106.146 157.883 106.014 157.037C105.883 156.191 105.45 155.421 104.795 154.869C104.458 154.568 103.011 154.276 102.237 153.653C103.074 154.21 104.072 154.477 105.079 154.411C105.438 155.347 105.869 156.254 106.367 157.123C106.071 158.464 105.695 159.787 105.239 161.083C104.304 161.145 103.366 161.066 102.457 160.848C101.839 159.946 101.152 159.093 100.403 158.296C100.492 157.859 100.53 157.413 100.515 156.967C100.569 157.407 100.681 157.838 100.847 158.249C101.322 159.124 101.98 159.887 102.777 160.487C103.102 160.613 103.446 160.681 103.795 160.687L103.819 160.733Z" fill="url(#paint17_radial_5_214)"/>
<path fill-rule="evenodd" clip-rule="evenodd" d="M98.0185 155.207C98.9565 155.415 99.8123 155.891 100.482 156.576C100.523 157.136 100.488 157.699 100.379 158.251L100.349 158.194C99.4923 157.782 98.5816 157.493 97.6433 157.334C97.6333 156.617 97.7487 155.904 97.9842 155.225L98.0185 155.207Z" fill="url(#paint18_radial_5_214)"/>
<path style="mix-blend-mode:multiply" fill-rule="evenodd" clip-rule="evenodd" d="M97.5225 164.112C98.4395 163.768 98.9344 163.43 98.0929 162.625C97.0476 161.625 95.6858 161.017 94.2382 160.905C94.0411 160.898 93.8487 160.968 93.7026 161.1C93.5565 161.233 93.4685 161.418 93.4575 161.614C93.2463 161.172 93.0742 160.712 92.9432 160.24C93.2652 160.287 93.5923 160.289 93.9152 160.246L96.1678 161.275C97.3528 161.798 98.5085 162.383 99.6301 163.029C99.7923 163.327 99.8966 163.652 99.9374 163.989C99.115 163.917 98.2859 163.967 97.4768 164.136L97.5225 164.112Z" fill="url(#paint19_radial_5_214)"/>
<path style="mix-blend-mode:screen" fill-rule="evenodd" clip-rule="evenodd" d="M94.8642 158.863C95.7124 158.349 96.6109 157.922 97.5455 157.591C98.091 157.43 99.488 158.012 100.188 158.47C101.049 159.156 101.812 159.956 102.457 160.848C101.935 159.865 101.267 158.967 100.476 158.185C100.544 157.889 100.56 157.584 100.523 157.284C100.498 157.502 100.417 157.711 100.289 157.89C99.9694 158.061 98.2873 157.413 97.848 157.195C97.7604 156.826 97.745 156.443 97.8026 156.067C97.6644 156.484 97.5589 156.911 97.4873 157.344C96.5788 157.789 95.7023 158.297 94.8642 158.863Z" fill="url(#paint20_radial_5_214)"/>
<path style="mix-blend-mode:screen" fill-rule="evenodd" clip-rule="evenodd" d="M97.8336 164.062C98.5116 163.962 99.2022 163.994 99.8664 164.158C100.5 164.505 101.098 164.915 101.649 165.38C102.526 165.784 103.465 166.038 104.427 166.129C103.394 165.78 102.395 165.337 101.444 164.804C101.03 164.586 100.634 164.333 100.263 164.049C100.138 163.949 100.033 163.827 99.953 163.689C99.8974 163.73 99.8358 163.763 99.7704 163.786C99.5763 163.89 99.1977 163.786 99.0015 163.803C98.6053 163.855 98.2144 163.941 97.8336 164.062Z" fill="url(#paint21_radial_5_214)"/>
<path style="mix-blend-mode:screen" fill-rule="evenodd" clip-rule="evenodd" d="M103.443 164.48C103.314 163.936 103.219 163.374 103.09 162.83C102.961 162.286 102.881 162.081 102.773 161.715C103.046 162.226 103.14 162.978 103.757 163.116C103.984 163.184 104.233 163.211 104.472 163.273C104.154 163.237 103.831 163.256 103.519 163.33C103.483 163.351 103.454 163.381 103.434 163.417C103.415 163.453 103.406 163.494 103.408 163.535C103.393 163.864 103.436 164.163 103.443 164.48Z" fill="url(#paint22_radial_5_214)"/>
<path style="mix-blend-mode:screen" fill-rule="evenodd" clip-rule="evenodd" d="M97.1711 165.569C98.3168 165.625 99.4649 165.503 100.575 165.21C101.691 165.855 102.88 166.366 104.118 166.732C104.356 166.891 104.532 167.125 104.621 167.397C103.994 167.478 103.362 167.508 102.731 167.487C100.819 167.043 98.9576 166.404 97.1772 165.581L97.1711 165.569Z" fill="url(#paint23_radial_5_214)"/>
<path style="mix-blend-mode:screen" d="M104.095 164.847C106.983 163.304 108.08 159.725 106.545 156.853C105.011 153.981 101.426 152.905 98.5375 154.448C95.6495 155.991 94.5523 159.57 96.0869 162.442C97.6214 165.313 101.207 166.39 104.095 164.847Z" fill="url(#paint24_radial_5_214)"/>
<path style="mix-blend-mode:screen" d="M95.5155 161.098C96.4866 160.579 96.8555 159.376 96.3395 158.41C95.8236 157.445 94.6181 157.083 93.647 157.601C92.6759 158.12 92.307 159.324 92.823 160.289C93.339 161.255 94.5445 161.617 95.5155 161.098Z" fill="url(#paint25_radial_5_214)"/>
<path fill-rule="evenodd" clip-rule="evenodd" d="M98.4876 154.3C98.0064 154.25 97.5205 154.265 97.0425 154.342C98.1452 153.726 99.2897 153.187 100.467 152.731C100.978 152.724 101.487 152.759 101.991 152.836L101.752 152.964C100.709 153.233 99.6888 153.583 98.7002 154.011C98.6251 154.079 98.5642 154.161 98.5211 154.252L98.4876 154.3Z" fill="#9C679F"/>
<path fill-rule="evenodd" clip-rule="evenodd" d="M98.4876 154.3C98.5306 154.208 98.5915 154.126 98.6666 154.058C99.6553 153.631 100.676 153.28 101.718 153.011C101.326 153.294 100.94 153.587 100.589 153.892C99.8793 153.975 99.1769 154.111 98.4876 154.3Z" fill="#B580B8"/>
<path fill-rule="evenodd" clip-rule="evenodd" d="M90.5302 152.291L99.3102 147.599C99.747 148.416 100.299 149.201 100.817 150.034C101.335 150.866 101.883 151.755 102.438 152.655C102.596 152.951 102.256 153.497 101.509 154.159C99.5125 155.79 97.2163 157.017 94.7502 157.771C93.7847 158.024 93.1193 158.015 92.9844 157.707C92.544 156.746 92.1158 155.807 91.7057 154.903C91.2957 153.998 90.8984 153.145 90.5187 152.297L90.5302 152.291Z" fill="url(#paint26_linear_5_214)"/>
<path style="mix-blend-mode:multiply" fill-rule="evenodd" clip-rule="evenodd" d="M93.9717 157.632C93.4949 156.603 93.0249 155.613 92.5785 154.641C92.132 153.668 91.7052 152.787 91.2837 151.888L90.5302 152.291C90.9099 153.139 91.3132 154.003 91.7172 154.897C92.1211 155.79 92.5554 156.74 92.9958 157.701C93.1232 157.94 93.5703 158.007 94.2497 157.878C94.1301 157.832 94.0314 157.745 93.9717 157.632Z" fill="url(#paint27_linear_5_214)"/>
<path style="mix-blend-mode:multiply" fill-rule="evenodd" clip-rule="evenodd" d="M97.5519 148.538C98.019 149.413 98.5607 150.262 99.0864 151.163C99.612 152.064 100.174 153.033 100.742 154.014C100.864 154.241 100.785 154.561 100.528 154.931C101.102 154.536 101.63 154.077 102.102 153.565C102.433 153.169 102.581 152.842 102.449 152.649C101.895 151.749 101.352 150.871 100.828 150.028C100.304 149.184 99.8041 148.386 99.3216 147.593L97.5519 148.538Z" fill="url(#paint28_linear_5_214)"/>
<path style="mix-blend-mode:screen" fill-rule="evenodd" clip-rule="evenodd" d="M91.9688 151.522C92.4663 152.453 92.8966 153.478 93.3902 154.484C93.8837 155.49 94.4091 156.61 94.9397 157.713C95.3361 157.604 95.7775 157.441 96.2531 157.26C96.7287 157.078 97.2204 156.845 97.7403 156.582C97.1336 155.446 96.5269 154.311 95.9748 153.278C95.4228 152.245 94.8768 151.223 94.355 150.247L91.9231 151.546L91.9688 151.522Z" fill="url(#paint29_radial_5_214)"/>
<path style="mix-blend-mode:screen" fill-rule="evenodd" clip-rule="evenodd" d="M95.0971 149.85C95.6189 150.827 96.1588 151.837 96.7169 152.881L98.4884 156.196C98.9565 155.946 99.4018 155.708 99.8243 155.483C99.2176 154.347 98.6109 153.212 98.0025 152.238C97.3941 151.264 96.9105 150.195 96.3377 149.26L95.0971 149.85Z" fill="url(#paint30_radial_5_214)"/>
<path fill-rule="evenodd" clip-rule="evenodd" d="M94.4223 149C95.4458 148.436 96.5237 147.977 97.6392 147.631C98.5295 147.374 99.1592 147.344 99.3216 147.593C99.484 147.842 99.1204 148.342 98.4236 148.934C96.5499 150.422 94.4222 151.559 92.144 152.29C91.2652 152.54 90.6583 152.558 90.5302 152.291C90.4021 152.024 90.7884 151.511 91.4852 150.919C92.3976 150.183 93.3816 149.54 94.4223 149Z" fill="url(#paint31_radial_5_214)"/>
<path fill-rule="evenodd" clip-rule="evenodd" d="M95.3749 150.782C93.0914 152.002 90.9206 152.637 90.694 152.13C86.8142 143.099 81.9352 134.531 76.1472 126.585C75.5947 124.968 75.1743 123.309 74.8902 121.623L82.517 117.547C83.7604 118.72 84.9063 119.992 85.9434 121.35C89.3269 130.58 93.739 139.398 99.0972 147.64C99.3581 148.128 97.6926 149.543 95.3749 150.782Z" fill="url(#paint32_linear_5_214)"/>
<path style="mix-blend-mode:multiply" opacity="0.65" fill-rule="evenodd" clip-rule="evenodd" d="M83.7848 122.474C87.708 131.775 92.3107 140.773 97.5559 149.397C98.6127 148.628 99.2777 147.923 99.085 147.617C93.7268 139.376 89.3147 130.557 85.9312 121.327C84.8941 119.969 83.7482 118.698 82.5048 117.525L80.7009 118.489C81.8071 119.755 82.8369 121.086 83.7848 122.474Z" fill="url(#paint33_radial_5_214)"/>
<path style="mix-blend-mode:multiply" opacity="0.65" fill-rule="evenodd" clip-rule="evenodd" d="M91.7487 152.209C87.524 143.136 82.6375 134.387 77.1284 126.031C76.5069 124.469 75.9729 122.874 75.5288 121.252L74.878 121.6C75.1622 123.286 75.5826 124.945 76.1351 126.562C81.9231 134.508 86.8021 143.076 90.6818 152.108C90.785 152.301 91.1675 152.33 91.7487 152.209Z" fill="url(#paint34_radial_5_214)"/>
<path style="mix-blend-mode:screen" fill-rule="evenodd" clip-rule="evenodd" d="M76.2249 120.632C76.7461 122.393 77.4078 124.109 78.2035 125.763C79.531 127.973 81.0183 130.097 82.3459 132.306C85.6312 137.671 88.5989 143.225 91.2336 148.938C92.7328 152.238 93.7907 147.323 93.0088 145.887C88.645 137.886 81.3723 125.485 78.3532 119.451L76.2249 120.632Z" fill="url(#paint35_radial_5_214)"/>
<path fill-rule="evenodd" clip-rule="evenodd" d="M71.2947 119.399L82.6208 113.347C83.0922 114.394 83.5576 115.43 84.0222 116.436C84.4869 117.443 84.8976 118.377 85.3259 119.315C85.4775 119.599 84.9891 120.196 84.1332 120.901C83.0234 121.763 81.838 122.524 80.5917 123.173C79.3548 123.85 78.0602 124.415 76.7233 124.861C75.6611 125.181 74.9279 125.237 74.7534 124.965C74.2109 124.088 73.6564 123.187 73.0843 122.281C72.5123 121.376 71.9031 120.373 71.2947 119.399Z" fill="url(#paint36_linear_5_214)"/>
<path style="mix-blend-mode:multiply" fill-rule="evenodd" clip-rule="evenodd" d="M75.8602 124.812C75.3445 123.847 74.72 122.925 74.129 121.957C73.5381 120.988 72.91 119.923 72.2766 118.875L71.2947 119.399C71.9031 120.373 72.5055 121.336 73.0843 122.281C73.6632 123.227 74.2109 124.088 74.7534 124.965C74.8808 125.204 75.4184 125.194 76.1717 125.01C76.0456 124.987 75.9339 124.916 75.8602 124.812Z" fill="url(#paint37_linear_5_214)"/>
<path style="mix-blend-mode:multiply" fill-rule="evenodd" clip-rule="evenodd" d="M80.3373 114.567C80.9136 115.646 81.3979 116.744 81.9043 117.802C82.4107 118.859 82.88 119.82 83.3614 120.803C83.4767 121.019 83.3401 121.34 83.014 121.718C83.6599 121.3 84.264 120.821 84.8179 120.287C85.2239 119.866 85.4176 119.514 85.3259 119.315C84.8976 118.377 84.4573 117.415 84.0222 116.436C83.5872 115.458 83.0922 114.394 82.6208 113.347L80.3373 114.567Z" fill="url(#paint38_linear_5_214)"/>
<path style="mix-blend-mode:screen" fill-rule="evenodd" clip-rule="evenodd" d="M73.1443 118.411C73.751 119.546 74.4605 120.627 75.1128 121.738C75.7651 122.848 76.3386 123.812 76.9303 124.809C77.3625 124.666 77.8381 124.484 78.3571 124.265C78.8481 124.003 79.4157 123.802 79.9813 123.514C79.411 122.447 78.8347 121.369 78.2341 120.245C77.6335 119.121 77.0207 117.974 76.3473 116.714L73.1504 118.422L73.1443 118.411Z" fill="url(#paint39_radial_5_214)"/>
<path style="mix-blend-mode:screen" fill-rule="evenodd" clip-rule="evenodd" d="M77.1747 116.257C77.8238 117.472 78.4548 118.653 79.0675 119.799L80.8086 123.057C81.311 122.789 81.7906 122.533 82.2587 122.283C81.6945 121.227 81.1181 120.148 80.5807 119.005C80.0432 117.862 79.3673 116.735 78.786 115.455L77.1747 116.257Z" fill="url(#paint40_radial_5_214)"/>
<path fill-rule="evenodd" clip-rule="evenodd" d="M72.4034 115.596L78.8885 112.131C80.1885 109.976 81.7125 106.126 81.5806 103.847C64.1741 79.3773 57.3156 62.2306 51.7397 45.2596C44.1495 30.5617 29.5509 15.9605 20.7683 11.0069C20.0059 21.0613 24.0563 41.3578 32.0332 55.7906C42.9981 69.8818 53.4417 85.1126 64.1576 113.158C65.9792 114.534 70.0027 115.361 72.5404 115.523L72.4034 115.596Z" fill="#B3B3B3"/>
<path fill-rule="evenodd" clip-rule="evenodd" d="M31.9419 55.8394L33.9046 54.5132C31.7514 50.5167 29.9317 46.3492 28.464 42.0526C26.5166 36.4601 25.0369 30.7146 24.04 24.8747C23.4805 21.7416 23.1312 18.5738 22.9945 15.3924L20.677 11.0557C19.9146 21.1101 23.965 41.4066 31.9419 55.8394Z" fill="url(#paint41_linear_5_214)"/>
<path fill-rule="evenodd" clip-rule="evenodd" d="M33.9046 54.5132L31.9419 55.8394C42.9068 69.9306 53.3504 85.1614 64.0663 113.207L65.1793 110.043C61.1012 98.9713 56.0805 88.2712 50.1717 78.0595C45.2926 69.8528 39.8737 61.9788 33.9503 54.4888L33.9046 54.5132Z" fill="url(#paint42_linear_5_214)"/>
<path fill-rule="evenodd" clip-rule="evenodd" d="M72.4034 115.596C69.6183 114.279 67.1423 112.396 65.1336 110.068L64.0206 113.231C65.8423 114.607 69.8657 115.435 72.4034 115.596Z" fill="url(#paint43_radial_5_214)"/>
<path fill-rule="evenodd" clip-rule="evenodd" d="M51.6484 45.3084L49.5123 46.1727C47.3666 42.1701 44.894 38.3515 42.1193 34.7554C38.5521 30.0285 34.5978 25.6053 30.2967 21.5311C28.0029 19.3249 25.5634 17.2741 22.9945 15.3924L20.677 11.0557C29.4596 16.0093 44.0825 30.656 51.6484 45.3084Z" fill="url(#paint44_linear_5_214)"/>
<path fill-rule="evenodd" clip-rule="evenodd" d="M49.5123 46.1727L51.7055 45.2779C57.327 62.2245 64.1856 79.3712 81.5464 103.865L78.2683 103.005C71.3297 93.4615 65.2242 83.3411 60.0182 72.7539C55.9327 64.1361 52.4231 55.2565 49.5123 46.1727Z" fill="url(#paint45_linear_5_214)"/>
<path fill-rule="evenodd" clip-rule="evenodd" d="M78.8885 112.131C79.322 109.076 79.1107 105.967 78.2683 103.005L81.5168 103.838C81.6486 106.117 80.1004 109.921 78.8246 112.121L78.8885 112.131Z" fill="url(#paint46_radial_5_214)"/>
<path fill-rule="evenodd" clip-rule="evenodd" d="M41.237 49.5295L33.9046 54.5132C39.828 62.0032 45.2469 69.8773 50.1261 78.084C56.0268 88.2853 61.0414 98.9739 65.1154 110.034C67.1241 112.362 69.6001 114.245 72.3852 115.562L75.6049 113.842L41.237 49.5295Z" fill="url(#paint47_radial_5_214)"/>
<path style="mix-blend-mode:screen" opacity="0.5" fill-rule="evenodd" clip-rule="evenodd" d="M31.942 55.8394C42.9068 69.9306 53.3505 85.1614 64.0663 113.207C64.0126 111.013 63.647 108.84 62.9804 106.752C60.0908 96.6209 47.1184 71.5767 36.4797 58.9749C35.3261 57.5055 33.7645 56.4069 31.9876 55.815L31.942 55.8394Z" fill="url(#paint48_radial_5_214)"/>
<path fill-rule="evenodd" clip-rule="evenodd" d="M41.2371 49.5294L49.4552 46.2031C52.3903 55.29 55.9251 64.1709 60.0364 72.788C65.2383 83.3628 71.3377 93.4717 78.2683 103.005C79.088 105.969 79.2775 109.074 78.8246 112.121L75.6049 113.842L41.2371 49.5294Z" fill="url(#paint49_radial_5_214)"/>
<path fill-rule="evenodd" clip-rule="evenodd" d="M31.9419 55.8394L33.9046 54.5132C31.7514 50.5167 29.9317 46.3492 28.464 42.0526C26.5166 36.4601 25.0369 30.7146 24.04 24.8747C23.9164 24.0942 23.7868 23.3024 23.668 22.4757C24.7199 32.5328 27.4748 42.3315 31.8156 51.4556C32.5433 53.037 33.4882 54.2833 31.8773 55.8009L31.9419 55.8394Z" fill="white"/>
<path opacity="0.5" fill-rule="evenodd" clip-rule="evenodd" d="M51.6484 45.3084L49.5122 46.1726C47.3666 42.1701 44.8939 38.3515 42.1193 34.7554C38.5521 30.0285 34.5978 25.6053 30.2967 21.5311C29.7165 20.9947 29.1302 20.4469 28.509 19.8887C36.4539 26.5175 43.1856 34.4684 48.4077 43.3916C49.2224 44.7513 49.8704 45.6893 51.6241 45.263L51.6484 45.3084Z" fill="#E6E6E6"/>
<path style="mix-blend-mode:multiply" fill-rule="evenodd" clip-rule="evenodd" d="M51.3189 48.812C51.1658 47.6455 51.2848 46.4582 51.6666 45.3425L51.1185 45.6353L49.5122 46.1727C52.4474 55.2595 55.9821 64.1404 60.0935 72.7575C65.2756 83.3407 71.3559 93.4599 78.2683 103.005L81.5167 103.838C81.2655 103.505 81.0257 103.166 80.7616 102.782C79.2141 102.541 77.82 101.72 76.8636 100.486C72.6814 95.5991 65.5731 83.0664 63.145 78.4678C59.8447 72.292 52.2019 55.2434 51.2583 48.6985L51.3189 48.812Z" fill="url(#paint50_radial_5_214)"/>
<path style="mix-blend-mode:multiply" opacity="0.3" fill-rule="evenodd" clip-rule="evenodd" d="M64.6672 113.644C65.1199 113.324 65.6632 113.156 66.2171 113.166C67.923 113.145 70.5736 115.056 72.4034 115.596C69.6183 114.279 67.1423 112.396 65.1336 110.068L64.0206 113.231C64.2267 113.383 64.4427 113.521 64.6672 113.644Z" fill="url(#paint51_radial_5_214)"/>
<path style="mix-blend-mode:multiply" opacity="0.3" fill-rule="evenodd" clip-rule="evenodd" d="M81.5193 104.639C81.0013 104.837 80.56 105.196 80.2606 105.662C79.2948 107.068 79.4107 110.334 78.8428 112.155C79.2946 109.095 79.0989 105.978 78.2683 103.005L81.5168 103.838C81.5285 104.093 81.5233 104.35 81.5011 104.605L81.5193 104.639Z" fill="url(#paint52_radial_5_214)"/>
<path style="mix-blend-mode:multiply" opacity="0.5" fill-rule="evenodd" clip-rule="evenodd" d="M71.8548 104.462C75.5525 110.338 79.6401 109.554 78.2979 103.033C71.3594 93.4894 65.2538 83.369 60.0478 72.7819C55.951 64.1558 52.4315 55.2667 49.5123 46.1726C45.5751 48.5831 45.3592 52.4639 47.7931 58.227C54.8341 74.1297 62.8862 89.5645 71.9005 104.437L71.8548 104.462Z" fill="url(#paint53_radial_5_214)"/>
<path fill-rule="evenodd" clip-rule="evenodd" d="M28.464 42.0526C29.9262 46.3329 31.7377 50.4851 33.8803 54.4678L41.2127 49.484L23.0126 15.4264C23.1093 17.7985 23.3341 20.163 23.6861 22.5097C23.805 23.3365 23.9346 24.1283 24.0581 24.9088C25.051 30.7366 26.5246 36.4706 28.464 42.0526Z" fill="url(#paint54_radial_5_214)"/>
<path fill-rule="evenodd" clip-rule="evenodd" d="M42.1193 34.7554C44.8939 38.3515 47.3666 42.1701 49.5122 46.1726L41.2941 49.4989L23.094 15.4413C25.0123 16.8399 26.8532 18.3408 28.6085 19.9376C29.2298 20.4959 29.816 21.0437 30.3962 21.5801C34.6608 25.6427 38.5817 30.0493 42.1193 34.7554Z" fill="url(#paint55_radial_5_214)"/>
<path style="mix-blend-mode:screen" fill-rule="evenodd" clip-rule="evenodd" d="M39.0418 48.7177C38.7579 50.3288 36.1513 52.9769 34.7634 53.9229L41.2256 49.5356L27.8182 24.4464L38.1217 45.2105C38.8039 46.2618 39.1288 47.5052 39.0486 48.7578L39.0418 48.7177Z" fill="url(#paint56_radial_5_214)"/>
<path style="mix-blend-mode:multiply" fill-rule="evenodd" clip-rule="evenodd" d="M23.0187 15.4378C27.8573 23.2288 34.3751 35.0408 40.0204 42.0067C43.44 46.236 46.3952 46.9043 49.4551 46.2032C47.3292 42.192 44.8756 38.3633 42.1192 34.7554C38.5521 30.0285 34.5978 25.6053 30.2967 21.5311C29.7165 20.9947 29.1302 20.4469 28.509 19.8887C26.7536 18.2918 24.9128 16.7909 22.9944 15.3924L23.0187 15.4378Z" fill="url(#paint57_radial_5_214)"/>
<path style="mix-blend-mode:screen" fill-rule="evenodd" clip-rule="evenodd" d="M34.7634 53.9229C39.3708 53.3435 43.4595 57.7261 47.5562 63.8265C53.7191 72.9969 65.1351 93.8377 68.85 103.893C70.7654 109.043 68.8646 112.16 65.1336 110.068C67.1423 112.396 69.6183 114.279 72.4034 115.596L75.6231 113.876L41.237 49.5294L34.7748 53.9168L34.7634 53.9229Z" fill="url(#paint58_radial_5_214)"/>
<path fill-rule="evenodd" clip-rule="evenodd" d="M74.1186 111.06C72.5311 119.571 59.2053 119.409 55.1378 116.577C54.2349 118.726 53.87 121.06 54.0747 123.377C57.9722 124.578 62.1633 124.471 66.0064 123.072C69.982 121.518 73.8275 119.648 77.5059 117.481C81.3513 115.627 85.0427 113.469 88.5444 111.028C91.8432 108.61 94.2614 105.186 95.4286 101.278C93.627 99.8087 91.4914 98.801 89.2066 98.3416C89.3009 103.297 82.0296 114.466 74.0721 111.056L74.1186 111.06Z" fill="url(#paint59_linear_5_214)"/>
<path fill-rule="evenodd" clip-rule="evenodd" d="M77.5402 117.463L74.1186 111.06C72.5311 119.571 59.2053 119.409 55.1378 116.577C54.2349 118.726 53.87 121.06 54.0747 123.377C57.9722 124.578 62.1634 124.471 66.0064 123.072C69.982 121.518 73.8275 119.648 77.5059 117.481L77.5402 117.463Z" fill="url(#paint60_linear_5_214)"/>
<path style="mix-blend-mode:screen" opacity="0.25" fill-rule="evenodd" clip-rule="evenodd" d="M55.1256 116.554C55.4553 117.505 55.9946 118.369 56.7039 119.084C57.4133 119.798 58.2748 120.345 59.2253 120.683C64.4163 122.404 74.3457 118.105 75.7444 114.103L74.1185 111.06C72.5311 119.571 59.2053 119.409 55.1378 116.577L55.1256 116.554Z" fill="url(#paint61_linear_5_214)"/>
<path style="mix-blend-mode:screen" opacity="0.2" fill-rule="evenodd" clip-rule="evenodd" d="M89.2409 98.3233C89.8482 99.1258 90.2671 100.054 90.4668 101.041C90.6665 102.028 90.6419 103.048 90.3949 104.026C88.941 109.298 79.8489 115.164 75.7444 114.103L74.1186 111.06C82.0761 114.47 89.3473 103.302 89.253 98.346L89.2409 98.3233Z" fill="url(#paint62_linear_5_214)"/>
<path style="mix-blend-mode:screen" opacity="0.35" fill-rule="evenodd" clip-rule="evenodd" d="M91.0557 99.1924C90.5779 99.2675 90.1392 99.502 89.8112 99.8574C88.9945 100.746 88.2035 104.759 84.7566 107.813C86.5714 105.855 87.9493 103.536 88.7987 101.012C88.9843 100.429 89.1165 99.8303 89.1939 99.2241C89.2299 98.9444 89.2461 98.6627 89.2423 98.3809C90.2612 98.515 91.2489 98.8213 92.1629 99.2867C91.8086 99.2019 91.4411 99.1854 91.08 99.2378L91.0557 99.1924Z" fill="url(#paint63_linear_5_214)"/>
<path style="mix-blend-mode:multiply" fill-rule="evenodd" clip-rule="evenodd" d="M79.3219 111.651C79.8351 111.428 80.3178 111.14 80.7584 110.796C80.368 110.987 79.9641 111.149 79.5499 111.281L79.333 111.397L79.2759 111.427C77.5769 111.919 75.7613 111.799 74.1481 111.088L77.5819 117.514C81.4273 115.66 85.1186 113.502 88.6203 111.06C89.8379 110.12 90.9588 109.062 91.9663 107.9C88.8944 110.914 84.3396 114.311 80.5568 115.253C79.4703 115.527 76.9137 114.835 76.8355 113.315C76.819 112.653 77.3942 112.521 78.0821 112.27C78.4246 112.087 78.8438 111.965 79.2213 111.792L79.3698 111.713L79.3219 111.651Z" fill="url(#paint64_linear_5_214)"/>
<path style="mix-blend-mode:screen" fill-rule="evenodd" clip-rule="evenodd" d="M71.7179 115.714C71.2474 116.017 70.7401 116.259 70.2087 116.433C70.5847 116.215 70.944 115.969 71.2837 115.698L71.5006 115.582C72.8536 114.443 73.7628 112.867 74.0682 111.131L77.502 117.556C73.8236 119.723 69.9781 121.593 66.0024 123.147C64.5442 123.637 63.0413 123.98 61.516 124.173C65.7284 123.294 71.084 121.395 73.969 118.773C74.8006 118.022 75.6464 115.512 74.4264 114.603C73.8847 114.221 73.4551 114.626 72.8643 115.058C72.5218 115.241 72.1875 115.522 71.8343 115.74L71.6858 115.819L71.7179 115.714Z" fill="url(#paint65_linear_5_214)"/>
<path style="mix-blend-mode:screen" opacity="0.35" fill-rule="evenodd" clip-rule="evenodd" d="M54.8168 118.558C55.1448 118.203 55.5836 117.968 56.0613 117.893C57.2541 117.708 61.03 119.281 65.484 118.112C62.8478 118.533 60.1546 118.39 57.5834 117.693C56.9957 117.523 56.4248 117.301 55.8779 117.028C55.6253 116.902 55.3821 116.759 55.1499 116.6C54.6952 117.521 54.401 118.513 54.2799 119.531C54.4063 119.189 54.5968 118.875 54.8411 118.604L54.8168 118.558Z" fill="url(#paint66_linear_5_214)"/>
<path style="mix-blend-mode:screen" opacity="0.75" d="M42.865 56.6135C47.3042 54.2412 48.9907 48.7399 46.6319 44.3259C44.2731 39.912 38.7623 38.2568 34.3231 40.6291C29.8839 43.0014 28.1974 48.5027 30.5562 52.9167C32.915 57.3306 38.4258 58.9858 42.865 56.6135Z" fill="url(#paint67_radial_5_214)"/>
</g>
<defs>
<radialGradient id="paint0_radial_5_214" cx="0" cy="0" r="1" gradientUnits="userSpaceOnUse" gradientTransform="translate(98.4552 147.547) rotate(-28.1197) scale(17.018 9.02477)">
<stop stop-color="#E8A8FF"/>
<stop offset="1" stop-color="#9033E8"/>
</radialGradient>
<radialGradient id="paint1_radial_5_214" cx="0" cy="0" r="1" gradientUnits="userSpaceOnUse" gradientTransform="translate(1221.8 -493.024) rotate(-28.1197) scale(19.0039 3.00814)">
<stop stop-color="#E8A8FF"/>
<stop offset="1" stop-color="#9033E8"/>
</radialGradient>
<radialGradient id="paint2_radial_5_214" cx="0" cy="0" r="1" gradientUnits="userSpaceOnUse" gradientTransform="translate(867.376 -293.083) rotate(-28.1197) scale(8.1228 1.53279)">
<stop stop-color="#E8A8FF"/>
<stop offset="1" stop-color="#9033E8"/>
</radialGradient>
<radialGradient id="paint3_radial_5_214" cx="0" cy="0" r="1" gradientUnits="userSpaceOnUse" gradientTransform="translate(97.6738 155.124) rotate(-28.1197) scale(7.041 3.73387)">
<stop stop-color="white"/>
<stop offset="1" stop-color="#B37AC7"/>
</radialGradient>
<radialGradient id="paint4_radial_5_214" cx="0" cy="0" r="1" gradientUnits="userSpaceOnUse" gradientTransform="translate(99.5237 166.624) rotate(-28.1197) scale(23.4908 12.1675)">
<stop stop-color="#DB8FE6"/>
<stop offset="1" stop-color="#6F05BD"/>
</radialGradient>
<radialGradient id="paint5_radial_5_214" cx="0" cy="0" r="1" gradientUnits="userSpaceOnUse" gradientTransform="translate(99.8689 170.64) rotate(-28.1197) scale(14.9184 7.72722)">
<stop stop-color="#E8C0E6"/>
<stop offset="1" stop-color="#BF7DE6"/>
</radialGradient>
<radialGradient id="paint6_radial_5_214" cx="0" cy="0" r="1" gradientUnits="userSpaceOnUse" gradientTransform="translate(78.2706 174.123) rotate(-28.1197) scale(23.3239 12.0811)">
<stop stop-color="#E8C0E6"/>
<stop offset="1" stop-color="#A950E6"/>
</radialGradient>
<radialGradient id="paint7_radial_5_214" cx="0" cy="0" r="1" gradientUnits="userSpaceOnUse" gradientTransform="translate(103.979 171.86) rotate(-28.1197) scale(22.0434 11.4179)">
<stop stop-color="#DB8FE6"/>
<stop offset="1" stop-color="#831ACF"/>
</radialGradient>
<radialGradient id="paint8_radial_5_214" cx="0" cy="0" r="1" gradientUnits="userSpaceOnUse" gradientTransform="translate(595.843 -274.413) rotate(-28.1197) scale(15.4024 17.0585)">
<stop stop-color="#DB8FE6"/>
<stop offset="1" stop-color="#831ACF"/>
</radialGradient>
<radialGradient id="paint9_radial_5_214" cx="0" cy="0" r="1" gradientUnits="userSpaceOnUse" gradientTransform="translate(93.6709 158.93) rotate(-28.1197) scale(22.3774 11.5908)">
<stop stop-color="#D07BE6"/>
<stop offset="1" stop-color="#A64AE6"/>
</radialGradient>
<radialGradient id="paint10_radial_5_214" cx="0" cy="0" r="1" gradientUnits="userSpaceOnUse" gradientTransform="translate(90.0545 166.224) rotate(-28.1197) scale(14.9461 7.74163)">
<stop stop-color="#DF9FE6"/>
<stop offset="1" stop-color="#AE5AE6"/>
</radialGradient>
<radialGradient id="paint11_radial_5_214" cx="0" cy="0" r="1" gradientUnits="userSpaceOnUse" gradientTransform="translate(818.392 -602.532) rotate(-28.1197) scale(28.8165 46.8537)">
<stop stop-color="#DB8FE6"/>
<stop offset="1" stop-color="#831ACF"/>
</radialGradient>
<radialGradient id="paint12_radial_5_214" cx="0" cy="0" r="1" gradientUnits="userSpaceOnUse" gradientTransform="translate(83.8055 170.103) rotate(-28.1197) scale(27.0534 14.0128)">
<stop stop-color="#DF9FE6"/>
<stop offset="1" stop-color="#A240E6"/>
</radialGradient>
<radialGradient id="paint13_radial_5_214" cx="0" cy="0" r="1" gradientUnits="userSpaceOnUse" gradientTransform="translate(813.848 -484.976) rotate(-28.1197) scale(11.339 14.7617)">
<stop stop-color="#DB8FE6"/>
<stop offset="1" stop-color="#831ACF"/>
</radialGradient>
<radialGradient id="paint14_radial_5_214" cx="0" cy="0" r="1" gradientUnits="userSpaceOnUse" gradientTransform="translate(98.54 156.77) rotate(-28.1197) scale(8.12705 4.2096)">
<stop offset="0.35" stop-color="#DB8FE6"/>
<stop offset="1" stop-color="#831ACF"/>
</radialGradient>
<radialGradient id="paint15_radial_5_214" cx="0" cy="0" r="1" gradientUnits="userSpaceOnUse" gradientTransform="translate(596.233 -308.557) rotate(-28.1197) scale(9.08423 12.1744)">
<stop stop-color="#DB8FE6"/>
<stop offset="1" stop-color="#831ACF"/>
</radialGradient>
<radialGradient id="paint16_radial_5_214" cx="0" cy="0" r="1" gradientUnits="userSpaceOnUse" gradientTransform="translate(92.8791 164.388) rotate(-28.1197) scale(11.7732 6.09817)">
<stop stop-color="#C94AE6"/>
<stop offset="1"/>
</radialGradient>
<radialGradient id="paint17_radial_5_214" cx="0" cy="0" r="1" gradientUnits="userSpaceOnUse" gradientTransform="translate(96.6605 161.19) rotate(-28.1197) scale(17.1171 8.86612)">
<stop stop-color="#F2E6E6"/>
<stop offset="1" stop-color="#A661AE"/>
</radialGradient>
<radialGradient id="paint18_radial_5_214" cx="0" cy="0" r="1" gradientUnits="userSpaceOnUse" gradientTransform="translate(640.703 -329.402) rotate(-28.1197) scale(14.0758 18.6822)">
<stop stop-color="#DB8FE6"/>
<stop offset="1" stop-color="#831ACF"/>
</radialGradient>
<radialGradient id="paint19_radial_5_214" cx="0" cy="0" r="1" gradientUnits="userSpaceOnUse" gradientTransform="translate(957.846 -676.982) rotate(-28.1197) scale(21.3053 29.4507)">
<stop stop-color="#F2E6E6"/>
<stop offset="1" stop-color="#A661AE"/>
</radialGradient>
<radialGradient id="paint20_radial_5_214" cx="0" cy="0" r="1" gradientUnits="userSpaceOnUse" gradientTransform="translate(96.6752 159.041) rotate(-28.1197) scale(12.6917 6.57395)">
<stop stop-color="#DB8DE6"/>
<stop offset="1"/>
</radialGradient>
<radialGradient id="paint21_radial_5_214" cx="0" cy="0" r="1" gradientUnits="userSpaceOnUse" gradientTransform="translate(1017.98 -619.548) rotate(-28.1197) scale(45.2204 46.0454)">
<stop stop-color="#DB8DE6"/>
<stop offset="1"/>
</radialGradient>
<radialGradient id="paint22_radial_5_214" cx="0" cy="0" r="1" gradientUnits="userSpaceOnUse" gradientTransform="translate(351.26 -138.041) rotate(-28.1197) scale(3.01055 5.61931)">
<stop stop-color="#DB8DE6"/>
<stop offset="1"/>
</radialGradient>
<radialGradient id="paint23_radial_5_214" cx="0" cy="0" r="1" gradientUnits="userSpaceOnUse" gradientTransform="translate(97.859 171.861) rotate(-28.1197) scale(11.9402 6.18471)">
<stop stop-color="#E8C0E6"/>
<stop offset="1" stop-color="#40194D"/>
</radialGradient>
<radialGradient id="paint24_radial_5_214" cx="0" cy="0" r="1" gradientUnits="userSpaceOnUse" gradientTransform="translate(101.322 159.659) rotate(-28.1197) scale(5.92901 5.8953)">
<stop stop-color="#C586CA"/>
<stop offset="0.27" stop-color="#C83EE6"/>
<stop offset="0.32" stop-color="#B438CF"/>
<stop offset="0.48" stop-color="#752486"/>
<stop offset="0.62" stop-color="#43154C"/>
<stop offset="0.74" stop-color="#1E0923"/>
<stop offset="0.84" stop-color="#080309"/>
<stop offset="0.89"/>
</radialGradient>
<radialGradient id="paint25_radial_5_214" cx="0" cy="0" r="1" gradientUnits="userSpaceOnUse" gradientTransform="translate(2018.01 -175.05) rotate(-28.1197) scale(6.14028 6.10541)">
<stop stop-color="#C586CA"/>
<stop offset="0.27" stop-color="#C83EE6"/>
<stop offset="0.32" stop-color="#B438CF"/>
<stop offset="0.48" stop-color="#752486"/>
<stop offset="0.62" stop-color="#43154C"/>
<stop offset="0.74" stop-color="#1E0923"/>
<stop offset="0.84" stop-color="#080309"/>
<stop offset="0.89"/>
</radialGradient>
<linearGradient id="paint26_linear_5_214" x1="91.8917" y1="155.635" x2="101.345" y2="150.583" gradientUnits="userSpaceOnUse">
<stop stop-color="#495D7A"/>
<stop offset="0.34" stop-color="#6F869E"/>
<stop offset="1" stop-color="#3E5170"/>
</linearGradient>
<linearGradient id="paint27_linear_5_214" x1="91.7703" y1="155.408" x2="92.855" y2="154.828" gradientUnits="userSpaceOnUse">
<stop stop-color="#A2C8E8"/>
<stop offset="0.35" stop-color="#C3DCF0"/>
<stop offset="1" stop-color="white"/>
</linearGradient>
<linearGradient id="paint28_linear_5_214" x1="98.8656" y1="151.821" x2="101.309" y2="150.515" gradientUnits="userSpaceOnUse">
<stop stop-color="white"/>
<stop offset="0.65" stop-color="#C3DCF0"/>
<stop offset="1" stop-color="#A2C8E8"/>
</linearGradient>
<radialGradient id="paint29_radial_5_214" cx="0" cy="0" r="1" gradientUnits="userSpaceOnUse" gradientTransform="translate(91.6143 158.44) rotate(-28.1197) scale(11.6898 11.6233)">
<stop stop-color="#E192E8"/>
<stop offset="0.13" stop-color="#BA79C0"/>
<stop offset="0.37" stop-color="#794E7C"/>
<stop offset="0.58" stop-color="#452D47"/>
<stop offset="0.76" stop-color="#1F1420"/>
<stop offset="0.91" stop-color="#080509"/>
<stop offset="1"/>
</radialGradient>
<radialGradient id="paint30_radial_5_214" cx="0" cy="0" r="1" gradientUnits="userSpaceOnUse" gradientTransform="translate(95.0414 158.316) rotate(-28.1197) scale(11.2886 11.2243)">
<stop stop-color="#E1B5E8"/>
<stop offset="0.13" stop-color="#BA96C0"/>
<stop offset="0.37" stop-color="#79617C"/>
<stop offset="0.58" stop-color="#453747"/>
<stop offset="0.76" stop-color="#1F1920"/>
<stop offset="0.91" stop-color="#080709"/>
<stop offset="1"/>
</radialGradient>
<radialGradient id="paint31_radial_5_214" cx="0" cy="0" r="1" gradientUnits="userSpaceOnUse" gradientTransform="translate(94.9193 152.237) rotate(-28.1197) scale(5.33353 5.30324)">
<stop stop-color="#A1C3E6"/>
<stop offset="1" stop-color="#506991"/>
</radialGradient>
<linearGradient id="paint32_linear_5_214" x1="82.129" y1="137.778" x2="91.9252" y2="132.543" gradientUnits="userSpaceOnUse">
<stop stop-color="#3D221B"/>
<stop offset="0.27" stop-color="#664437"/>
<stop offset="1" stop-color="#3B291E"/>
</linearGradient>
<radialGradient id="paint33_radial_5_214" cx="0" cy="0" r="1" gradientUnits="userSpaceOnUse" gradientTransform="translate(105.37 128.175) rotate(-28.1197) scale(57.9312 57.6016)">
<stop stop-color="#787E8F"/>
<stop offset="0.54" stop-color="#C3C6CD"/>
<stop offset="1" stop-color="white"/>
</radialGradient>
<radialGradient id="paint34_radial_5_214" cx="0" cy="0" r="1" gradientUnits="userSpaceOnUse" gradientTransform="translate(3117.23 3909.25) rotate(-28.1197) scale(62.4851 1096.64)">
<stop stop-color="#787E8F"/>
<stop offset="0.54" stop-color="#C3C6CD"/>
<stop offset="1" stop-color="white"/>
</radialGradient>
<radialGradient id="paint35_radial_5_214" cx="0" cy="0" r="1" gradientUnits="userSpaceOnUse" gradientTransform="translate(74.7032 159.946) rotate(-28.1197) scale(36.1952 35.9897)">
<stop stop-color="#8F4A64"/>
<stop offset="1"/>
</radialGradient>
<linearGradient id="paint36_linear_5_214" x1="5770.9" y1="-1862.51" x2="5883.25" y2="-1922.55" gradientUnits="userSpaceOnUse">
<stop stop-color="#495D7A"/>
<stop offset="0.34" stop-color="#6F869E"/>
<stop offset="1" stop-color="#3E5170"/>
</linearGradient>
<linearGradient id="paint37_linear_5_214" x1="1164.62" y1="533.386" x2="1166.49" y2="532.387" gradientUnits="userSpaceOnUse">
<stop stop-color="#A2C8E8"/>
<stop offset="0.35" stop-color="#C3DCF0"/>
<stop offset="1" stop-color="white"/>
</linearGradient>
<linearGradient id="paint38_linear_5_214" x1="2009.28" y1="127.448" x2="2018.11" y2="122.732" gradientUnits="userSpaceOnUse">
<stop stop-color="white"/>
<stop offset="0.65" stop-color="#C3DCF0"/>
<stop offset="1" stop-color="#A2C8E8"/>
</linearGradient>
<radialGradient id="paint39_radial_5_214" cx="0" cy="0" r="1" gradientUnits="userSpaceOnUse" gradientTransform="translate(72.9838 127.779) rotate(-28.1197) scale(12.6996 12.6273)">
<stop stop-color="#B5CBE8"/>
<stop offset="0.13" stop-color="#96A8C0"/>
<stop offset="0.37" stop-color="#616D7C"/>
<stop offset="0.58" stop-color="#373E47"/>
<stop offset="0.76" stop-color="#191C20"/>
<stop offset="0.91" stop-color="#070809"/>
<stop offset="1"/>
</radialGradient>
<radialGradient id="paint40_radial_5_214" cx="0" cy="0" r="1" gradientUnits="userSpaceOnUse" gradientTransform="translate(1263.48 567.114) rotate(-28.1197) scale(18.3542 78.6445)">
<stop stop-color="#B5CBE8"/>
<stop offset="0.13" stop-color="#96A8C0"/>
<stop offset="0.37" stop-color="#616D7C"/>
<stop offset="0.58" stop-color="#373E47"/>
<stop offset="0.76" stop-color="#191C20"/>
<stop offset="0.91" stop-color="#070809"/>
<stop offset="1"/>
</radialGradient>
<linearGradient id="paint41_linear_5_214" x1="36.8628" y1="53.2097" x2="15.7447" y2="13.6915" gradientUnits="userSpaceOnUse">
<stop stop-color="#A9C5CF"/>
<stop offset="1" stop-color="#D9F2FA"/>
</linearGradient>
<linearGradient id="paint42_linear_5_214" x1="5843.73" y1="5312.98" x2="4249.65" y2="2330" gradientUnits="userSpaceOnUse">
<stop stop-color="#A9C5CF"/>
<stop offset="1" stop-color="#D9F2FA"/>
</linearGradient>
<radialGradient id="paint43_radial_5_214" cx="0" cy="0" r="1" gradientUnits="userSpaceOnUse" gradientTransform="translate(3050.51 -419.215) rotate(-28.1197) scale(45.3311 59.9431)">
<stop stop-color="#A1C3E6"/>
<stop offset="1" stop-color="#506991"/>
</radialGradient>
<linearGradient id="paint44_linear_5_214" x1="46.7275" y1="47.9381" x2="25.6093" y2="8.41991" gradientUnits="userSpaceOnUse">
<stop stop-color="#89A7CC"/>
<stop offset="1" stop-color="#A1B9C9"/>
</linearGradient>
<linearGradient id="paint45_linear_5_214" x1="5928.78" y1="5267.53" x2="4334.7" y2="2284.55" gradientUnits="userSpaceOnUse">
<stop stop-color="#89A7CC"/>
<stop offset="1" stop-color="#A1B9C9"/>
</linearGradient>
<radialGradient id="paint46_radial_5_214" cx="0" cy="0" r="1" gradientUnits="userSpaceOnUse" gradientTransform="translate(3178.11 -457.428) rotate(-28.1197) scale(49.0354 65.143)">
<stop stop-color="#A1C3E6"/>
<stop offset="1" stop-color="#506991"/>
</radialGradient>
<radialGradient id="paint47_radial_5_214" cx="0" cy="0" r="1" gradientUnits="userSpaceOnUse" gradientTransform="translate(51.0134 104.245) rotate(-28.1197) scale(56.6754 56.353)">
<stop stop-color="#ABC3DB"/>
<stop offset="1" stop-color="#637A96"/>
</radialGradient>
<radialGradient id="paint48_radial_5_214" cx="0" cy="0" r="1" gradientUnits="userSpaceOnUse" gradientTransform="translate(35.1108 90.4717) rotate(-28.1197) scale(46.7328 46.4674)">
<stop/>
<stop offset="0.09" stop-color="#111316"/>
<stop offset="0.72" stop-color="#8696AC"/>
<stop offset="1" stop-color="#B5CBE8"/>
</radialGradient>
<radialGradient id="paint49_radial_5_214" cx="0" cy="0" r="1" gradientUnits="userSpaceOnUse" gradientTransform="translate(7013.05 3560.66) rotate(-28.1197) scale(448.462 3709.4)">
<stop stop-color="#A1C3E6"/>
<stop offset="1" stop-color="#506991"/>
</radialGradient>
<radialGradient id="paint50_radial_5_214" cx="0" cy="0" r="1" gradientUnits="userSpaceOnUse" gradientTransform="translate(87.6076 70.5471) rotate(-28.1197) scale(46.4481 46.1843)">
<stop stop-color="white"/>
<stop offset="0.67" stop-color="#C3D1F5"/>
<stop offset="1" stop-color="#A5B9F0"/>
</radialGradient>
<radialGradient id="paint51_radial_5_214" cx="0" cy="0" r="1" gradientUnits="userSpaceOnUse" gradientTransform="translate(63.392 114.472) rotate(-28.1197) scale(8.90648 8.85586)">
<stop stop-color="white"/>
<stop offset="0.46" stop-color="#C3C6CD"/>
<stop offset="1" stop-color="#787E8F"/>
</radialGradient>
<radialGradient id="paint52_radial_5_214" cx="0" cy="0" r="1" gradientUnits="userSpaceOnUse" gradientTransform="translate(3163.19 -484.823) rotate(-28.1197) scale(49.0354 65.143)">
<stop stop-color="white"/>
<stop offset="0.46" stop-color="#C3C6CD"/>
<stop offset="1" stop-color="#787E8F"/>
</radialGradient>
<radialGradient id="paint53_radial_5_214" cx="0" cy="0" r="1" gradientUnits="userSpaceOnUse" gradientTransform="translate(7185.5 4441.29) rotate(-28.1197) scale(726.904 5936.98)">
<stop stop-color="white"/>
<stop offset="0.46" stop-color="#C3C6CD"/>
<stop offset="1" stop-color="#787E8F"/>
</radialGradient>
<radialGradient id="paint54_radial_5_214" cx="0" cy="0" r="1" gradientUnits="userSpaceOnUse" gradientTransform="translate(41.6498 48.6813) rotate(-28.1197) scale(54.6041 54.2936)">
<stop stop-color="#CFE2E8"/>
<stop offset="1" stop-color="#5C779E"/>
</radialGradient>
<radialGradient id="paint55_radial_5_214" cx="0" cy="0" r="1" gradientUnits="userSpaceOnUse" gradientTransform="translate(4414.52 -805.089) rotate(-28.1197) scale(318.252 1427.94)">
<stop stop-color="#A1C3E6"/>
<stop offset="1" stop-color="#506991"/>
</radialGradient>
<radialGradient id="paint56_radial_5_214" cx="0" cy="0" r="1" gradientUnits="userSpaceOnUse" gradientTransform="translate(3761.06 -500.671) rotate(-28.1197) scale(186.492 702.788)">
<stop/>
<stop offset="0.09" stop-color="#111316"/>
<stop offset="0.72" stop-color="#8696AC"/>
<stop offset="1" stop-color="#B5CBE8"/>
</radialGradient>
<radialGradient id="paint57_radial_5_214" cx="0" cy="0" r="1" gradientUnits="userSpaceOnUse" gradientTransform="translate(19.3019 54.8736) rotate(-28.1197) scale(56.2479 55.9283)">
<stop offset="0.38" stop-color="white"/>
<stop offset="0.67" stop-color="#C3C6CD"/>
<stop offset="1" stop-color="#787E8F"/>
</radialGradient>
<radialGradient id="paint58_radial_5_214" cx="0" cy="0" r="1" gradientUnits="userSpaceOnUse" gradientTransform="translate(22.7837 82.7858) rotate(-28.1197) scale(72.2227 71.8122)">
<stop offset="0.38"/>
<stop offset="0.43" stop-color="#070809"/>
<stop offset="0.52" stop-color="#191C20"/>
<stop offset="0.64" stop-color="#373E47"/>
<stop offset="0.77" stop-color="#616D7C"/>
<stop offset="0.92" stop-color="#96A8C0"/>
<stop offset="1" stop-color="#B5CBE8"/>
</radialGradient>
<linearGradient id="paint59_linear_5_214" x1="54.1878" y1="123.506" x2="95.5417" y2="101.407" gradientUnits="userSpaceOnUse">
<stop stop-color="#3E5170"/>
<stop offset="1" stop-color="#6F869E"/>
</linearGradient>
<linearGradient id="paint60_linear_5_214" x1="54.1878" y1="123.506" x2="74.8648" y2="112.457" gradientUnits="userSpaceOnUse">
<stop stop-color="#637A96"/>
<stop offset="1" stop-color="#ABC3DB"/>
</linearGradient>
<linearGradient id="paint61_linear_5_214" x1="57.2693" y1="120.648" x2="74.3612" y2="111.514" gradientUnits="userSpaceOnUse">
<stop/>
<stop offset="0.09" stop-color="#070809"/>
<stop offset="0.24" stop-color="#191C20"/>
<stop offset="0.42" stop-color="#373E47"/>
<stop offset="0.63" stop-color="#616D7C"/>
<stop offset="0.87" stop-color="#96A8C0"/>
<stop offset="1" stop-color="#B5CBE8"/>
</linearGradient>
<linearGradient id="paint62_linear_5_214" x1="8606.96" y1="-3254.95" x2="8863.4" y2="-3391.99" gradientUnits="userSpaceOnUse">
<stop/>
<stop offset="0.09" stop-color="#070809"/>
<stop offset="0.24" stop-color="#191C20"/>
<stop offset="0.42" stop-color="#373E47"/>
<stop offset="0.63" stop-color="#616D7C"/>
<stop offset="0.87" stop-color="#96A8C0"/>
<stop offset="1" stop-color="#B5CBE8"/>
</linearGradient>
<linearGradient id="paint63_linear_5_214" x1="4856.97" y1="-1653" x2="4932.81" y2="-1693.53" gradientUnits="userSpaceOnUse">
<stop/>
<stop offset="0.09" stop-color="#070809"/>
<stop offset="0.24" stop-color="#191C20"/>
<stop offset="0.42" stop-color="#373E47"/>
<stop offset="0.63" stop-color="#616D7C"/>
<stop offset="0.87" stop-color="#96A8C0"/>
<stop offset="1" stop-color="#B5CBE8"/>
</linearGradient>
<linearGradient id="paint64_linear_5_214" x1="7603.07" y1="-2938.15" x2="7805.03" y2="-3046.08" gradientUnits="userSpaceOnUse">
<stop stop-color="#A2C8E8"/>
<stop offset="0.35" stop-color="#C3DCF0"/>
<stop offset="1" stop-color="white"/>
</linearGradient>
<linearGradient id="paint65_linear_5_214" x1="7385.83" y1="-2822.06" x2="7587.79" y2="-2929.99" gradientUnits="userSpaceOnUse">
<stop/>
<stop offset="0.09" stop-color="#070809"/>
<stop offset="0.24" stop-color="#191C20"/>
<stop offset="0.42" stop-color="#373E47"/>
<stop offset="0.63" stop-color="#616D7C"/>
<stop offset="0.87" stop-color="#96A8C0"/>
<stop offset="1" stop-color="#B5CBE8"/>
</linearGradient>
<linearGradient id="paint66_linear_5_214" x1="4595.3" y1="-1513.16" x2="4671.14" y2="-1553.69" gradientUnits="userSpaceOnUse">
<stop stop-color="#B5CBE8"/>
<stop offset="0.13" stop-color="#96A8C0"/>
<stop offset="0.37" stop-color="#616D7C"/>
<stop offset="0.58" stop-color="#373E47"/>
<stop offset="0.76" stop-color="#191C20"/>
<stop offset="0.91" stop-color="#070809"/>
<stop offset="1"/>
</linearGradient>
<radialGradient id="paint67_radial_5_214" cx="0" cy="0" r="1" gradientUnits="userSpaceOnUse" gradientTransform="translate(38.594 48.6213) rotate(-28.1197) scale(9.11359 9.0618)">
<stop stop-color="#A8E8FF"/>
<stop offset="0.01" stop-color="#A4E3F9"/>
<stop offset="0.18" stop-color="#79A8B8"/>
<stop offset="0.34" stop-color="#547480"/>
<stop offset="0.49" stop-color="#364B52"/>
<stop offset="0.64" stop-color="#1F2A2E"/>
<stop offset="0.78" stop-color="#0E1315"/>
<stop offset="0.9" stop-color="#040505"/>
<stop offset="1"/>
</radialGradient>
<clipPath id="clip0_5_214">
<rect width="46.9013" height="177.464" fill="white" transform="translate(0 22.1053) rotate(-28.1197)"/>
</clipPath>
</defs>
</svg>
