<svg width="122" height="141" viewBox="0 0 122 141" fill="none" xmlns="http://www.w3.org/2000/svg">
<g clip-path="url(#clip0_6_785)">
<path fill-rule="evenodd" clip-rule="evenodd" d="M34.7242 92.457L37.7333 100.821C35.9092 102.136 34.3749 103.813 33.2257 105.746C30.9946 109.189 30.4997 111.713 27.8527 114.92C25.2057 118.127 20.2365 123.037 17.2786 125.88C15.0462 127.929 13.4135 130.547 12.5557 133.453C10.1252 133.937 5.68545 128.286 6.85046 126.819C9.09619 124.858 11.0972 122.632 12.8101 120.191C19.3289 110.924 27.4146 100.98 34.7606 92.487L34.7242 92.457Z" fill="url(#paint0_linear_6_785)"/>
<path style="mix-blend-mode:screen" fill-rule="evenodd" clip-rule="evenodd" d="M32.7569 98.7452C32.2627 97.2528 31.044 98.8588 30.5566 99.4493C24.2256 107.268 18.4389 115.703 12.3092 123.703C11.2974 125.022 9.90032 125.9 9.02775 127.013C7.4235 129.049 10.0814 131.38 10.6864 130.444C11.5324 129.141 11.7943 127.418 13.1411 125.49C15.6355 121.912 20.7098 117.837 23.8698 114.046C26.2263 111.197 28.4078 108.208 30.4022 105.095C31.2482 103.846 32.0295 102.553 32.7429 101.223C33.0295 100.423 33.0344 99.5487 32.7569 98.7452Z" fill="url(#paint1_radial_6_785)"/>
<path style="mix-blend-mode:multiply" fill-rule="evenodd" clip-rule="evenodd" d="M32.0672 107.63C31.8802 106.987 31.6611 106.272 31.5175 105.558C29.4064 109.323 27.0058 112.918 24.3375 116.311C21.4543 119.714 18.2774 122.857 14.8435 125.703C12.4421 127.891 12.1065 129.019 11.2528 131.904C11.0241 132.662 10.7158 132.851 10.3522 132.81C10.9547 133.288 11.7146 133.523 12.4819 133.468C13.3397 130.562 14.9724 127.945 17.2048 125.896C20.1718 123.06 25.1319 118.142 27.7789 114.935C29.9235 112.337 30.6554 110.192 32.0415 107.625L32.0672 107.63Z" fill="url(#paint2_radial_6_785)"/>
<path style="mix-blend-mode:multiply" fill-rule="evenodd" clip-rule="evenodd" d="M15.8692 117.706C20.5843 111.365 25.3935 105.131 30.2433 98.8851L30.0818 97.8965C24.0734 105.065 17.9141 112.842 12.7212 120.225C11.0083 122.666 9.00735 124.891 6.76162 126.853C6.31921 127.389 6.66991 128.519 7.40088 129.687C7.10007 128.904 7.10659 128.36 7.9421 127.384C8.98439 126.122 10.6134 124.87 11.5235 123.712C13.0453 121.775 14.3794 119.715 15.8467 117.734L15.8692 117.706Z" fill="url(#paint3_linear_6_785)"/>
<path fill-rule="evenodd" clip-rule="evenodd" d="M109.211 4.6191C97.8374 24.5423 74.5291 45.7493 42.9734 83.2586L33.3302 94.9416L39.2899 99.8607C40.2133 98.7251 41.2528 97.6891 42.3913 96.7693C43.9897 95.1539 46.1215 94.1756 48.3884 94.0173C50.6553 93.859 52.9024 94.5314 54.7097 95.909C63.8233 77.4654 84.8388 59.4063 97.9405 41.0164C106.575 28.8525 111.749 16.367 109.167 4.59819L109.211 4.6191Z" fill="url(#paint4_radial_6_785)"/>
<path fill-rule="evenodd" clip-rule="evenodd" d="M105.504 9.60923C104.952 20.3642 99.4695 30.6702 93.3954 39.2505C87.8061 46.8179 81.7946 54.064 75.3894 60.9545C70.6722 66.2254 65.946 71.4888 61.6009 76.9751C57.6127 81.8186 54.1546 87.0753 51.2858 92.6552L50.6226 94.0323C51.9247 94.3218 53.1475 94.8932 54.205 95.7062C63.3186 77.2627 84.3341 59.2036 97.4358 40.8137C106.071 28.6498 111.244 16.1643 108.662 4.39544C107.689 6.11188 106.615 7.83784 105.461 9.58832L105.504 9.60923Z" fill="url(#paint5_radial_6_785)"/>
<path fill-rule="evenodd" clip-rule="evenodd" d="M96.0179 40.7736C90.4151 48.3943 84.3893 55.6948 77.9689 62.6407C73.2008 67.9917 68.398 73.3294 63.9479 78.9429C59.84 83.9379 56.2714 89.353 53.3018 95.0981C53.6435 95.2962 53.972 95.5164 54.2852 95.7571C63.3988 77.3136 84.4143 59.2545 97.516 40.8646C106.151 28.7007 111.324 16.2152 108.743 4.44635C108.47 4.92424 108.191 5.41119 107.902 5.89066C109.522 18.4543 103.113 30.8823 96.0649 40.8277L96.0179 40.7736Z" fill="url(#paint6_linear_6_785)"/>
<path style="mix-blend-mode:multiply" opacity="0.65" fill-rule="evenodd" clip-rule="evenodd" d="M75.283 52.7561C81.6928 45.3235 82.9557 42.8682 83.6516 36.5845C72.3643 49.1863 58.4872 64.0188 42.4761 83.0468L32.833 94.7298L36.3034 97.5942C48.9984 82.2137 62.3 67.8378 75.283 52.7561Z" fill="url(#paint7_linear_6_785)"/>
<path style="mix-blend-mode:screen" fill-rule="evenodd" clip-rule="evenodd" d="M65.412 78.8531C64.2435 79.5841 61.3103 79.0111 60.7508 78.0605C59.2081 80.0406 57.6958 82.0763 56.2728 84.1704C57.6739 83.5092 60.7489 84.077 60.8523 84.8955C62.3037 82.8656 63.8361 80.8363 65.4495 78.8077L65.412 78.8531Z" fill="url(#paint8_radial_6_785)"/>
<path style="mix-blend-mode:screen" opacity="0.2" fill-rule="evenodd" clip-rule="evenodd" d="M94.4016 24.2266C91.9271 27.2246 89.2252 30.2946 86.3551 33.5312C89.6961 33.3525 93.0353 33.9131 96.1348 35.1729C98.1405 32.0529 99.9147 28.7901 101.443 25.4107C99.0414 25.5533 96.6392 25.1388 94.4241 24.1994L94.4016 24.2266Z" fill="url(#paint9_radial_6_785)"/>
<path style="mix-blend-mode:screen" fill-rule="evenodd" clip-rule="evenodd" d="M96.1798 35.1184C97.5651 34.6428 100.277 34.7432 100.796 35.8734C102.765 32.7507 104.486 29.4777 105.942 26.0848C105.2 26.363 104.398 26.4398 103.617 26.3073C102.835 26.1748 102.103 25.8378 101.494 25.3305C99.9739 28.7147 98.2025 31.9804 96.1948 35.1002L96.1798 35.1184Z" fill="url(#paint10_radial_6_785)"/>
<path style="mix-blend-mode:screen" opacity="0.5" fill-rule="evenodd" clip-rule="evenodd" d="M104.716 15.5419C99.7448 40.4589 71.7121 62.8375 55.5555 85.2431C57.8374 81.5914 60.3473 78.0871 63.07 74.7511C78.5353 55.4406 98.0474 39.6841 104.716 15.5419Z" fill="url(#paint11_linear_6_785)"/>
<path style="mix-blend-mode:screen" opacity="0.15" fill-rule="evenodd" clip-rule="evenodd" d="M83.6516 36.5845C81.5872 44.045 70.9727 53.796 63.129 62.5958C53.2823 73.6373 43.7427 84.5657 34.4955 96.102L36.3125 97.6017C49.0075 82.2212 62.3091 67.8453 75.2921 52.7636C81.7019 45.331 82.9648 42.8756 83.6607 36.592L83.6516 36.5845Z" fill="url(#paint12_radial_6_785)"/>
<path opacity="0.3" fill-rule="evenodd" clip-rule="evenodd" d="M46.515 85.5556C55.6684 74.614 65.8634 63.5392 75.0318 52.5794C78.781 48.037 81.0407 45.8545 82.8216 41.2912C81.6172 45.9332 78.8876 48.8886 75.5433 52.9404C66.4775 63.9239 51.2094 80.5714 46.5272 85.5963L46.515 85.5556Z" fill="url(#paint13_linear_6_785)"/>
<path fill-rule="evenodd" clip-rule="evenodd" d="M30.0818 97.8965C30.5447 101.179 31.2077 104.429 32.0672 107.63C32.3947 107.03 32.7537 106.41 33.1776 105.767C34.3385 103.822 35.8896 102.138 37.7334 100.821L34.7243 92.457C33.1791 94.2365 31.6522 96.0309 30.0818 97.8965Z" fill="#BD8B2D"/>
<path style="mix-blend-mode:multiply" fill-rule="evenodd" clip-rule="evenodd" d="M30.2433 98.8852C30.8057 98.2038 31.3606 97.5315 31.923 96.8502C33.1279 95.5384 33.6358 96.7365 33.8863 98.043C34.1428 99.2311 34.2172 100.451 34.1069 101.662C34.0064 101.963 33.8485 102.243 33.6417 102.484C32.7862 103.688 32.2431 104.308 31.5084 105.55C31.6793 106.287 31.862 106.972 32.0581 107.623C32.3856 107.023 32.7446 106.403 33.1685 105.76C34.3293 103.814 35.8805 102.13 37.7243 100.814L34.7152 92.4495C33.17 94.229 31.6431 96.0235 30.0727 97.889L30.2342 98.8776L30.2433 98.8852Z" fill="url(#paint14_radial_6_785)"/>
<path fill-rule="evenodd" clip-rule="evenodd" d="M30.5056 110.725C29.4695 107.257 28.708 103.712 28.2281 100.124L27.0958 101.496C27.5749 105.232 28.3868 108.918 29.5216 112.51C29.8913 111.914 30.1947 111.324 30.5056 110.725Z" fill="#BD8B2D"/>
<path fill-rule="evenodd" clip-rule="evenodd" d="M42.1089 96.3528C38.0214 96.6601 37.4765 93.6748 36.63 91.0363C36.331 89.9137 35.8675 88.8414 35.2546 87.8544C34.2992 87.239 33.2291 86.8233 32.1087 86.6324C33.4538 90.1101 34.2855 103.703 37.1404 106.869C38.2258 107.335 39.3588 107.681 40.5192 107.901C39.5359 106.246 39.0882 104.328 39.2371 102.408C39.386 100.489 40.1243 98.6621 41.3511 97.1784C41.5859 96.8873 41.839 96.6116 42.1089 96.3528Z" fill="url(#paint15_linear_6_785)"/>
<path style="mix-blend-mode:screen" opacity="0.5" fill-rule="evenodd" clip-rule="evenodd" d="M32.1087 86.6324C32.8998 86.941 33.6148 87.4171 34.2047 88.0279C34.7947 88.6387 35.2455 89.3699 35.5264 90.1713C36.2574 92.302 36.5436 96.0819 37.9737 96.7735C39.198 97.3257 41.0054 96.8014 42.0788 96.3891C37.9914 96.6964 37.4465 93.7112 36.6 91.0727C36.301 89.95 35.8375 88.8777 35.2246 87.8907C34.2691 87.2753 33.199 86.8596 32.0787 86.6687L32.1087 86.6324Z" fill="url(#paint16_radial_6_785)"/>
<path style="mix-blend-mode:multiply" opacity="0.5" fill-rule="evenodd" clip-rule="evenodd" d="M40.5192 107.901C39.6661 106.466 39.2134 104.828 39.2082 103.158C39.203 101.489 39.6455 99.8478 40.4896 98.4071C38.6335 100.434 38.2337 102.991 38.3548 105.657C38.3736 106.115 38.433 106.561 38.2451 106.696C37.4422 107.225 36.0371 103.82 35.6512 102.585C35.1611 100.752 34.8308 98.8798 34.6641 96.9896C34.6213 94.6813 34.0465 92.4141 32.9844 90.3642L33.5647 93.8063L33.8324 95.5547C34.2591 98.091 34.745 100.722 35.3208 102.893C35.6449 104.327 36.2495 105.682 37.0997 106.881C38.1851 107.347 39.3181 107.693 40.4785 107.914L40.5192 107.901Z" fill="url(#paint17_linear_6_785)"/>
<path fill-rule="evenodd" clip-rule="evenodd" d="M14.9469 128.446C14.0293 126.727 12.5362 122.577 13.1198 119.668C12.9773 119.841 12.8424 120.004 12.7074 120.168C10.9945 122.608 8.99353 124.834 6.7478 126.796C5.55554 128.24 10.0316 133.92 12.453 133.429C12.9978 131.637 13.8276 129.945 14.9105 128.416L14.9469 128.446Z" fill="url(#paint18_linear_6_785)"/>
<path style="mix-blend-mode:multiply" fill-rule="evenodd" clip-rule="evenodd" d="M27.2945 102.698C27.6844 102.226 28.0444 101.79 28.4189 101.244L28.2281 100.124L27.0958 101.496L27.2945 102.698ZM13.0073 121.729C12.9694 121.048 13.0195 120.366 13.1562 119.698C13.0137 119.871 12.8787 120.034 12.7437 120.198C11.0308 122.638 9.02986 124.864 6.78413 126.826C6.34172 127.362 6.69242 128.491 7.42339 129.66C7.12258 128.877 7.1291 128.332 7.96461 127.357C9.0069 126.094 10.6359 124.842 11.546 123.684C12.0634 123.057 12.5354 122.393 13.0073 121.729Z" fill="url(#paint19_linear_6_785)"/>
<path style="mix-blend-mode:multiply" fill-rule="evenodd" clip-rule="evenodd" d="M29.8252 108.422C29.4913 108.956 29.1441 109.525 28.7653 110.113C28.9725 110.926 29.225 111.726 29.5216 112.51C29.8914 111.914 30.1947 111.324 30.5056 110.725C30.2355 109.971 30.0083 109.202 29.8252 108.422ZM14.0687 126.439C12.4146 128.128 12.0281 129.336 11.2604 131.895C11.0317 132.653 10.7233 132.842 10.3597 132.801C10.9623 133.279 11.7222 133.514 12.4894 133.459C13.0341 131.667 13.8639 129.975 14.9469 128.446C14.6112 127.797 14.3179 127.126 14.0687 126.439Z" fill="url(#paint20_linear_6_785)"/>
<path style="mix-blend-mode:screen" fill-rule="evenodd" clip-rule="evenodd" d="M13.5697 124.896C13.365 124.186 13.2064 123.464 13.095 122.733C12.8175 123.069 12.5401 123.405 12.2627 123.741C11.2508 125.06 9.85377 125.938 8.9812 127.051C7.37695 129.087 10.0349 131.418 10.6398 130.482C11.4858 129.179 11.7477 127.455 13.0946 125.528C13.2445 125.346 13.402 125.155 13.5595 124.964L13.5697 124.896ZM27.4685 103.468C27.6946 105.045 28.0223 106.72 28.3522 108.245C28.7571 107.755 29.0878 107.187 29.4473 106.659C29.1387 105.183 28.8431 103.579 28.5854 102.023C28.1955 102.495 27.8355 102.931 27.4685 103.468ZM30.4237 99.7214C30.6596 101.138 30.9153 102.586 31.1977 103.965C31.7784 103.094 32.3095 102.191 32.7883 101.261C33.0749 100.46 33.0798 99.5862 32.8023 98.7826C32.3081 97.2903 31.0894 98.8963 30.602 99.4868C30.5439 99.566 30.4814 99.6418 30.4146 99.7139L30.4237 99.7214Z" fill="url(#paint21_radial_6_785)"/>
<path style="mix-blend-mode:screen" opacity="0.75" d="M33.0685 96.0545C34.9149 97.5785 37.6472 97.3171 39.1712 95.4707C40.6952 93.6243 40.4339 90.8921 38.5875 89.3681C36.7411 87.844 34.0088 88.1054 32.4848 89.9518C30.9608 91.7982 31.2221 94.5304 33.0685 96.0545Z" fill="url(#paint22_radial_6_785)"/>
<path style="mix-blend-mode:screen" opacity="0.75" fill-rule="evenodd" clip-rule="evenodd" d="M12.7527 130.439C12.2066 131.104 11.4753 131.592 10.6515 131.841C9.82763 132.09 8.94835 132.089 8.12508 131.838C7.30181 131.587 6.57163 131.098 6.02703 130.431C5.48243 129.765 5.14794 128.951 5.06598 128.095C4.98403 127.238 5.15827 126.376 5.56665 125.618C5.97503 124.861 6.59915 124.241 7.3599 123.839C8.12065 123.436 8.98378 123.269 9.83992 123.357C10.6961 123.446 11.5067 123.786 12.169 124.336C13.0529 125.07 13.6105 126.123 13.7199 127.267C13.8293 128.41 13.4815 129.551 12.7527 130.439Z" fill="url(#paint23_radial_6_785)"/>
</g>
<defs>
<linearGradient id="paint0_linear_6_785" x1="19.7772" y1="110.362" x2="26.7997" y2="116.159" gradientUnits="userSpaceOnUse">
<stop stop-color="#281F36"/>
<stop offset="0.27" stop-color="#37454A"/>
<stop offset="1" stop-color="#2C2F3B"/>
</linearGradient>
<radialGradient id="paint1_radial_6_785" cx="0" cy="0" r="1" gradientUnits="userSpaceOnUse" gradientTransform="translate(16.3383 81.1457) rotate(39.5361) scale(50.947 50.9472)">
<stop stop-color="#1D48B5"/>
<stop offset="1"/>
</radialGradient>
<radialGradient id="paint2_radial_6_785" cx="0" cy="0" r="1" gradientUnits="userSpaceOnUse" gradientTransform="translate(-14.1322 81.2739) rotate(39.5361) scale(58.6156 58.6157)">
<stop offset="0.7" stop-color="white"/>
<stop offset="1" stop-color="#83839C"/>
</radialGradient>
<linearGradient id="paint3_linear_6_785" x1="17.6851" y1="112.897" x2="19.811" y2="114.652" gradientUnits="userSpaceOnUse">
<stop stop-color="#83839C"/>
<stop offset="1" stop-color="white"/>
</linearGradient>
<radialGradient id="paint4_radial_6_785" cx="0" cy="0" r="1" gradientUnits="userSpaceOnUse" gradientTransform="translate(106.326 19.4211) rotate(39.5361) scale(141.085)">
<stop stop-color="#AFBFCF"/>
<stop offset="1" stop-color="#4A6391"/>
</radialGradient>
<radialGradient id="paint5_radial_6_785" cx="0" cy="0" r="1" gradientUnits="userSpaceOnUse" gradientTransform="translate(105.856 27.8001) rotate(39.5361) scale(138.718)">
<stop stop-color="#C3D4E6"/>
<stop offset="1" stop-color="#7F91B0"/>
</radialGradient>
<linearGradient id="paint6_linear_6_785" x1="47.9599" y1="90.689" x2="114.937" y2="9.54377" gradientUnits="userSpaceOnUse">
<stop stop-color="#CFDEFA"/>
<stop offset="1" stop-color="#E3F1FF"/>
</linearGradient>
<linearGradient id="paint7_linear_6_785" x1="57.4057" y1="64.959" x2="62.0753" y2="68.8133" gradientUnits="userSpaceOnUse">
<stop stop-color="#6F778F"/>
<stop offset="0.19" stop-color="#7F85A6"/>
<stop offset="0.53" stop-color="#989BC9"/>
<stop offset="0.82" stop-color="#A7A8DE"/>
<stop offset="1" stop-color="#ADADE6"/>
</linearGradient>
<radialGradient id="paint8_radial_6_785" cx="0" cy="0" r="1" gradientUnits="userSpaceOnUse" gradientTransform="translate(70.787 85.1836) rotate(39.5361) scale(22.1694)">
<stop stop-color="#C5D4E8"/>
<stop offset="0.6" stop-color="#4D535A"/>
<stop offset="1"/>
</radialGradient>
<radialGradient id="paint9_radial_6_785" cx="0" cy="0" r="1" gradientUnits="userSpaceOnUse" gradientTransform="translate(-806.318 4717.59) rotate(39.5361) scale(256.247 473.479)">
<stop stop-color="#C5D4E8"/>
<stop offset="0.6" stop-color="#4D535A"/>
<stop offset="1"/>
</radialGradient>
<radialGradient id="paint10_radial_6_785" cx="0" cy="0" r="1" gradientUnits="userSpaceOnUse" gradientTransform="translate(-890.187 3821.53) rotate(39.5361) scale(139.315 297.506)">
<stop stop-color="#C5D4E8"/>
<stop offset="0.6" stop-color="#4D535A"/>
<stop offset="1"/>
</radialGradient>
<linearGradient id="paint11_linear_6_785" x1="-16733.7" y1="23337.3" x2="-12824.8" y2="18601.6" gradientUnits="userSpaceOnUse">
<stop stop-color="#CFDEFA"/>
<stop offset="1" stop-color="#E3F1FF"/>
</linearGradient>
<radialGradient id="paint12_radial_6_785" cx="0" cy="0" r="1" gradientUnits="userSpaceOnUse" gradientTransform="translate(92.5765 76.7903) rotate(39.5361) scale(135.231 135.231)">
<stop stop-color="#A1BFE8"/>
<stop offset="0.6" stop-color="#3F4A5A"/>
<stop offset="1"/>
</radialGradient>
<linearGradient id="paint13_linear_6_785" x1="-12044.3" y1="15473.9" x2="-10271.7" y2="13326.4" gradientUnits="userSpaceOnUse">
<stop stop-color="#CFDEFA"/>
<stop offset="1" stop-color="#E3F1FF"/>
</linearGradient>
<radialGradient id="paint14_radial_6_785" cx="0" cy="0" r="1" gradientUnits="userSpaceOnUse" gradientTransform="translate(27.0709 102.285) rotate(39.5361) scale(10.2837)">
<stop offset="0.51" stop-color="white"/>
<stop offset="0.7" stop-color="#CFC9C3"/>
<stop offset="1" stop-color="#7B6A58"/>
</radialGradient>
<linearGradient id="paint15_linear_6_785" x1="28.5019" y1="91.0022" x2="43.946" y2="103.75" gradientUnits="userSpaceOnUse">
<stop stop-color="#C7945A"/>
<stop offset="1" stop-color="#91551E"/>
</linearGradient>
<radialGradient id="paint16_radial_6_785" cx="0" cy="0" r="1" gradientUnits="userSpaceOnUse" gradientTransform="translate(40.6456 90.8531) rotate(39.5361) scale(11.8504)">
<stop stop-color="#FCCF9F"/>
<stop offset="0.11" stop-color="#E9C093"/>
<stop offset="0.32" stop-color="#B89774"/>
<stop offset="0.63" stop-color="#6A5743"/>
<stop offset="1"/>
</radialGradient>
<linearGradient id="paint17_linear_6_785" x1="23.7973" y1="89.3185" x2="44.5197" y2="106.423" gradientUnits="userSpaceOnUse">
<stop stop-color="white"/>
<stop offset="0.38" stop-color="#CFC9C3"/>
<stop offset="1" stop-color="#7B6A58"/>
</linearGradient>
<linearGradient id="paint18_linear_6_785" x1="9.07119" y1="124.055" x2="15.7212" y2="129.544" gradientUnits="userSpaceOnUse">
<stop stop-color="#94561C"/>
<stop offset="0.31" stop-color="#F0B665"/>
<stop offset="1" stop-color="#875810"/>
</linearGradient>
<linearGradient id="paint19_linear_6_785" x1="16.7628" y1="114.014" x2="18.8887" y2="115.769" gradientUnits="userSpaceOnUse">
<stop stop-color="#7B6A58"/>
<stop offset="0.62" stop-color="#CFC9C3"/>
<stop offset="1" stop-color="white"/>
</linearGradient>
<linearGradient id="paint20_linear_6_785" x1="-6850.19" y1="9792.16" x2="-6843.07" y2="9798.03" gradientUnits="userSpaceOnUse">
<stop stop-color="white"/>
<stop offset="0.38" stop-color="#CFC9C3"/>
<stop offset="1" stop-color="#7B6A58"/>
</linearGradient>
<radialGradient id="paint21_radial_6_785" cx="0" cy="0" r="1" gradientUnits="userSpaceOnUse" gradientTransform="translate(2.23452 103.581) rotate(39.5361) scale(54.8226)">
<stop stop-color="#FCA03F"/>
<stop offset="0.11" stop-color="#E9943A"/>
<stop offset="0.32" stop-color="#B8752E"/>
<stop offset="0.63" stop-color="#6A431A"/>
<stop offset="1"/>
</radialGradient>
<radialGradient id="paint22_radial_6_785" cx="0" cy="0" r="1" gradientUnits="userSpaceOnUse" gradientTransform="translate(35.828 92.7113) rotate(39.5361) scale(4.33493)">
<stop stop-color="#FFD52E"/>
<stop offset="0.01" stop-color="#F9D02D"/>
<stop offset="0.18" stop-color="#B89A21"/>
<stop offset="0.34" stop-color="#806B17"/>
<stop offset="0.49" stop-color="#52450F"/>
<stop offset="0.64" stop-color="#2E2708"/>
<stop offset="0.78" stop-color="#151104"/>
<stop offset="0.9" stop-color="#050401"/>
<stop offset="1"/>
</radialGradient>
<radialGradient id="paint23_radial_6_785" cx="0" cy="0" r="1" gradientUnits="userSpaceOnUse" gradientTransform="translate(-419.171 4167.07) rotate(39.5361) scale(31.9918)">
<stop stop-color="#FFD52E"/>
<stop offset="0.01" stop-color="#F9D02D"/>
<stop offset="0.18" stop-color="#B89A21"/>
<stop offset="0.34" stop-color="#806B17"/>
<stop offset="0.49" stop-color="#52450F"/>
<stop offset="0.64" stop-color="#2E2708"/>
<stop offset="0.78" stop-color="#151104"/>
<stop offset="0.9" stop-color="#050401"/>
<stop offset="1"/>
</radialGradient>
<clipPath id="clip0_6_785">
<rect width="23.3827" height="162.772" fill="white" transform="translate(103.615) rotate(39.5361)"/>
</clipPath>
</defs>
</svg>
