<svg width="100" height="129" viewBox="0 0 100 129" fill="none" xmlns="http://www.w3.org/2000/svg">
<g clip-path="url(#clip0_6_666)">
<path fill-rule="evenodd" clip-rule="evenodd" d="M11.2696 113.154L18.788 118.263C16.4072 119.512 13.8953 120.494 11.2983 121.19C10.9915 118.521 10.9818 115.826 11.2696 113.154Z" fill="url(#paint0_linear_6_666)"/>
<path fill-rule="evenodd" clip-rule="evenodd" d="M15.2949 110.558L19.7199 113.565L18.9424 118.054C18.8836 118.425 18.1126 118.421 17.3051 118.15C16.2558 117.811 15.2635 117.316 14.3614 116.682C13.4413 116.076 12.6143 115.339 11.9068 114.494C11.3803 113.81 11.0926 113.094 11.3936 112.936L15.2893 110.566L15.2949 110.558Z" fill="url(#paint1_linear_6_666)"/>
<path style="mix-blend-mode:multiply" fill-rule="evenodd" clip-rule="evenodd" d="M11.4577 113.838L15.6919 110.828L15.2949 110.558L11.3992 112.928C11.1928 113.054 11.2396 113.412 11.4577 113.838Z" fill="url(#paint2_radial_6_666)"/>
<path style="mix-blend-mode:multiply" fill-rule="evenodd" clip-rule="evenodd" d="M18.8349 112.963C18.2354 114.676 17.6461 116.391 17.0669 118.109L17.2883 118.175C18.1043 118.415 18.8615 118.422 18.9338 118.084L19.7087 113.581L18.8349 112.963Z" fill="url(#paint3_radial_6_666)"/>
<path style="mix-blend-mode:screen" fill-rule="evenodd" clip-rule="evenodd" d="M14.3446 116.707L17.5033 112.058L16.3949 111.305C15.0599 112.558 13.7175 113.81 12.3677 115.061C12.9668 115.678 13.6295 116.229 14.3446 116.707Z" fill="url(#paint4_radial_6_666)"/>
<path style="mix-blend-mode:multiply" fill-rule="evenodd" clip-rule="evenodd" d="M11.2983 121.19C11.2396 118.732 11.2977 116.244 11.4577 113.838C11.3351 113.631 11.2702 113.395 11.2696 113.154C10.9818 115.826 10.9915 118.521 11.2983 121.19Z" fill="url(#paint5_radial_6_666)"/>
<path style="mix-blend-mode:screen" fill-rule="evenodd" clip-rule="evenodd" d="M12.3677 115.061L11.2983 121.19L14.3446 116.707C13.6295 116.229 12.9668 115.678 12.3677 115.061Z" fill="url(#paint6_radial_6_666)"/>
<path style="mix-blend-mode:multiply" fill-rule="evenodd" clip-rule="evenodd" d="M17.0669 118.109C15.1157 119.202 13.232 120.194 11.3314 121.212C13.9284 120.516 16.4403 119.535 18.8211 118.286C18.3245 118.417 17.7991 118.386 17.3213 118.198L17.1 118.132L17.0669 118.109Z" fill="url(#paint7_radial_6_666)"/>
<path style="mix-blend-mode:multiply" fill-rule="evenodd" clip-rule="evenodd" d="M18.387 114.992C18.9342 115.219 19.3361 115.25 19.4627 115.046L19.7199 113.565L15.2949 110.558L14.3689 111.138C14.3859 111.502 14.5312 111.849 14.779 112.117C15.2535 112.743 15.8059 113.305 16.4228 113.791C17.0151 114.283 17.6699 114.696 18.3702 115.017L18.387 114.992Z" fill="url(#paint8_linear_6_666)"/>
<path fill-rule="evenodd" clip-rule="evenodd" d="M17.2041 107.321L22.0178 110.592C21.6244 111.171 21.2832 111.798 20.906 112.424C20.5288 113.05 20.1096 113.721 19.6987 114.397C19.5526 114.612 19.1503 114.616 18.586 114.451C17.1603 113.933 15.8866 113.068 14.8806 111.933C14.5129 111.477 14.3666 111.088 14.521 110.878C14.9962 110.25 15.4621 109.636 15.9186 109.035C16.3289 108.431 16.7858 107.883 17.2041 107.321Z" fill="url(#paint9_linear_6_666)"/>
<path style="mix-blend-mode:multiply" fill-rule="evenodd" clip-rule="evenodd" d="M14.7907 111.424C15.2629 110.729 15.7873 110.082 16.2617 109.437C16.7362 108.793 17.1769 108.197 17.6176 107.602L17.2041 107.321C16.8106 107.9 16.3537 108.448 15.9186 109.035C15.4835 109.622 14.9981 110.247 14.521 110.878C14.403 111.052 14.4643 111.335 14.7025 111.679C14.7025 111.586 14.7335 111.497 14.7907 111.424Z" fill="url(#paint10_linear_6_666)"/>
<path style="mix-blend-mode:multiply" fill-rule="evenodd" clip-rule="evenodd" d="M21.0501 109.935C20.6342 110.547 20.207 111.175 19.8265 111.86C19.446 112.544 18.9104 113.208 18.4962 113.942C18.4244 114.03 18.3308 114.097 18.2249 114.138C18.1189 114.178 18.0043 114.19 17.8923 114.173C18.2632 114.358 18.6591 114.489 19.0676 114.56C19.3835 114.594 19.6058 114.551 19.6987 114.397C20.1427 113.743 20.5093 113.061 20.906 112.424C21.3027 111.787 21.6492 111.188 22.0178 110.592L21.0501 109.935Z" fill="url(#paint11_linear_6_666)"/>
<path style="mix-blend-mode:screen" fill-rule="evenodd" clip-rule="evenodd" d="M17.9898 107.855C17.5402 108.517 17.0379 109.167 16.541 109.845C16.0441 110.523 15.4965 111.275 14.9547 112.019C15.1331 112.225 15.3241 112.419 15.5264 112.601C15.7627 112.814 16.01 113.014 16.2672 113.201C16.8292 112.374 17.3351 111.63 17.8465 110.877C18.358 110.124 18.8301 109.43 19.2966 108.743L17.9567 107.833L17.9898 107.855Z" fill="url(#paint12_radial_6_666)"/>
<path style="mix-blend-mode:screen" fill-rule="evenodd" clip-rule="evenodd" d="M19.7019 109.019C19.2354 109.705 18.752 110.416 18.2518 111.153L16.6669 113.485C16.9233 113.659 17.1714 113.828 17.403 113.985C17.965 113.158 18.4653 112.422 18.9298 111.649C19.3942 110.877 19.9021 110.219 20.3686 109.532L19.7019 109.019Z" fill="url(#paint13_radial_6_666)"/>
<path fill-rule="evenodd" clip-rule="evenodd" d="M20.0437 108.32C20.6034 108.695 21.1154 109.136 21.5687 109.634C21.9145 110.051 22.0833 110.407 21.9679 110.595C21.8525 110.782 21.4698 110.776 20.9554 110.608C19.6438 110.104 18.4664 109.304 17.5146 108.27C17.1688 107.853 17.0222 107.5 17.1541 107.324C17.286 107.147 17.6797 107.173 18.1941 107.341C18.8242 107.579 19.423 107.893 19.9775 108.275L20.0437 108.32Z" fill="url(#paint14_linear_6_666)"/>
<path fill-rule="evenodd" clip-rule="evenodd" d="M22.025 110.404C21.7609 110.793 20.4968 110.393 19.1983 109.511C17.8997 108.628 17.0629 107.6 17.3271 107.211L19.4403 104.101L24.1383 107.294L22.025 110.404Z" fill="url(#paint15_linear_6_666)"/>
<path style="mix-blend-mode:multiply" opacity="0.5" fill-rule="evenodd" clip-rule="evenodd" d="M17.5804 108.048L20.0028 104.484L19.4403 104.101L17.3271 107.211C17.209 107.385 17.3173 107.688 17.5804 108.048Z" fill="url(#paint16_linear_6_666)"/>
<path style="mix-blend-mode:multiply" opacity="0.75" fill-rule="evenodd" clip-rule="evenodd" d="M23.0796 106.574L20.5617 110.28C21.2994 110.6 21.8812 110.669 22.0498 110.421L24.1631 107.311L23.0796 106.574Z" fill="url(#paint17_linear_6_666)"/>
<path style="mix-blend-mode:screen" opacity="0.5" fill-rule="evenodd" clip-rule="evenodd" d="M21.9051 105.776L20.4659 104.798L17.9592 108.487C18.3466 108.873 18.7698 109.222 19.2231 109.527L19.3141 109.589L21.9051 105.776Z" fill="url(#paint18_linear_6_666)"/>
<path style="mix-blend-mode:multiply" opacity="0.75" fill-rule="evenodd" clip-rule="evenodd" d="M21.1116 106.748C22.3146 107.771 23.5055 108.278 23.7641 107.898L24.1631 107.311L19.4651 104.118C19.201 104.507 19.9029 105.734 21.1116 106.748Z" fill="url(#paint19_linear_6_666)"/>
<path fill-rule="evenodd" clip-rule="evenodd" d="M24.152 107.63C23.8766 108.035 22.5296 107.615 21.1648 106.688C19.8001 105.76 18.9139 104.663 19.1894 104.257L21.4375 100.949L26.4002 104.321L24.152 107.63Z" fill="url(#paint20_linear_6_666)"/>
<path style="mix-blend-mode:multiply" opacity="0.5" fill-rule="evenodd" clip-rule="evenodd" d="M19.4589 105.142L22.033 101.354L21.4375 100.949L19.1894 104.257C19.0657 104.439 19.1766 104.756 19.4589 105.142Z" fill="url(#paint21_linear_6_666)"/>
<path style="mix-blend-mode:multiply" opacity="0.75" fill-rule="evenodd" clip-rule="evenodd" d="M25.2422 103.534L22.5669 107.471C23.3433 107.805 23.9639 107.889 24.1437 107.624L26.3919 104.316L25.2422 103.534Z" fill="url(#paint22_linear_6_666)"/>
<path style="mix-blend-mode:screen" opacity="0.5" fill-rule="evenodd" clip-rule="evenodd" d="M24.0098 102.697L22.4797 101.657L19.8212 105.569C20.2276 105.989 20.6781 106.364 21.1648 106.688L21.2558 106.75L24.0098 102.697Z" fill="url(#paint23_linear_6_666)"/>
<path style="mix-blend-mode:multiply" opacity="0.75" fill-rule="evenodd" clip-rule="evenodd" d="M23.1349 103.771C24.4068 104.853 25.6612 105.391 25.9422 104.977L26.3806 104.332L21.418 100.96C21.1426 101.365 21.8658 102.703 23.1349 103.771Z" fill="url(#paint24_linear_6_666)"/>
<path fill-rule="evenodd" clip-rule="evenodd" d="M26.3917 104.654C26.0938 105.092 24.675 104.636 23.2193 103.647C21.7635 102.658 20.8251 101.512 21.123 101.074L23.4948 97.5833L28.7635 101.164L26.3917 104.654Z" fill="url(#paint25_linear_6_666)"/>
<path style="mix-blend-mode:multiply" opacity="0.5" fill-rule="evenodd" clip-rule="evenodd" d="M21.4392 102.014L24.1595 98.0108L23.4978 97.5611L21.126 101.052C20.9911 101.25 21.1047 101.581 21.4061 101.991L21.4392 102.014Z" fill="url(#paint26_linear_6_666)"/>
<path style="mix-blend-mode:multiply" opacity="0.75" fill-rule="evenodd" clip-rule="evenodd" d="M27.5229 100.32L24.7126 104.456C25.5304 104.818 26.187 104.902 26.3781 104.621L28.7499 101.13L27.5229 100.32Z" fill="url(#paint27_linear_6_666)"/>
<path style="mix-blend-mode:screen" opacity="0.5" fill-rule="evenodd" clip-rule="evenodd" d="M26.2326 99.4437L24.6197 98.3477L21.8095 102.483C22.241 102.92 22.7162 103.312 23.2275 103.652L23.3268 103.72L26.2326 99.4437Z" fill="url(#paint28_linear_6_666)"/>
<path style="mix-blend-mode:multiply" opacity="0.75" fill-rule="evenodd" clip-rule="evenodd" d="M25.2876 100.603C26.6365 101.749 27.9766 102.321 28.2689 101.891L28.7523 101.18L23.4753 97.5942C23.183 98.0243 23.9248 99.4593 25.2793 100.597L25.2876 100.603Z" fill="url(#paint29_linear_6_666)"/>
<path fill-rule="evenodd" clip-rule="evenodd" d="M28.758 101.474C28.4488 101.929 26.9553 101.458 25.4168 100.413C23.8784 99.3673 22.8989 98.1577 23.2081 97.7028L25.7036 94.0304L31.2534 97.8017L28.7523 101.482L28.758 101.474Z" fill="url(#paint30_linear_6_666)"/>
<path style="mix-blend-mode:multiply" opacity="0.5" fill-rule="evenodd" clip-rule="evenodd" d="M23.5293 98.7069L26.3901 94.4969L25.7284 94.0473L23.2273 97.7279C23.0868 97.9347 23.2057 98.2936 23.5237 98.7152L23.5293 98.7069Z" fill="url(#paint31_linear_6_666)"/>
<path style="mix-blend-mode:multiply" opacity="0.75" fill-rule="evenodd" clip-rule="evenodd" d="M29.9714 96.9306L26.9926 101.314C27.863 101.688 28.55 101.78 28.7523 101.482L31.2534 97.8018L29.9714 96.9306Z" fill="url(#paint32_linear_6_666)"/>
<path style="mix-blend-mode:screen" opacity="0.5" fill-rule="evenodd" clip-rule="evenodd" d="M28.5902 95.992L26.8863 94.8342L23.9243 99.193C24.3812 99.6521 24.882 100.065 25.4195 100.427L25.527 100.5L28.5902 95.992Z" fill="url(#paint33_linear_6_666)"/>
<path style="mix-blend-mode:multiply" opacity="0.75" fill-rule="evenodd" clip-rule="evenodd" d="M27.5807 97.2284C29.0123 98.4309 30.416 99.0341 30.7251 98.5792L31.2534 97.8017L25.7036 94.0304C25.3944 94.4853 26.1686 96.0149 27.5863 97.2201L27.5807 97.2284Z" fill="url(#paint34_linear_6_666)"/>
<path fill-rule="evenodd" clip-rule="evenodd" d="M31.2817 98.0627C30.9557 98.5424 29.3847 98.0431 27.7718 96.9472C26.159 95.8512 25.1163 94.5744 25.4423 94.0947L28.0783 90.2155L33.9176 94.1836L31.2817 98.0627Z" fill="url(#paint35_linear_6_666)"/>
<path style="mix-blend-mode:multiply" opacity="0.5" fill-rule="evenodd" clip-rule="evenodd" d="M25.7797 95.1461L28.7922 90.7128L28.0892 90.2351L25.4588 94.1059C25.3127 94.321 25.4425 94.6993 25.7797 95.1461Z" fill="url(#paint36_linear_6_666)"/>
<path style="mix-blend-mode:multiply" opacity="0.75" fill-rule="evenodd" clip-rule="evenodd" d="M32.5529 93.2562L29.4223 97.8632C30.3506 98.2764 31.0572 98.3575 31.2651 98.0515L33.9011 94.1723L32.5529 93.2562Z" fill="url(#paint37_linear_6_666)"/>
<path style="mix-blend-mode:screen" opacity="0.5" fill-rule="evenodd" clip-rule="evenodd" d="M31.1137 92.2783L29.3189 91.0586L26.1996 95.6491C26.6722 96.1257 27.1905 96.5549 27.747 96.9303L27.8545 97.0034L31.0807 92.2558L31.1137 92.2783Z" fill="url(#paint38_linear_6_666)"/>
<path style="mix-blend-mode:multiply" opacity="0.75" fill-rule="evenodd" clip-rule="evenodd" d="M30.0762 93.556C31.5767 94.8174 33.0521 95.4573 33.3781 94.9776L33.9064 94.2001L28.067 90.2321C27.7411 90.7118 28.5814 92.2863 30.0762 93.556Z" fill="url(#paint39_linear_6_666)"/>
<path fill-rule="evenodd" clip-rule="evenodd" d="M33.9908 94.3784C33.648 94.8829 32.0078 94.3608 30.3123 93.2086C28.6167 92.0564 27.5274 90.7238 27.8702 90.2193L30.6299 86.1582L36.7505 90.3173L33.9908 94.3784Z" fill="url(#paint40_linear_6_666)"/>
<path style="mix-blend-mode:multiply" opacity="0.5" fill-rule="evenodd" clip-rule="evenodd" d="M28.199 91.3011L31.3577 86.6528L30.6299 86.1582L27.8702 90.2193C27.7185 90.4426 27.8509 90.8348 28.199 91.3011Z" fill="url(#paint41_linear_6_666)"/>
<path style="mix-blend-mode:multiply" opacity="0.75" fill-rule="evenodd" clip-rule="evenodd" d="M35.3361 89.3562L32.0537 94.1865C32.9933 94.5831 33.7716 94.701 33.9908 94.3784L36.7505 90.3173L35.3361 89.3562Z" fill="url(#paint42_linear_6_666)"/>
<path style="mix-blend-mode:screen" opacity="0.5" fill-rule="evenodd" clip-rule="evenodd" d="M33.8059 88.3164L31.9284 87.0406L28.6629 91.8461C29.1642 92.356 29.7169 92.8126 30.3123 93.2086L30.428 93.2873L33.8003 88.3247L33.8059 88.3164Z" fill="url(#paint43_linear_6_666)"/>
<path style="mix-blend-mode:multiply" fill-rule="evenodd" clip-rule="evenodd" d="M32.8527 89.4701C34.4302 90.796 35.9748 91.4587 36.3177 90.9542L36.7505 90.3173L30.6299 86.1582C30.287 86.6627 31.2891 88.1416 32.8527 89.4701Z" fill="url(#paint44_linear_6_666)"/>
<path fill-rule="evenodd" clip-rule="evenodd" d="M29.2203 81.5248L35.011 86.294L41.5773 89.9218C42.4878 88.5819 45.2993 84.3021 46.1542 82.9728C45.9225 83.0177 45.6826 82.9927 45.4651 82.9009C45.2476 82.809 45.0623 82.6546 44.9328 82.4572C44.8547 82.2237 44.8378 81.9741 44.8836 81.7322C44.9295 81.4903 45.0366 81.2642 45.1947 81.0755C45.5938 80.5062 46.1167 80.0348 46.7241 79.6967C47.3107 79.3405 47.973 79.1278 48.6573 79.0759C49.5264 77.7079 50.3982 76.3537 51.2532 75.0244C51.0231 75.0709 50.7845 75.0471 50.5681 74.9562C50.3518 74.8652 50.1678 74.7113 50.0401 74.5144C49.9578 74.2811 49.938 74.0304 49.9824 73.7871C50.0269 73.5437 50.1342 73.3162 50.2936 73.1271C50.6927 72.5578 51.2156 72.0864 51.823 71.7483C52.4096 71.3921 53.0719 71.1794 53.7562 71.1275C54.6253 69.7595 55.4971 68.4053 56.3521 67.076C56.1221 67.1225 55.8834 67.0987 55.667 67.0077C55.4507 66.9168 55.2667 66.7629 55.139 66.566C55.0597 66.3323 55.0414 66.0822 55.0858 65.8395C55.1301 65.5967 55.2357 65.3692 55.3926 65.1787C55.7914 64.6077 56.3179 64.1375 56.9302 63.8055C57.5119 63.4443 58.1723 63.2294 58.8551 63.1791C59.7656 61.8392 60.5961 60.4569 61.451 59.1276C61.221 59.1741 60.9823 59.1503 60.766 59.0593C60.5496 58.9684 60.3656 58.8145 60.2379 58.6176C60.1586 58.3839 60.1403 58.1338 60.1847 57.8911C60.2291 57.6483 60.3346 57.4209 60.4915 57.2303C60.8903 56.6593 61.4168 56.1891 62.0291 55.8571C62.6108 55.496 63.2712 55.281 63.954 55.2307C66.3615 51.4743 68.692 47.843 70.9457 44.3368C75.6958 37.0638 79.9612 29.4853 83.7138 21.6508C86.3489 15.9938 87.9945 11.1878 88.4333 7.67753C85.3313 9.37803 81.5053 12.642 77.1796 17.2106C71.2803 23.5867 65.8076 30.3447 60.7971 37.4405C58.3615 40.8231 55.8407 44.3251 53.2347 47.9466C53.4536 48.6032 53.513 49.3026 53.408 49.9867C53.3173 50.676 53.0716 51.3357 52.6892 51.9163C52.572 52.1328 52.4012 52.3157 52.1932 52.4473C51.9852 52.579 51.7468 52.6552 51.501 52.6685C51.2698 52.6209 51.058 52.5055 50.8926 52.3371C50.7271 52.1687 50.6155 51.9549 50.5719 51.7228C49.6839 53.0297 48.7128 54.3164 47.7692 55.6338C47.966 56.2886 48.0092 56.9799 47.8956 57.6541C47.8048 58.3433 47.5591 59.0031 47.1767 59.5837C47.0595 59.8002 46.8887 59.983 46.6807 60.1147C46.4727 60.2464 46.2344 60.3226 45.9885 60.3359C45.7573 60.2882 45.5455 60.1728 45.3801 60.0044C45.2146 59.836 45.103 59.6222 45.0594 59.3902C44.1714 60.6971 43.2003 61.9837 42.2567 63.3012C42.4575 63.9552 42.5008 64.6475 42.3831 65.3215C42.2924 66.0107 42.0466 66.6704 41.6643 67.2511C41.547 67.4676 41.3762 67.6504 41.1682 67.7821C40.9602 67.9138 40.7219 67.99 40.476 68.0033C40.2448 67.9556 40.0331 67.8402 39.8676 67.6718C39.7022 67.5034 39.5905 67.2896 39.5469 67.0576C38.6589 68.3644 37.6879 69.6511 36.7443 70.9685C36.945 71.6226 36.9883 72.3149 36.8706 72.9888C36.7844 73.6792 36.5383 74.34 36.1518 74.9185C36.0346 75.135 35.8638 75.3178 35.6557 75.4495C35.4477 75.5812 35.2094 75.6573 34.9636 75.6707C34.7335 75.6244 34.5227 75.51 34.3585 75.3424C34.1943 75.1747 34.0843 74.9616 34.0427 74.7306C33.1134 76.0093 30.2026 80.2216 29.259 81.5391L29.2203 81.5248Z" fill="#CCCCCC"/>
<path fill-rule="evenodd" clip-rule="evenodd" d="M84.7238 13.1364C82.6677 14.9262 80.7058 16.8215 78.8462 18.8147C73.0104 25.1086 67.6011 31.7851 62.6544 38.7994C60.1494 42.296 57.6296 45.7906 55.0951 49.2833L52.3935 53.0454C51.4943 54.3687 50.5206 55.6415 49.5826 56.9507L46.8811 60.7127C45.9818 62.0361 45.0107 63.3228 44.0701 64.618L41.3739 68.4079C40.4746 69.7313 39.5035 71.0179 38.5629 72.3132L35.8614 76.0753C35.4061 76.7452 31.5914 82.181 31.1197 82.8397L39.6637 88.6456C40.1189 87.9757 43.7599 82.4219 44.1986 81.7407L46.7016 77.8437C47.6009 76.5203 48.4314 75.1381 49.2976 73.7923L51.8006 69.8953C52.6998 68.572 53.5386 67.1954 54.3965 65.8439L56.8995 61.9469C57.8044 60.6153 58.6375 59.247 59.4954 57.8955L61.9984 53.9985C64.342 50.36 66.6708 46.7194 68.9848 43.0769C73.6934 35.9002 77.9093 28.412 81.6034 20.6641C82.7763 18.2032 83.8162 15.6811 84.7185 13.1087L84.7238 13.1364Z" fill="#CCCCCC"/>
<path fill-rule="evenodd" clip-rule="evenodd" d="M47.138 59.5695C47.0208 59.786 46.85 59.9688 46.642 60.1005C46.434 60.2322 46.1957 60.3084 45.9498 60.3217C45.7186 60.274 45.5068 60.1586 45.3414 59.9902C45.1759 59.8218 45.0643 59.608 45.0207 59.376C44.1327 60.6828 43.1616 61.9695 42.218 63.287C42.4188 63.941 42.4621 64.6333 42.3444 65.3072C42.2536 65.9965 42.0079 66.6563 41.6256 67.2369C41.5083 67.4534 41.3375 67.6362 41.1295 67.7679C40.9215 67.8996 40.6832 67.9758 40.4373 67.9891C40.2061 67.9414 39.9943 67.826 39.8289 67.6576C39.6634 67.4892 39.5518 67.2754 39.5082 67.0434C38.6202 68.3502 37.6491 69.6369 36.7055 70.9543C36.9063 71.6084 36.9496 72.3006 36.8319 72.9746C36.7457 73.665 36.4996 74.3258 36.1131 74.9043C35.9959 75.1208 35.8251 75.3036 35.617 75.4353C35.409 75.567 35.1707 75.6431 34.9249 75.6565C34.6948 75.6102 34.484 75.4958 34.3197 75.3282C34.1555 75.1605 34.0455 74.9474 34.004 74.7164C33.0746 75.9951 30.1639 80.2074 29.2203 81.5249L31.0046 82.9912C31.4598 82.3213 35.4008 76.7174 35.8726 76.0587L38.5742 72.2967C39.5148 71.0014 40.4528 69.6922 41.3851 68.3913L44.0866 64.6293C45.0273 63.334 45.9652 62.0249 46.8976 60.724L49.5991 56.9619C50.504 55.6303 51.4777 54.3575 52.4101 53.0566L55.1116 49.2945C57.6296 45.7906 60.1476 42.2867 62.6657 38.7829C67.6123 31.7685 73.0216 25.0921 78.8574 18.7981C80.7171 16.805 82.6789 14.9097 84.7351 13.1199L88.4446 7.66099C85.3425 9.36149 81.5165 12.6254 77.1908 17.1941C71.2915 23.5702 65.8188 30.3281 60.8083 37.424C58.3727 40.8066 55.8519 44.3086 53.2459 47.93C53.4637 48.5928 53.5193 49.2981 53.408 49.9867C53.3173 50.676 53.0715 51.3357 52.6892 51.9163C52.572 52.1328 52.4012 52.3157 52.1932 52.4474C51.9852 52.579 51.7468 52.6552 51.501 52.6686C51.2698 52.6209 51.058 52.5055 50.8926 52.3371C50.7271 52.1687 50.6155 51.9549 50.5719 51.7228C49.6839 53.0297 48.7128 54.3164 47.7692 55.6338C47.966 56.2886 48.0092 56.9799 47.8955 57.6541C47.8048 58.3433 47.5591 59.0031 47.1767 59.5837L47.138 59.5695Z" fill="url(#paint45_linear_6_666)"/>
<path fill-rule="evenodd" clip-rule="evenodd" d="M59.5067 57.8789C58.6074 59.2023 57.7825 60.5763 56.9107 61.9304L54.4078 65.8273C53.5085 67.1507 52.678 68.5329 51.8118 69.8788L49.3141 73.8035C48.4148 75.1269 47.5844 76.5091 46.7182 77.855L44.2152 81.7519C43.7599 82.4219 40.0009 88.1494 39.5622 88.8306L41.5826 89.9496C42.4931 88.6097 45.3046 84.3299 46.1595 83.0006C45.9278 83.0455 45.6879 83.0205 45.4704 82.9286C45.2529 82.8368 45.0676 82.6824 44.9382 82.485C44.8601 82.2515 44.8431 82.0019 44.889 81.76C44.9348 81.5181 45.0419 81.292 45.2 81.1033C45.5991 80.534 46.122 80.0626 46.7294 79.7245C47.3159 79.3683 47.9783 79.1556 48.6625 79.1037C49.5317 77.7356 50.4035 76.3815 51.2584 75.0522C51.0284 75.0987 50.7897 75.0749 50.5734 74.9839C50.3571 74.893 50.1731 74.7391 50.0453 74.5422C49.9631 74.3089 49.9433 74.0582 49.9877 73.8149C50.0322 73.5715 50.1395 73.344 50.2989 73.1549C50.698 72.5856 51.2209 72.1142 51.8283 71.7761C52.4149 71.4199 53.0772 71.2072 53.7615 71.1553C54.6306 69.7872 55.5024 68.4331 56.3574 67.1038C56.1273 67.1503 55.8887 67.1265 55.6723 67.0355C55.456 66.9446 55.272 66.7907 55.1443 66.5938C55.065 66.3601 55.0467 66.11 55.091 65.8672C55.1354 65.6245 55.241 65.3971 55.3979 65.2065C55.7967 64.6355 56.3232 64.1653 56.9355 63.8333C57.5172 63.4722 58.1776 63.2572 58.8604 63.2069C59.7709 61.867 60.6014 60.4847 61.4563 59.1554C61.2263 59.2019 60.9876 59.1781 60.7713 59.0871C60.5549 58.9962 60.3709 58.8423 60.2432 58.6454C60.1639 58.4117 60.1456 58.1616 60.19 57.9189C60.2343 57.6761 60.34 57.4486 60.4968 57.2581C60.8956 56.6871 61.4221 56.2169 62.0344 55.8849C62.6161 55.5237 63.2765 55.3088 63.9593 55.2585C66.3668 51.5021 68.6973 47.8708 70.951 44.3646C75.7012 37.0916 79.9664 29.5131 83.7191 21.6786C86.3541 16.0216 87.9998 11.2156 88.4386 7.70531L84.7291 13.1642C83.8268 15.7367 82.7869 18.2588 81.6141 20.7197C77.9143 28.4489 73.6949 35.9184 68.9848 43.0769C66.656 46.7174 64.3255 50.3487 61.9931 53.9707L59.4901 57.8677L59.5067 57.8789Z" fill="url(#paint46_linear_6_666)"/>
<path fill-rule="evenodd" clip-rule="evenodd" d="M35.011 86.294L84.7238 13.1364C82.6677 14.9262 80.7059 16.8215 78.8462 18.8147C73.0104 25.1086 67.6011 31.785 62.6544 38.7994C60.1494 42.296 57.6296 45.7906 55.0951 49.2833L52.3936 53.0453C51.4943 54.3687 50.5206 55.6415 49.5826 56.9507L46.8811 60.7127C45.9818 62.0361 45.0107 63.3228 44.0701 64.618L41.3739 68.4079C40.4746 69.7312 39.5036 71.0179 38.5629 72.3132L35.8614 76.0753C35.4062 76.7452 31.4652 82.3491 30.9934 83.0078L34.9997 86.3106L35.011 86.294Z" fill="url(#paint47_radial_6_666)"/>
<path fill-rule="evenodd" clip-rule="evenodd" d="M84.7238 13.1364L35.011 86.294L39.5569 88.8028C40.0121 88.1328 43.7712 82.4053 44.2099 81.7241L46.7129 77.8272C47.6121 76.5038 48.4426 75.1216 49.3088 73.7757L51.8118 69.8788C52.7111 68.5554 53.5498 67.1788 54.4077 65.8273L56.9107 61.9304C57.8156 60.5987 58.6488 59.2304 59.5067 57.8789L62.0097 53.982C64.3457 50.3544 66.6708 46.7194 68.9848 43.0769C73.6934 35.9002 77.9093 28.412 81.6034 20.6641C82.7763 18.2032 83.8162 15.6811 84.7185 13.1087L84.7238 13.1364Z" fill="url(#paint48_radial_6_666)"/>
<path fill-rule="evenodd" clip-rule="evenodd" d="M53.408 49.9867C53.3173 50.676 53.0716 51.3357 52.6892 51.9163C52.572 52.1328 52.4012 52.3157 52.1932 52.4474C51.9852 52.579 51.7469 52.6552 51.501 52.6686C51.2698 52.6209 51.058 52.5055 50.8926 52.3371C50.7271 52.1687 50.6155 51.9549 50.5719 51.7229C50.5535 52.1798 50.6453 52.6344 50.8395 53.0484C51.0338 53.4624 51.3248 53.8236 51.688 54.1014C53.5063 55.1798 55.3021 51.2738 54.7972 49.7217L53.2096 47.9658C53.4339 48.6144 53.5019 49.3068 53.408 49.9867Z" fill="url(#paint49_linear_6_666)"/>
<path fill-rule="evenodd" clip-rule="evenodd" d="M47.8568 57.6399C47.7661 58.3291 47.5204 58.9889 47.1381 59.5695C47.0208 59.786 46.85 59.9688 46.642 60.1005C46.434 60.2322 46.1957 60.3084 45.9498 60.3217C45.7186 60.274 45.5068 60.1586 45.3414 59.9902C45.1759 59.8218 45.0643 59.608 45.0207 59.376C45.0023 59.8329 45.0941 60.2876 45.2883 60.7016C45.4826 61.1156 45.7736 61.4767 46.1368 61.7546C48.0269 62.8696 49.7728 58.966 49.3098 57.3698L47.7305 55.6196C47.9273 56.2744 47.9705 56.9657 47.8568 57.6399Z" fill="url(#paint50_linear_6_666)"/>
<path fill-rule="evenodd" clip-rule="evenodd" d="M42.3444 65.3073C42.2537 65.9965 42.0079 66.6563 41.6256 67.2369C41.5083 67.4534 41.3376 67.6362 41.1295 67.7679C40.9215 67.8996 40.6832 67.9758 40.4374 67.9891C40.2062 67.9414 39.9943 67.826 39.8289 67.6576C39.6635 67.4892 39.5518 67.2754 39.5082 67.0434C39.4898 67.502 39.5825 67.9582 39.7782 68.3733C39.974 68.7884 40.2671 69.15 40.6326 69.4276C42.5144 70.537 44.2603 66.6334 43.7974 65.0372L42.218 63.287C42.4188 63.941 42.4621 64.6333 42.3444 65.3073Z" fill="url(#paint51_linear_6_666)"/>
<path fill-rule="evenodd" clip-rule="evenodd" d="M36.8319 72.9746C36.7457 73.665 36.4996 74.3258 36.1131 74.9043C35.9959 75.1208 35.8251 75.3036 35.617 75.4353C35.409 75.567 35.1707 75.6431 34.9249 75.6565C34.6948 75.6102 34.484 75.4958 34.3197 75.3282C34.1555 75.1605 34.0455 74.9474 34.004 74.7164C33.9839 75.1735 34.0749 75.6288 34.2693 76.043C34.4637 76.4573 34.7557 76.8182 35.1201 77.0949C37.0019 78.2044 38.7478 74.3007 38.2849 72.7046L36.7055 70.9543C36.9063 71.6084 36.9496 72.3006 36.8319 72.9746Z" fill="url(#paint52_linear_6_666)"/>
<path fill-rule="evenodd" clip-rule="evenodd" d="M62.0348 55.8488C61.4224 56.1808 60.896 56.651 60.4971 57.222C60.3403 57.4126 60.2347 57.64 60.1903 57.8828C60.1459 58.1256 60.1643 58.3757 60.2435 58.6094C60.3713 58.8062 60.5553 58.9601 60.7716 59.0511C60.9879 59.142 61.2266 59.1658 61.4567 59.1194C61.0386 59.3048 60.5821 59.3868 60.1257 59.3586C59.6693 59.3305 59.2263 59.1929 58.8342 58.9575C57.1098 57.6164 60.0964 54.5558 61.7508 54.3985L63.9597 55.2224C63.2769 55.2728 62.6164 55.4877 62.0348 55.8488Z" fill="url(#paint53_linear_6_666)"/>
<path fill-rule="evenodd" clip-rule="evenodd" d="M56.9302 63.8055C56.3179 64.1375 55.7914 64.6077 55.3926 65.1787C55.2357 65.3693 55.1301 65.5967 55.0858 65.8395C55.0414 66.0822 55.0597 66.3323 55.139 66.566C55.2667 66.7629 55.4507 66.9168 55.6671 67.0078C55.8834 67.0987 56.1221 67.1225 56.3521 67.076C55.9341 67.2614 55.4776 67.3435 55.0211 67.3153C54.5647 67.2871 54.1217 67.1495 53.7297 66.9141C52.0053 65.5731 54.9835 62.5069 56.638 62.3496L58.8551 63.1791C58.1723 63.2294 57.5119 63.4444 56.9302 63.8055Z" fill="url(#paint54_linear_6_666)"/>
<path fill-rule="evenodd" clip-rule="evenodd" d="M51.823 71.7483C51.2156 72.0864 50.6927 72.5578 50.2936 73.1271C50.1342 73.3162 50.0269 73.5437 49.9824 73.7871C49.938 74.0304 49.9578 74.2811 50.0401 74.5144C50.1678 74.7113 50.3518 74.8652 50.5681 74.9562C50.7844 75.0471 51.0231 75.0709 51.2532 75.0244C50.8351 75.2098 50.3786 75.2919 49.9222 75.2637C49.4658 75.2355 49.0228 75.0979 48.6307 74.8625C46.9063 73.5215 49.8846 70.4553 51.5391 70.298L53.7562 71.1275C53.0719 71.1794 52.4096 71.3921 51.823 71.7483Z" fill="url(#paint55_linear_6_666)"/>
<path fill-rule="evenodd" clip-rule="evenodd" d="M46.7241 79.6967C46.1167 80.0348 45.5937 80.5062 45.1947 81.0755C45.0366 81.2642 44.9295 81.4903 44.8836 81.7322C44.8378 81.9741 44.8547 82.2237 44.9328 82.4572C45.0623 82.6546 45.2476 82.8091 45.4651 82.9009C45.6826 82.9927 45.9225 83.0177 46.1542 82.9728C45.7362 83.1582 45.2797 83.2403 44.8233 83.2121C44.3668 83.1839 43.9239 83.0463 43.5318 82.8109C41.8074 81.4699 44.7857 78.4037 46.4401 78.2464L48.6572 79.0759C47.973 79.1278 47.3106 79.3405 46.7241 79.6967Z" fill="url(#paint56_linear_6_666)"/>
<path style="mix-blend-mode:multiply" opacity="0.5" fill-rule="evenodd" clip-rule="evenodd" d="M53.9373 50.9871C54.0693 51.4628 54.0943 51.9619 54.0104 52.4485C53.9265 52.935 53.7357 53.3968 53.4519 53.8008C53.9651 53.2636 54.3522 52.6187 54.5849 51.9131C54.8176 51.2074 54.8901 50.4588 54.7972 49.7217L53.2096 47.9658C53.4339 48.6144 53.5019 49.3068 53.408 49.9867L53.3687 50.0446C53.6342 50.3039 53.8315 50.6249 53.9429 50.9789L53.9373 50.9871Z" fill="url(#paint57_linear_6_666)"/>
<path style="mix-blend-mode:multiply" opacity="0.5" fill-rule="evenodd" clip-rule="evenodd" d="M48.3831 58.6625C48.5152 59.1382 48.5402 59.6373 48.4563 60.1238C48.3723 60.6103 48.1816 61.0722 47.8978 61.4761C48.4202 60.9431 48.8167 60.2999 49.0581 59.5936C49.2996 58.8873 49.3798 58.136 49.293 57.3947L47.7137 55.6444C47.9104 56.2992 47.9536 56.9905 47.84 57.6647L47.8006 57.7226C48.0662 57.9819 48.2634 58.3028 48.3748 58.6568L48.3831 58.6625Z" fill="url(#paint58_linear_6_666)"/>
<path style="mix-blend-mode:screen" fill-rule="evenodd" clip-rule="evenodd" d="M71.5878 31.3287L36.2353 82.7131C42.1528 72.2257 48.6463 62.4563 55.2698 52.4246C60.1261 44.9604 65.5836 37.905 71.5878 31.3287Z" fill="url(#paint59_linear_6_666)"/>
<path style="mix-blend-mode:multiply" opacity="0.5" fill-rule="evenodd" clip-rule="evenodd" d="M42.8875 66.305C43.0196 66.7807 43.0445 67.2798 42.9606 67.7663C42.8767 68.2529 42.686 68.7147 42.4021 69.1187C42.9246 68.5857 43.3211 67.9424 43.5625 67.2362C43.8039 66.5299 43.8842 65.7785 43.7974 65.0372L42.218 63.287C42.4188 63.941 42.4621 64.6333 42.3444 65.3073L42.305 65.3652C42.5705 65.6244 42.7678 65.9454 42.8792 66.2994L42.8875 66.305Z" fill="url(#paint60_linear_6_666)"/>
<path style="mix-blend-mode:multiply" opacity="0.5" fill-rule="evenodd" clip-rule="evenodd" d="M37.375 73.9724C37.5106 74.4482 37.5381 74.9483 37.4555 75.436C37.373 75.9238 37.1825 76.387 36.8979 76.7917C37.4197 76.2573 37.8151 75.6128 38.0551 74.9055C38.2951 74.1982 38.3736 73.4462 38.2849 72.7046L36.7055 70.9543C36.9063 71.6084 36.9496 72.3007 36.8319 72.9746L36.7925 73.0325C37.058 73.2918 37.2553 73.6128 37.3667 73.9668L37.375 73.9724Z" fill="url(#paint61_linear_6_666)"/>
<path style="mix-blend-mode:multiply" opacity="0.5" fill-rule="evenodd" clip-rule="evenodd" d="M60.9015 55.7195C60.4092 55.7687 59.9342 55.9272 59.511 56.1836C59.0879 56.4399 58.7274 56.7876 58.4559 57.2012C58.7619 56.5258 59.2143 55.9269 59.7802 55.4479C60.3462 54.9688 61.0117 54.6217 61.7283 54.4316L63.9372 55.2555C63.2544 55.3058 62.5939 55.5208 62.0123 55.8819L61.9729 55.9398C61.6338 55.7892 61.263 55.724 60.8929 55.75L60.9015 55.7195Z" fill="url(#paint62_linear_6_666)"/>
<path style="mix-blend-mode:multiply" opacity="0.5" fill-rule="evenodd" clip-rule="evenodd" d="M55.7857 63.6928C55.2934 63.7419 54.8184 63.9005 54.3952 64.1568C53.9721 64.4132 53.6116 64.7608 53.3401 65.1744C53.6434 64.4924 54.0954 63.8869 54.6632 63.4024C55.2309 62.9179 55.8999 62.5666 56.6211 62.3744L58.8382 63.2039C58.1554 63.2542 57.495 63.4692 56.9133 63.8303C56.8976 63.8477 56.8843 63.8672 56.874 63.8882C56.5349 63.7376 56.1641 63.6725 55.794 63.6984L55.7857 63.6928Z" fill="url(#paint63_linear_6_666)"/>
<path style="mix-blend-mode:multiply" opacity="0.5" fill-rule="evenodd" clip-rule="evenodd" d="M50.6954 71.6107C50.2044 71.6631 49.7312 71.8236 49.3098 72.0808C48.8883 72.338 48.5292 72.6854 48.2581 73.098C48.5613 72.416 49.0134 71.8105 49.5811 71.326C50.1488 70.8415 50.8179 70.4902 51.5391 70.298L53.7562 71.1275C53.0719 71.1794 52.4096 71.3921 51.823 71.7483L51.7837 71.8062C51.4448 71.6548 51.0738 71.5896 50.7037 71.6164L50.6954 71.6107Z" fill="url(#paint64_linear_6_666)"/>
<path style="mix-blend-mode:multiply" opacity="0.5" fill-rule="evenodd" clip-rule="evenodd" d="M45.5964 79.5591C45.1055 79.6115 44.6323 79.772 44.2108 80.0292C43.7894 80.2864 43.4302 80.6338 43.1591 81.0464C43.4624 80.3644 43.9144 79.7589 44.4822 79.2744C45.0499 78.7899 45.7189 78.4386 46.4401 78.2464L48.6572 79.0759C47.973 79.1278 47.3106 79.3405 46.7241 79.6967L46.6847 79.7546C46.3459 79.6032 45.9749 79.538 45.6047 79.5648L45.5964 79.5591Z" fill="url(#paint65_linear_6_666)"/>
<path fill-rule="evenodd" clip-rule="evenodd" d="M34.0885 85.5342L35.011 86.294L36.0571 86.8719L70.4872 35.9731C72.9951 32.2134 75.2375 28.2833 77.1981 24.2114C74.1341 27.5336 71.3058 31.0655 68.7337 34.7816L34.0885 85.5342Z" fill="url(#paint66_linear_6_666)"/>
<path fill-rule="evenodd" clip-rule="evenodd" d="M77.1981 24.2114L35.011 86.294L36.0571 86.8719L70.4872 35.9731C72.9951 32.2135 75.2375 28.2833 77.1981 24.2114Z" fill="url(#paint67_linear_6_666)"/>
<path d="M51.1318 86.5366C50.6644 86.4535 50.1883 86.4306 49.7151 86.4686C48.7234 87.2697 47.9664 87.8677 44.5464 87.2605L40.1459 86.4948C37.9859 86.1151 36.8709 85.1761 36.4329 84.2015C35.3655 84.1532 34.0736 83.4567 32.9418 81.5994L30.6014 77.7844C28.7858 74.8338 29.063 73.9099 29.4344 72.6873C29.2983 72.2354 29.1045 71.803 28.8578 71.4008C27.4681 72.9021 26.3492 74.6329 25.5508 76.5165L28.9531 82.8788C30.3027 85.3119 31.3589 87.8965 32.0996 90.5785C34.8687 90.279 37.6636 90.3112 40.4251 90.6743L47.5849 91.4894C49.0411 90.0529 50.2407 88.3778 51.1318 86.5366Z" fill="url(#paint68_linear_6_666)"/>
<path d="M28.8578 71.4008C29.1045 71.803 29.2983 72.2354 29.4344 72.6873C29.063 73.9099 28.7858 74.8338 30.6014 77.7844L32.9418 81.5994C34.0902 83.4679 35.3655 84.1532 36.4329 84.2015L32.0996 90.5785C31.3589 87.8965 30.3027 85.3119 28.9531 82.8788L25.5508 76.5165C26.3492 74.6329 27.4681 72.9021 28.8578 71.4008Z" fill="url(#paint69_linear_6_666)"/>
<path style="mix-blend-mode:screen" fill-rule="evenodd" clip-rule="evenodd" d="M53.2347 47.9466C54.9229 47.7396 55.9916 46.7007 58.2333 43.811C62.195 38.6927 66.0465 33.4875 69.9585 28.3354C73.4407 23.7981 77.7958 18.1009 78.9516 15.368C78.364 15.9481 77.7761 16.5641 77.1631 17.1994C71.2638 23.5755 65.7911 30.3335 60.7805 37.4293C58.3449 40.8119 55.8242 44.3139 53.2182 47.9353L53.2347 47.9466Z" fill="url(#paint70_radial_6_666)"/>
<path style="mix-blend-mode:multiply" d="M32.0996 90.5785C31.3589 87.8965 30.3027 85.3119 28.9531 82.8788L25.5508 76.5165C27.8368 78.9526 33.4597 88.5769 32.0996 90.5785Z" fill="url(#paint71_linear_6_666)"/>
<path style="mix-blend-mode:multiply" d="M32.1079 90.5841C34.8741 90.2852 37.666 90.3155 40.4251 90.6743L47.5932 91.495C44.4865 90.2665 33.468 88.5825 32.1079 90.5841Z" fill="url(#paint72_linear_6_666)"/>
<path style="mix-blend-mode:screen" opacity="0.35" fill-rule="evenodd" clip-rule="evenodd" d="M30.7324 78.0185C31.9243 80.3034 33.6932 83.5004 33.517 85.8592C33.4545 86.663 32.8094 88.413 32.1667 88.6292C31.8747 88.7209 31.5773 88.4825 31.344 88.2031C31.6306 88.9753 31.8746 89.7626 32.0747 90.5616L36.4081 84.1846C35.3407 84.1363 34.0488 83.4398 32.917 81.5825L30.7324 78.0185Z" fill="url(#paint73_linear_6_666)"/>
<path style="mix-blend-mode:multiply" fill-rule="evenodd" clip-rule="evenodd" d="M36.8502 89.708C35.6057 89.2976 34.9279 88.1599 35.77 87.0274C36.0621 86.5983 36.4804 86.2707 36.9671 86.0901C37.4538 85.9095 37.9847 85.8849 38.486 86.0197C37.594 85.699 36.8591 85.0481 36.433 84.2014L32.0996 90.5784C34.8687 90.279 37.6636 90.3112 40.4251 90.6743L47.5849 91.4894C43.9526 91.216 40.3507 90.6292 36.8194 89.7354L36.8502 89.708Z" fill="url(#paint74_linear_6_666)"/>
</g>
<defs>
<linearGradient id="paint0_linear_6_666" x1="9.40922" y1="115.892" x2="16.9276" y2="121.001" gradientUnits="userSpaceOnUse">
<stop stop-color="#4F5978"/>
<stop offset="1" stop-color="#323747"/>
</linearGradient>
<linearGradient id="paint1_linear_6_666" x1="12.1358" y1="111.808" x2="19.7203" y2="116.962" gradientUnits="userSpaceOnUse">
<stop stop-color="#CFE2E8"/>
<stop offset="1" stop-color="#5C839E"/>
</linearGradient>
<radialGradient id="paint2_radial_6_666" cx="0" cy="0" r="1" gradientUnits="userSpaceOnUse" gradientTransform="translate(11.915 116.386) rotate(34.1973) scale(8.12998)">
<stop stop-color="white"/>
<stop offset="1" stop-color="#83839C"/>
</radialGradient>
<radialGradient id="paint3_radial_6_666" cx="0" cy="0" r="1" gradientUnits="userSpaceOnUse" gradientTransform="translate(410.366 1423.43) rotate(34.1973) scale(18.8747 33.285)">
<stop stop-color="white"/>
<stop offset="1" stop-color="#83839C"/>
</radialGradient>
<radialGradient id="paint4_radial_6_666" cx="0" cy="0" r="1" gradientUnits="userSpaceOnUse" gradientTransform="translate(10.3091 114.497) rotate(34.1973) scale(8.12999)">
<stop stop-color="white"/>
<stop offset="0.19" stop-color="#C3C3C3"/>
<stop offset="0.61" stop-color="#2D2D2D"/>
<stop offset="0.74"/>
</radialGradient>
<radialGradient id="paint5_radial_6_666" cx="0" cy="0" r="1" gradientUnits="userSpaceOnUse" gradientTransform="translate(745.124 1912.01) rotate(34.1973) scale(37.4551 54.6975)">
<stop stop-color="white"/>
<stop offset="1" stop-color="#83839C"/>
</radialGradient>
<radialGradient id="paint6_radial_6_666" cx="0" cy="0" r="1" gradientUnits="userSpaceOnUse" gradientTransform="translate(5.29998 110.428) rotate(34.1973) scale(11.52)">
<stop stop-color="white"/>
<stop offset="0.25" stop-color="#C3C3C3"/>
<stop offset="0.83" stop-color="#2D2D2D"/>
<stop offset="1"/>
</radialGradient>
<radialGradient id="paint7_radial_6_666" cx="0" cy="0" r="1" gradientUnits="userSpaceOnUse" gradientTransform="translate(731.565 1918.27) rotate(34.1973) scale(32.7144 47.6697)">
<stop stop-color="white"/>
<stop offset="1" stop-color="#83839C"/>
</radialGradient>
<linearGradient id="paint8_linear_6_666" x1="14.3577" y1="111.154" x2="19.6594" y2="114.757" gradientUnits="userSpaceOnUse">
<stop stop-color="#83839C"/>
<stop offset="1" stop-color="white"/>
</linearGradient>
<linearGradient id="paint9_linear_6_666" x1="15.5046" y1="109.431" x2="20.6823" y2="112.949" gradientUnits="userSpaceOnUse">
<stop stop-color="#7B9DB2"/>
<stop offset="0.36" stop-color="#CFE2E8"/>
<stop offset="1" stop-color="#5C839E"/>
</linearGradient>
<linearGradient id="paint10_linear_6_666" x1="-216.791" y1="900.999" x2="-216.362" y2="901.29" gradientUnits="userSpaceOnUse">
<stop stop-color="#83839C"/>
<stop offset="1" stop-color="white"/>
</linearGradient>
<linearGradient id="paint11_linear_6_666" x1="30.4663" y1="1121.19" x2="32.6375" y2="1122.67" gradientUnits="userSpaceOnUse">
<stop stop-color="white"/>
<stop offset="1" stop-color="#83839C"/>
</linearGradient>
<radialGradient id="paint12_radial_6_666" cx="0" cy="0" r="1" gradientUnits="userSpaceOnUse" gradientTransform="translate(39.3201 1166.65) rotate(34.1973) scale(14.4025 44.3597)">
<stop stop-color="white"/>
<stop offset="0.19" stop-color="#C3C3C3"/>
<stop offset="0.61" stop-color="#2D2D2D"/>
<stop offset="0.74"/>
</radialGradient>
<radialGradient id="paint13_radial_6_666" cx="0" cy="0" r="1" gradientUnits="userSpaceOnUse" gradientTransform="translate(-208.042 999.843) rotate(34.1973) scale(7.09342 43.0379)">
<stop stop-color="white"/>
<stop offset="0.19" stop-color="#C3C3C3"/>
<stop offset="0.61" stop-color="#2D2D2D"/>
<stop offset="0.74"/>
</radialGradient>
<linearGradient id="paint14_linear_6_666" x1="17.1984" y1="107.329" x2="22.0122" y2="110.601" gradientUnits="userSpaceOnUse">
<stop stop-color="#CFE2E8"/>
<stop offset="1" stop-color="#4C6C82"/>
</linearGradient>
<linearGradient id="paint15_linear_6_666" x1="18.1724" y1="106.021" x2="22.8704" y2="109.213" gradientUnits="userSpaceOnUse">
<stop stop-color="#662323"/>
<stop offset="0.33" stop-color="#8C3737"/>
<stop offset="0.42" stop-color="#7F3131"/>
<stop offset="0.63" stop-color="#692727"/>
<stop offset="0.83" stop-color="#5C2020"/>
<stop offset="1" stop-color="#571E1E"/>
</linearGradient>
<linearGradient id="paint16_linear_6_666" x1="18.2511" y1="105.905" x2="18.8136" y2="106.287" gradientUnits="userSpaceOnUse">
<stop stop-color="#8A1F1F"/>
<stop offset="1" stop-color="white"/>
</linearGradient>
<linearGradient id="paint17_linear_6_666" x1="21.8206" y1="108.427" x2="22.9041" y2="109.163" gradientUnits="userSpaceOnUse">
<stop stop-color="white"/>
<stop offset="1" stop-color="#8A1F1F"/>
</linearGradient>
<linearGradient id="paint18_linear_6_666" x1="19.1732" y1="106.701" x2="20.6124" y2="107.679" gradientUnits="userSpaceOnUse">
<stop stop-color="#C4353C"/>
<stop offset="1"/>
</linearGradient>
<linearGradient id="paint19_linear_6_666" x1="1559.1" y1="1389.11" x2="1585.79" y2="1407.24" gradientUnits="userSpaceOnUse">
<stop stop-color="white"/>
<stop offset="1" stop-color="#8A1F1F"/>
</linearGradient>
<linearGradient id="paint20_linear_6_666" x1="1352.3" y1="1891.4" x2="1382.17" y2="1911.71" gradientUnits="userSpaceOnUse">
<stop stop-color="#662323"/>
<stop offset="0.33" stop-color="#8C3737"/>
<stop offset="0.42" stop-color="#7F3131"/>
<stop offset="0.63" stop-color="#692727"/>
<stop offset="0.83" stop-color="#5C2020"/>
<stop offset="1" stop-color="#571E1E"/>
</linearGradient>
<linearGradient id="paint21_linear_6_666" x1="-154.023" y1="809.058" x2="-153.594" y2="809.349" gradientUnits="userSpaceOnUse">
<stop stop-color="#8A1F1F"/>
<stop offset="1" stop-color="white"/>
</linearGradient>
<linearGradient id="paint22_linear_6_666" x1="34.3389" y1="970.09" x2="35.9369" y2="971.176" gradientUnits="userSpaceOnUse">
<stop stop-color="white"/>
<stop offset="1" stop-color="#8A1F1F"/>
</linearGradient>
<linearGradient id="paint23_linear_6_666" x1="149.842" y1="1074.37" x2="152.673" y2="1076.3" gradientUnits="userSpaceOnUse">
<stop stop-color="#C4353C"/>
<stop offset="1"/>
</linearGradient>
<linearGradient id="paint24_linear_6_666" x1="1646.44" y1="1458.52" x2="1676.32" y2="1478.82" gradientUnits="userSpaceOnUse">
<stop stop-color="white"/>
<stop offset="1" stop-color="#8A1F1F"/>
</linearGradient>
<linearGradient id="paint25_linear_6_666" x1="1449.27" y1="1977.61" x2="1482.84" y2="2000.42" gradientUnits="userSpaceOnUse">
<stop stop-color="#662323"/>
<stop offset="0.33" stop-color="#8C3737"/>
<stop offset="0.42" stop-color="#7F3131"/>
<stop offset="0.63" stop-color="#692727"/>
<stop offset="0.83" stop-color="#5C2020"/>
<stop offset="1" stop-color="#571E1E"/>
</linearGradient>
<linearGradient id="paint26_linear_6_666" x1="-140.303" y1="838.264" x2="-139.8" y2="838.606" gradientUnits="userSpaceOnUse">
<stop stop-color="#8A1F1F"/>
<stop offset="1" stop-color="white"/>
</linearGradient>
<linearGradient id="paint27_linear_6_666" x1="49.1716" y1="999.249" x2="50.9589" y2="1000.46" gradientUnits="userSpaceOnUse">
<stop stop-color="white"/>
<stop offset="1" stop-color="#8A1F1F"/>
</linearGradient>
<linearGradient id="paint28_linear_6_666" x1="169.336" y1="1107.93" x2="172.481" y2="1110.07" gradientUnits="userSpaceOnUse">
<stop stop-color="#C4353C"/>
<stop offset="1"/>
</linearGradient>
<linearGradient id="paint29_linear_6_666" x1="1751.97" y1="1538.4" x2="1785.58" y2="1561.24" gradientUnits="userSpaceOnUse">
<stop stop-color="white"/>
<stop offset="1" stop-color="#8A1F1F"/>
</linearGradient>
<linearGradient id="paint30_linear_6_666" x1="1539.54" y1="2054.78" x2="1576.78" y2="2080.08" gradientUnits="userSpaceOnUse">
<stop stop-color="#662323"/>
<stop offset="0.33" stop-color="#8C3737"/>
<stop offset="0.42" stop-color="#7F3131"/>
<stop offset="0.63" stop-color="#692727"/>
<stop offset="0.83" stop-color="#5C2020"/>
<stop offset="1" stop-color="#571E1E"/>
</linearGradient>
<linearGradient id="paint31_linear_6_666" x1="-147.816" y1="848.866" x2="-147.286" y2="849.225" gradientUnits="userSpaceOnUse">
<stop stop-color="#8A1F1F"/>
<stop offset="1" stop-color="white"/>
</linearGradient>
<linearGradient id="paint32_linear_6_666" x1="64.404" y1="1027.94" x2="66.3911" y2="1029.29" gradientUnits="userSpaceOnUse">
<stop stop-color="white"/>
<stop offset="1" stop-color="#8A1F1F"/>
</linearGradient>
<linearGradient id="paint33_linear_6_666" x1="193.009" y1="1141.5" x2="196.519" y2="1143.89" gradientUnits="userSpaceOnUse">
<stop stop-color="#C4353C"/>
<stop offset="1"/>
</linearGradient>
<linearGradient id="paint34_linear_6_666" x1="1843.29" y1="1607.78" x2="1880.53" y2="1633.09" gradientUnits="userSpaceOnUse">
<stop stop-color="white"/>
<stop offset="1" stop-color="#8A1F1F"/>
</linearGradient>
<linearGradient id="paint35_linear_6_666" x1="1632.51" y1="2133.87" x2="1673.73" y2="2161.89" gradientUnits="userSpaceOnUse">
<stop stop-color="#662323"/>
<stop offset="0.33" stop-color="#8C3737"/>
<stop offset="0.42" stop-color="#7F3131"/>
<stop offset="0.63" stop-color="#692727"/>
<stop offset="0.83" stop-color="#5C2020"/>
<stop offset="1" stop-color="#571E1E"/>
</linearGradient>
<linearGradient id="paint36_linear_6_666" x1="-138.69" y1="866.017" x2="-138.093" y2="866.423" gradientUnits="userSpaceOnUse">
<stop stop-color="#8A1F1F"/>
<stop offset="1" stop-color="white"/>
</linearGradient>
<linearGradient id="paint37_linear_6_666" x1="82.7716" y1="1052" x2="84.9691" y2="1053.5" gradientUnits="userSpaceOnUse">
<stop stop-color="white"/>
<stop offset="1" stop-color="#8A1F1F"/>
</linearGradient>
<linearGradient id="paint38_linear_6_666" x1="218.167" y1="1172.79" x2="222.061" y2="1175.44" gradientUnits="userSpaceOnUse">
<stop stop-color="#C4353C"/>
<stop offset="1"/>
</linearGradient>
<linearGradient id="paint39_linear_6_666" x1="1947.74" y1="1669.98" x2="1988.96" y2="1697.99" gradientUnits="userSpaceOnUse">
<stop stop-color="white"/>
<stop offset="1" stop-color="#8A1F1F"/>
</linearGradient>
<linearGradient id="paint40_linear_6_666" x1="1727.53" y1="2203.64" x2="1772.82" y2="2234.41" gradientUnits="userSpaceOnUse">
<stop stop-color="#662323"/>
<stop offset="0.33" stop-color="#8C3737"/>
<stop offset="0.42" stop-color="#7F3131"/>
<stop offset="0.63" stop-color="#692727"/>
<stop offset="0.83" stop-color="#5C2020"/>
<stop offset="1" stop-color="#571E1E"/>
</linearGradient>
<linearGradient id="paint41_linear_6_666" x1="-132.884" y1="875.555" x2="-132.244" y2="875.991" gradientUnits="userSpaceOnUse">
<stop stop-color="#8A1F1F"/>
<stop offset="1" stop-color="white"/>
</linearGradient>
<linearGradient id="paint42_linear_6_666" x1="103.737" y1="1072.38" x2="106.156" y2="1074.02" gradientUnits="userSpaceOnUse">
<stop stop-color="white"/>
<stop offset="1" stop-color="#8A1F1F"/>
</linearGradient>
<linearGradient id="paint43_linear_6_666" x1="244.578" y1="1196.01" x2="248.84" y2="1198.9" gradientUnits="userSpaceOnUse">
<stop stop-color="#C4353C"/>
<stop offset="1"/>
</linearGradient>
<linearGradient id="paint44_linear_6_666" x1="2061.83" y1="1711.68" x2="2107.12" y2="1742.45" gradientUnits="userSpaceOnUse">
<stop stop-color="white"/>
<stop offset="1" stop-color="#8A1F1F"/>
</linearGradient>
<linearGradient id="paint45_linear_6_666" x1="32.1956" y1="83.8006" x2="85.3482" y2="5.58111" gradientUnits="userSpaceOnUse">
<stop stop-color="#A9C5CF"/>
<stop offset="1" stop-color="#D9F2FA"/>
</linearGradient>
<linearGradient id="paint46_linear_6_666" x1="38.3741" y1="87.9991" x2="91.5267" y2="9.77958" gradientUnits="userSpaceOnUse">
<stop stop-color="#89A7CC"/>
<stop offset="1" stop-color="#A1B9C9"/>
</linearGradient>
<radialGradient id="paint47_radial_6_666" cx="0" cy="0" r="1" gradientUnits="userSpaceOnUse" gradientTransform="translate(64.1781 21.7718) rotate(34.1973) scale(76.9002 76.9)">
<stop stop-color="#DB6666"/>
<stop offset="1" stop-color="#731A1A"/>
</radialGradient>
<radialGradient id="paint48_radial_6_666" cx="0" cy="0" r="1" gradientUnits="userSpaceOnUse" gradientTransform="translate(74.4045 20.5117) rotate(34.1973) scale(67.9696 67.97)">
<stop stop-color="#A12D2D"/>
<stop offset="1" stop-color="#691717"/>
</radialGradient>
<linearGradient id="paint49_linear_6_666" x1="51.2854" y1="53.8399" x2="54.6408" y2="48.9021" gradientUnits="userSpaceOnUse">
<stop stop-color="#CEEAF2"/>
<stop offset="1" stop-color="#687B9E"/>
</linearGradient>
<linearGradient id="paint50_linear_6_666" x1="763.595" y1="1269.78" x2="783.627" y2="1240.31" gradientUnits="userSpaceOnUse">
<stop stop-color="#CEEAF2"/>
<stop offset="1" stop-color="#687B9E"/>
</linearGradient>
<linearGradient id="paint51_linear_6_666" x1="726.108" y1="1323.86" x2="746.14" y2="1294.38" gradientUnits="userSpaceOnUse">
<stop stop-color="#CEEAF2"/>
<stop offset="1" stop-color="#687B9E"/>
</linearGradient>
<linearGradient id="paint52_linear_6_666" x1="685.254" y1="1375.72" x2="705.319" y2="1346.19" gradientUnits="userSpaceOnUse">
<stop stop-color="#CEEAF2"/>
<stop offset="1" stop-color="#687B9E"/>
</linearGradient>
<linearGradient id="paint53_linear_6_666" x1="59.1926" y1="59.213" x2="62.548" y2="54.2752" gradientUnits="userSpaceOnUse">
<stop stop-color="#778DA3"/>
<stop offset="1" stop-color="#556982"/>
</linearGradient>
<linearGradient id="paint54_linear_6_666" x1="801.057" y1="1295.24" x2="821.089" y2="1265.76" gradientUnits="userSpaceOnUse">
<stop stop-color="#778DA3"/>
<stop offset="1" stop-color="#556982"/>
</linearGradient>
<linearGradient id="paint55_linear_6_666" x1="765.037" y1="1350.31" x2="785.069" y2="1320.84" gradientUnits="userSpaceOnUse">
<stop stop-color="#778DA3"/>
<stop offset="1" stop-color="#556982"/>
</linearGradient>
<linearGradient id="paint56_linear_6_666" x1="728.954" y1="1405.42" x2="749.019" y2="1375.89" gradientUnits="userSpaceOnUse">
<stop stop-color="#778DA3"/>
<stop offset="1" stop-color="#556982"/>
</linearGradient>
<linearGradient id="paint57_linear_6_666" x1="841.332" y1="1094.59" x2="853.774" y2="1076.28" gradientUnits="userSpaceOnUse">
<stop stop-color="white"/>
<stop offset="1" stop-color="#83839C"/>
</linearGradient>
<linearGradient id="paint58_linear_6_666" x1="797.274" y1="1133.2" x2="809.795" y2="1114.78" gradientUnits="userSpaceOnUse">
<stop stop-color="white"/>
<stop offset="1" stop-color="#83839C"/>
</linearGradient>
<linearGradient id="paint59_linear_6_666" x1="52.6903" y1="56.1849" x2="54.0633" y2="57.1179" gradientUnits="userSpaceOnUse">
<stop/>
<stop offset="1" stop-color="#C4353C"/>
</linearGradient>
<linearGradient id="paint60_linear_6_666" x1="766.01" y1="1177.21" x2="778.531" y2="1158.78" gradientUnits="userSpaceOnUse">
<stop stop-color="white"/>
<stop offset="1" stop-color="#83839C"/>
</linearGradient>
<linearGradient id="paint61_linear_6_666" x1="737.12" y1="1222.86" x2="749.641" y2="1204.43" gradientUnits="userSpaceOnUse">
<stop stop-color="white"/>
<stop offset="1" stop-color="#83839C"/>
</linearGradient>
<linearGradient id="paint62_linear_6_666" x1="866.412" y1="1111.63" x2="878.854" y2="1093.32" gradientUnits="userSpaceOnUse">
<stop stop-color="white"/>
<stop offset="1" stop-color="#83839C"/>
</linearGradient>
<linearGradient id="paint63_linear_6_666" x1="837.285" y1="1160.39" x2="849.806" y2="1141.97" gradientUnits="userSpaceOnUse">
<stop stop-color="white"/>
<stop offset="1" stop-color="#83839C"/>
</linearGradient>
<linearGradient id="paint64_linear_6_666" x1="807.858" y1="1205.64" x2="820.38" y2="1187.22" gradientUnits="userSpaceOnUse">
<stop stop-color="white"/>
<stop offset="1" stop-color="#83839C"/>
</linearGradient>
<linearGradient id="paint65_linear_6_666" x1="778.445" y1="1250.94" x2="790.966" y2="1232.51" gradientUnits="userSpaceOnUse">
<stop stop-color="white"/>
<stop offset="1" stop-color="#83839C"/>
</linearGradient>
<linearGradient id="paint66_linear_6_666" x1="55.1203" y1="54.5839" x2="57.0888" y2="55.9215" gradientUnits="userSpaceOnUse">
<stop stop-color="#752125"/>
<stop offset="1" stop-color="#470B0E"/>
</linearGradient>
<linearGradient id="paint67_linear_6_666" x1="56.1045" y1="55.2527" x2="57.0888" y2="55.9216" gradientUnits="userSpaceOnUse">
<stop stop-color="#4F0D0D"/>
<stop offset="1" stop-color="#C44747"/>
</linearGradient>
<linearGradient id="paint68_linear_6_666" x1="24.7469" y1="77.0946" x2="47.3517" y2="92.4553" gradientUnits="userSpaceOnUse">
<stop stop-color="#323747"/>
<stop offset="1" stop-color="#4F5978"/>
</linearGradient>
<linearGradient id="paint69_linear_6_666" x1="24.7469" y1="77.0946" x2="36.0451" y2="84.7722" gradientUnits="userSpaceOnUse">
<stop stop-color="#5C839E"/>
<stop offset="1" stop-color="#8FA7B5"/>
</linearGradient>
<radialGradient id="paint70_radial_6_666" cx="0" cy="0" r="1" gradientUnits="userSpaceOnUse" gradientTransform="translate(62.2093 18.2818) rotate(34.1973) scale(37.68)">
<stop stop-color="#A1BFE8"/>
<stop offset="0.6" stop-color="#3F4A5A"/>
<stop offset="1"/>
</radialGradient>
<linearGradient id="paint71_linear_6_666" x1="23.3138" y1="79.8084" x2="34.3309" y2="87.2948" gradientUnits="userSpaceOnUse">
<stop stop-color="#5C839E"/>
<stop offset="1" stop-color="#ADBDC2"/>
</linearGradient>
<linearGradient id="paint72_linear_6_666" x1="-4571.84" y1="-1811.67" x2="-4718.48" y2="-1911.31" gradientUnits="userSpaceOnUse">
<stop stop-color="#5C839E"/>
<stop offset="1" stop-color="#ADBDC2"/>
</linearGradient>
<linearGradient id="paint73_linear_6_666" x1="28.0538" y1="82.0138" x2="34.803" y2="86.6001" gradientUnits="userSpaceOnUse">
<stop/>
<stop offset="0.17" stop-color="#2D2D2D"/>
<stop offset="0.75" stop-color="#C3C3C3"/>
<stop offset="1" stop-color="white"/>
</linearGradient>
<linearGradient id="paint74_linear_6_666" x1="34.3478" y1="87.27" x2="45.3731" y2="94.7621" gradientUnits="userSpaceOnUse">
<stop stop-color="#A2C8E8"/>
<stop offset="0.35" stop-color="#C3DCF0"/>
<stop offset="1" stop-color="white"/>
</linearGradient>
<clipPath id="clip0_6_666">
<rect width="27.33" height="137.24" fill="white" transform="translate(77.135) rotate(34.1973)"/>
</clipPath>
</defs>
</svg>
